<svg xmlns="http://www.w3.org/2000/svg" class="w-full fill-current" viewBox="0 0 24 24" aria-label="Behance">
  <path aria-label="Logo" d="M18.7789307 7.98669138c4.6187136 0 5.2004831 3.99729262 5.2205122 5.86269582l-.0002876.2307196c-.0058039.435244-.0395535.7072715-.0395535.7072715h-7.7121354c0 2.9110389 2.6191449 2.7267091 2.6191449 2.7267091 2.2344412 0 2.3793505-1.3749274 2.3864714-1.6410424l-.0000558-.0442959h2.6193954c0 3.8592547-3.7910476 4.1608751-4.8317273 4.1709688l-.1242488-.0001239c-.0883103-.0010978-.137265-.0040431-.137265-.0040431-5.282682 0-5.7058457-4.4753716-5.7234771-5.6890317l.0001917-.1787419c.0014379-.0787409.0042554-.1217568.0042554-.1217568l.0007938-.048267c.0145412-.5686726.2953832-5.97106212 5.7179857-5.97106212zM7.74495301 4c2.35384839 0 4.21192569 1.36783756 4.21192569 4.17154855 0 2.80397465-2.27092764 2.98144815-2.27092764 2.98144815 2.99341584 0 2.78724114 3.8904391 2.78699064 3.8904391 0 4.4067216-4.01542754 4.6186417-4.64529852 4.6247763l-.06144736-.0000274c-.01397178-.0001769-.02124281-.000419-.02124281-.000419H0V4zm.02136147 8.6966161l-4.35378537-.0004257v4.1873785h4.13276263c.62127971-.0181957 1.76889356-.2236218 1.76889356-2.0355385 0-2.0230716-1.36025011-2.1443135-1.54787082-2.1514143zm11.07073592-2.415428c-2.2992359 0-2.6191449 2.4150099-2.6191449 2.4150099h4.8893303s.0293011-2.4152736-2.2701854-2.4150099zM7.74520352 6.78498794H3.41252911v3.49620016h4.06412125c.70194586 0 1.32147196-.2362796 1.32147196-1.86623988s-1.0529188-1.62996028-1.0529188-1.62996028zM21.7182351 4.92296731v1.9295291h-6.1411495v-1.9295291h6.1411495z"/>
</svg>
