
<svg viewBox="0 0 934 2600" xmlns="http://www.w3.org/2000/svg">
<g fill="none" fill-rule="evenodd">
<path d="M934 0v2600H0V0h934zm-1 1H1v2598h932V1z" fill="#E8EDE3" fill-rule="nonzero"/>
<path fill="#4A4A4A" d="M122 120h160v156H122z"/>
<path fill="#9E9F9E" d="M300 120h160v156H300z"/>
<path fill="#D7D7D7" d="M476 120h160v156H476z"/>
<path d="M178.222 202l.435-3.225h1.26l-.435 3.225h1.02l.435-3.225h.87v-.9h-.75l.33-2.43h.886v-.9h-.766l.435-3.225h-1.02l-.434 3.225h-1.26l.434-3.225h-1.02l-.434 3.225h-.87v.9h.75l-.33 2.43h-.886v.9h.765l-.435 3.225h1.02zm1.815-4.125h-1.26l.33-2.43h1.26l-.33 2.43zm8.435 4.125v-1.59h.736v-1.44h-.736v-3.045h-1.53v3.045h-1.514l2.294-7.65h-1.62l-2.204 7.65v1.44h3.044V202h1.53zm3.83 0l.45-2.295h2.085l.45 2.295h1.53l-2.385-10.68h-1.274L190.773 202h1.53zm2.25-3.735h-1.53l.75-3.87h.03l.75 3.87zm8.406 3.735v-1.59h.734v-1.44h-.734v-3.045h-1.53v3.045h-1.516l2.296-7.65h-1.62l-2.206 7.65v1.44h3.046V202h1.53zm3.83 0l.45-2.295h2.084l.45 2.295h1.53l-2.385-10.68h-1.274L205.257 202h1.53zm2.25-3.735h-1.53l.75-3.87h.03l.75 3.87zm8.404 3.735v-1.59h.736v-1.44h-.736v-3.045h-1.53v3.045h-1.514l2.294-7.65h-1.62l-2.204 7.65v1.44h3.044V202h1.53zm3.83 0l.45-2.295h2.085l.45 2.295h1.53l-2.385-10.68h-1.274L219.743 202h1.53zm2.25-3.735h-1.53l.75-3.87h.03l.75 3.87zM357.055 202l.435-3.225h1.26l-.435 3.225h1.02l.435-3.225h.87v-.9h-.75l.33-2.43h.885v-.9h-.765l.435-3.225h-1.02l-.435 3.225h-1.26l.435-3.225h-1.02l-.435 3.225h-.87v.9h.75l-.33 2.43h-.885v.9h.765l-.435 3.225h1.02zm1.815-4.125h-1.26l.33-2.43h1.26l-.33 2.43zm6.5 4.125l2.01-5.37a5.05 5.05 0 00.225-.825c.02-.15.035-.333.045-.548.01-.215.015-.487.015-.817 0-.35-.005-.637-.015-.863a7.398 7.398 0 00-.045-.577c-.03-.15-.07-.28-.12-.39-.05-.11-.11-.225-.18-.345a2.18 2.18 0 00-.795-.757 2.26 2.26 0 00-1.125-.278c-.42 0-.798.09-1.132.27-.335.18-.603.435-.803.765-.07.12-.127.235-.173.345-.044.11-.077.24-.097.39a4.2 4.2 0 00-.06.577c-.01.226-.015.513-.015.863v.243c.002.313.007.58.015.8.01.274.03.502.06.682.02.18.05.328.09.442.04.115.095.223.165.323.13.2.31.365.54.495.23.13.48.195.75.195.17 0 .308-.013.412-.037a.6.6 0 00.233-.098l.03.03-1.74 4.485h1.71zm.015-5.73a.745.745 0 01-.75-.765v-1.98a.745.745 0 01.75-.765.745.745 0 01.75.765v1.98a.745.745 0 01-.75.765zm9.47 5.73v-1.53h-3.03v-3.135h2.64v-1.44h-2.64v-3.135h3.03v-1.44h-4.56V202h4.56zm4.445 0l2.01-5.37a5.05 5.05 0 00.225-.825c.02-.15.035-.333.045-.548.01-.215.015-.487.015-.817 0-.35-.005-.637-.015-.863a7.398 7.398 0 00-.045-.577c-.03-.15-.07-.28-.12-.39-.05-.11-.11-.225-.18-.345a2.18 2.18 0 00-.795-.757 2.26 2.26 0 00-1.125-.278c-.42 0-.798.09-1.132.27-.335.18-.603.435-.803.765-.07.12-.127.235-.173.345-.044.11-.077.24-.097.39a4.2 4.2 0 00-.06.577c-.01.226-.015.513-.015.863v.243c.002.313.007.58.015.8.01.274.03.502.06.682.02.18.05.328.09.442.04.115.095.223.165.323.13.2.31.365.54.495.23.13.48.195.75.195.17 0 .308-.013.413-.037a.6.6 0 00.232-.098l.03.03-1.74 4.485h1.71zm.015-5.73a.745.745 0 01-.75-.765v-1.98a.745.745 0 01.75-.765.745.745 0 01.75.765v1.98a.745.745 0 01-.75.765zm6.44 5.73v-4.56h2.64V196h-2.64v-3.24h3.03v-1.44h-4.56V202h1.53zm7.475 0l2.01-5.37a5.05 5.05 0 00.225-.825c.02-.15.035-.333.045-.548.01-.215.015-.487.015-.817v-.202c-.002-.26-.007-.48-.015-.66a7.398 7.398 0 00-.045-.578c-.03-.15-.07-.28-.12-.39-.05-.11-.11-.225-.18-.345a2.18 2.18 0 00-.795-.757 2.26 2.26 0 00-1.125-.278c-.42 0-.798.09-1.132.27-.336.18-.603.435-.803.765-.07.12-.127.235-.173.345-.045.11-.077.24-.097.39a4.2 4.2 0 00-.06.577 29.66 29.66 0 000 1.905c.01.275.03.503.06.683.02.18.05.328.09.442.04.115.095.223.165.323.13.2.31.365.54.495.23.13.48.195.75.195.17 0 .308-.013.413-.037a.6.6 0 00.232-.098l.03.03-1.74 4.485h1.71zm.015-5.73a.745.745 0 01-.75-.765v-1.98a.745.745 0 01.75-.765.745.745 0 01.75.765v1.98a.745.745 0 01-.75.765zm9.47 5.73v-1.53h-3.03v-3.135h2.64v-1.44h-2.64v-3.135h3.03v-1.44h-4.56V202h4.56z" fill="#FFF" fill-rule="nonzero"/>
<path d="M531.795 202l.435-3.225h1.26l-.435 3.225h1.02l.435-3.225h.87v-.9h-.75l.33-2.43h.885v-.9h-.765l.435-3.225h-1.02l-.435 3.225h-1.26l.435-3.225h-1.02l-.435 3.225h-.87v.9h.75l-.33 2.43h-.885v.9h.765l-.435 3.225h1.02zm1.815-4.125h-1.26l.33-2.43h1.26l-.33 2.43zm6.575 4.125c.91 0 1.608-.238 2.093-.713.485-.475.727-1.212.727-2.212v-4.995c0-.88-.227-1.56-.683-2.04-.455-.48-1.122-.72-2.002-.72h-2.265V202h2.13zm.105-1.44h-.705v-7.8h.705c.45 0 .76.115.93.345.17.23.255.555.255.975v5.145c0 .46-.09.798-.27 1.013-.18.214-.485.322-.915.322zm7.31 1.44l2.595-9.15v-1.53h-4.56v2.67h1.35v-1.23h1.68L545.98 202h1.62zm7.355 0c.91 0 1.607-.238 2.092-.713.486-.475.728-1.212.728-2.212v-4.995c0-.88-.227-1.56-.683-2.04-.454-.48-1.122-.72-2.002-.72h-2.265V202h2.13zm.105-1.44h-.705v-7.8h.705c.45 0 .76.115.93.345.17.23.255.555.255.975v5.145c0 .46-.09.798-.27 1.013-.18.214-.485.322-.915.322zm7.31 1.44l2.595-9.15v-1.53h-4.56v2.67h1.35v-1.23h1.68L560.75 202h1.62zm7.355 0c.91 0 1.607-.238 2.092-.713.486-.475.728-1.212.728-2.212v-4.995c0-.88-.227-1.56-.683-2.04-.454-.48-1.122-.72-2.002-.72h-2.265V202h2.13zm.105-1.44h-.705v-7.8h.705c.45 0 .76.115.93.345.17.23.255.555.255.975v5.145c0 .46-.09.798-.27 1.013-.18.214-.485.322-.915.322zm7.31 1.44l2.595-9.15v-1.53h-4.56v2.67h1.35v-1.23h1.68L575.52 202h1.62z" fill="#4A4A4A" fill-rule="nonzero"/>
<path fill="#ECECEC" d="M652 120h160v156H652z"/>
<path d="M708.268 202l.434-3.225h1.26l-.434 3.225h1.02l.434-3.225h.87v-.9h-.75l.33-2.43h.885v-.9h-.764l.434-3.225h-1.02l-.434 3.225h-1.26l.434-3.225h-1.02l-.434 3.225h-.87v.9h.75l-.33 2.43h-.885v.9h.764l-.435 3.225h1.02zm1.814-4.125h-1.26l.33-2.43h1.26l-.33 2.43zm9.005 4.125v-1.53h-3.03v-3.135h2.64v-1.44h-2.64v-3.135h3.03v-1.44h-4.56V202h4.56zm4.82.09c.34 0 .658-.067.953-.203.295-.135.553-.317.773-.547.22-.23.392-.493.517-.787.125-.296.188-.608.188-.938v-.66h-1.53v.525c0 .21-.03.385-.09.525a.915.915 0 01-.226.33.962.962 0 01-.322.172 1.111 1.111 0 01-.322.053c-.35 0-.593-.105-.728-.315-.135-.21-.202-.47-.202-.78v-5.46c0-.36.062-.657.187-.892.125-.236.377-.353.757-.353.29 0 .52.11.69.33.17.22.255.48.255.78v.51h1.53v-.6c0-.37-.062-.713-.187-1.028a2.505 2.505 0 00-.517-.817c-.45-.47-1.036-.705-1.755-.705-.37 0-.708.063-1.013.188a2.295 2.295 0 00-1.298 1.298c-.12.299-.18.624-.18.974v5.88c0 .49.078.893.233 1.208.155.315.352.572.592.772.24.2.51.34.81.42.3.08.595.12.885.12zm9.635-.09v-1.53h-3.03v-3.135h2.64v-1.44h-2.64v-3.135h3.03v-1.44h-4.56V202h4.56zm4.82.09c.34 0 .658-.067.953-.203.295-.135.552-.317.772-.547.22-.23.393-.493.518-.787.125-.296.188-.608.188-.938v-.66h-1.53v.525c0 .21-.03.385-.09.525a.915.915 0 01-.226.33.962.962 0 01-.322.172 1.111 1.111 0 01-.322.053c-.35 0-.593-.105-.728-.315-.135-.21-.203-.47-.203-.78v-5.46c0-.36.063-.657.188-.892.125-.236.378-.353.758-.353.29 0 .52.11.69.33.17.22.255.48.255.78v.51h1.53v-.6c0-.37-.063-.713-.188-1.028a2.505 2.505 0 00-.518-.817c-.45-.47-1.034-.705-1.755-.705-.37 0-.707.063-1.012.188a2.295 2.295 0 00-1.298 1.298c-.12.299-.18.624-.18.974v5.88c0 .49.078.893.233 1.208.155.315.352.572.592.772.24.2.51.34.81.42.3.08.596.12.885.12zm9.635-.09v-1.53h-3.03v-3.135h2.64v-1.44h-2.64v-3.135h3.03v-1.44h-4.56V202h4.56zm4.82.09c.34 0 .658-.067.953-.203.295-.135.553-.317.773-.547.22-.23.392-.493.517-.787.125-.296.188-.608.188-.938v-.66h-1.53v.525c0 .21-.03.385-.09.525a.915.915 0 01-.226.33.962.962 0 01-.322.172 1.111 1.111 0 01-.322.053c-.35 0-.593-.105-.728-.315-.135-.21-.202-.47-.202-.78v-5.46c0-.36.062-.657.187-.892.125-.236.378-.353.758-.353.29 0 .52.11.69.33.17.22.255.48.255.78v.51h1.53v-.6c0-.37-.063-.713-.188-1.028a2.505 2.505 0 00-.517-.817c-.45-.47-1.035-.705-1.755-.705-.37 0-.708.063-1.013.188a2.295 2.295 0 00-1.298 1.298c-.12.299-.18.624-.18.974v5.88c0 .49.078.893.233 1.208.155.315.353.572.592.772.24.2.51.34.81.42.3.08.596.12.885.12z" fill="#4A4A4A" fill-rule="nonzero"/>
<path fill="#4A4A4A" d="M121 712h691v48H121z"/>
<path d="M430.858 741l1.154-6.93h.03l1.17 6.93h1.44l1.59-10.68h-1.62l-.735 6.945h-.03l-1.245-6.945h-1.17l-1.2 6.78h-.03l-.764-6.78h-1.62l1.59 10.68h1.44zm12.305 0v-1.53h-3.03v-3.135h2.64v-1.44h-2.64v-3.135h3.03v-1.44h-4.56V741h4.56zm3.964 0v-10.68h-1.53V741h1.53zm5.42 0v-9.24h1.77v-1.44h-5.07v1.44h1.77V741h1.53zm8.405 0v-1.53h-3.03v-3.135h2.64v-1.44h-2.64v-3.135h3.03v-1.44h-4.56V741h4.56zm3.92 0v-4.56h.916l1.424 4.56h1.62l-1.65-4.875c.49-.27.833-.625 1.028-1.065.195-.44.293-.975.293-1.605 0-2.09-.9-3.135-2.7-3.135h-2.46V741h1.53zm.87-5.91h-.87v-3.33h.796c.53 0 .89.14 1.08.42.09.15.15.328.18.533.03.205.045.442.045.712 0 .27-.016.508-.046.713-.03.204-.085.377-.165.517a.877.877 0 01-.375.322c-.16.076-.375.113-.644.113zm9.95 5.91v-1.53h-3.03v-9.15h-1.53V741h4.56zm6.95 0v-1.53h-3.03v-3.135h2.64v-1.44h-2.64v-3.135h3.03v-1.44h-4.56V741h4.56zm4.7.09c.49 0 .906-.08 1.245-.24.34-.16.615-.38.826-.66.2-.27.344-.598.435-.983.09-.385.135-.802.135-1.252 0-.39-.02-.738-.06-1.043a2.84 2.84 0 00-.226-.817 1.978 1.978 0 00-.495-.608 2.9 2.9 0 00-.825-.457l-1.17-.465c-.2-.08-.357-.16-.472-.24a.834.834 0 01-.262-.285.997.997 0 01-.113-.375 5.072 5.072 0 01-.023-.525c0-.18.016-.352.046-.518.03-.164.084-.312.165-.442.08-.12.185-.22.315-.3.13-.08.3-.12.51-.12.39 0 .667.128.832.383.165.255.248.557.248.907v.345h1.53v-.75c0-.62-.23-1.17-.69-1.65a2.685 2.685 0 00-.818-.555 2.538 2.538 0 00-1.043-.21c-.45 0-.837.077-1.162.232a2.269 2.269 0 00-.803.623c-.22.26-.385.57-.494.93-.11.36-.166.74-.166 1.14 0 .67.113 1.228.338 1.673.225.445.668.802 1.328 1.072l1.094.45c.19.08.343.155.458.225.115.07.208.16.278.27.06.11.1.255.12.435a8.57 8.57 0 01.007 1.342 1.184 1.184 0 01-.142.503.808.808 0 01-.338.322c-.145.076-.347.113-.608.113-.39 0-.667-.112-.832-.337a1.25 1.25 0 01-.248-.758v-.48h-1.53v.57c0 .36.068.692.203.998.135.304.317.572.548.802.23.23.505.41.825.54.32.13.665.195 1.034.195zm9.74-.09v-1.53h-3.03v-3.135h2.64v-1.44h-2.64v-3.135h3.03v-1.44h-4.56V741h4.56zm3.86 0v-6.42h.03l2.34 6.42h1.44v-10.68h-1.53v6.435h-.03l-2.31-6.435h-1.47V741h1.53z" fill="#FFF" fill-rule="nonzero"/>
<path fill="#008E48" d="M121 576h691v48H121z"/>
<path d="M430.858 605l1.154-6.93h.03l1.17 6.93h1.44l1.59-10.68h-1.62l-.735 6.945h-.03l-1.245-6.945h-1.17l-1.2 6.78h-.03l-.764-6.78h-1.62l1.59 10.68h1.44zm12.305 0v-1.53h-3.03v-3.135h2.64v-1.44h-2.64v-3.135h3.03v-1.44h-4.56V605h4.56zm3.964 0v-10.68h-1.53V605h1.53zm5.42 0v-9.24h1.77v-1.44h-5.07v1.44h1.77V605h1.53zm8.405 0v-1.53h-3.03v-3.135h2.64v-1.44h-2.64v-3.135h3.03v-1.44h-4.56V605h4.56zm3.92 0v-4.56h.916l1.424 4.56h1.62l-1.65-4.875c.49-.27.833-.625 1.028-1.065.195-.44.293-.975.293-1.605 0-2.09-.9-3.135-2.7-3.135h-2.46V605h1.53zm.87-5.91h-.87v-3.33h.796c.53 0 .89.14 1.08.42.09.15.15.328.18.533.03.205.045.442.045.712 0 .27-.016.508-.046.713-.03.204-.085.377-.165.517a.877.877 0 01-.375.322c-.16.076-.375.113-.644.113zm9.95 5.91v-1.53h-3.03v-9.15h-1.53V605h4.56zm6.95 0v-1.53h-3.03v-3.135h2.64v-1.44h-2.64v-3.135h3.03v-1.44h-4.56V605h4.56zm4.7.09c.49 0 .906-.08 1.245-.24.34-.16.615-.38.826-.66.2-.27.344-.598.435-.983.09-.385.135-.802.135-1.252 0-.39-.02-.738-.06-1.043a2.84 2.84 0 00-.226-.817 1.978 1.978 0 00-.495-.608 2.9 2.9 0 00-.825-.457l-1.17-.465c-.2-.08-.357-.16-.472-.24a.834.834 0 01-.262-.285.997.997 0 01-.113-.375 5.072 5.072 0 01-.023-.525c0-.18.016-.352.046-.518.03-.164.084-.312.165-.442.08-.12.185-.22.315-.3.13-.08.3-.12.51-.12.39 0 .667.128.832.383.165.255.248.557.248.907v.345h1.53v-.75c0-.62-.23-1.17-.69-1.65a2.685 2.685 0 00-.818-.555 2.538 2.538 0 00-1.043-.21c-.45 0-.837.077-1.162.232a2.269 2.269 0 00-.803.623c-.22.26-.385.57-.494.93-.11.36-.166.74-.166 1.14 0 .67.113 1.228.338 1.673.225.445.668.802 1.328 1.072l1.094.45c.19.08.343.155.458.225.115.07.208.16.278.27.06.11.1.255.12.435a8.57 8.57 0 01.007 1.342 1.184 1.184 0 01-.142.503.808.808 0 01-.338.322c-.145.076-.347.113-.608.113-.39 0-.667-.112-.832-.337a1.25 1.25 0 01-.248-.758v-.48h-1.53v.57c0 .36.068.692.203.998.135.304.317.572.548.802.23.23.505.41.825.54.32.13.665.195 1.034.195zm9.74-.09v-1.53h-3.03v-3.135h2.64v-1.44h-2.64v-3.135h3.03v-1.44h-4.56V605h4.56zm3.86 0v-6.42h.03l2.34 6.42h1.44v-10.68h-1.53v6.435h-.03l-2.31-6.435h-1.47V605h1.53z" fill="#FFF" fill-rule="nonzero"/>
<path fill="#B50000" d="M121 848h691v48H121z"/>
<path d="M430.858 877l1.154-6.93h.03l1.17 6.93h1.44l1.59-10.68h-1.62l-.735 6.945h-.03l-1.245-6.945h-1.17l-1.2 6.78h-.03l-.764-6.78h-1.62l1.59 10.68h1.44zm12.305 0v-1.53h-3.03v-3.135h2.64v-1.44h-2.64v-3.135h3.03v-1.44h-4.56V877h4.56zm3.964 0v-10.68h-1.53V877h1.53zm5.42 0v-9.24h1.77v-1.44h-5.07v1.44h1.77V877h1.53zm8.405 0v-1.53h-3.03v-3.135h2.64v-1.44h-2.64v-3.135h3.03v-1.44h-4.56V877h4.56zm3.92 0v-4.56h.916l1.424 4.56h1.62l-1.65-4.875c.49-.27.833-.625 1.028-1.065.195-.44.293-.975.293-1.605 0-2.09-.9-3.135-2.7-3.135h-2.46V877h1.53zm.87-5.91h-.87v-3.33h.796c.53 0 .89.14 1.08.42.09.15.15.328.18.533.03.205.045.442.045.712 0 .27-.016.508-.046.713-.03.204-.085.377-.165.517a.877.877 0 01-.375.322c-.16.076-.375.113-.644.113zm9.95 5.91v-1.53h-3.03v-9.15h-1.53V877h4.56zm6.95 0v-1.53h-3.03v-3.135h2.64v-1.44h-2.64v-3.135h3.03v-1.44h-4.56V877h4.56zm4.7.09c.49 0 .906-.08 1.245-.24.34-.16.615-.38.826-.66.2-.27.344-.598.435-.983.09-.385.135-.802.135-1.252 0-.39-.02-.738-.06-1.043a2.84 2.84 0 00-.226-.817 1.978 1.978 0 00-.495-.608 2.9 2.9 0 00-.825-.457l-1.17-.465c-.2-.08-.357-.16-.472-.24a.834.834 0 01-.262-.285.997.997 0 01-.113-.375 5.072 5.072 0 01-.023-.525c0-.18.016-.352.046-.518.03-.164.084-.312.165-.442.08-.12.185-.22.315-.3.13-.08.3-.12.51-.12.39 0 .667.128.832.383.165.255.248.557.248.907v.345h1.53v-.75c0-.62-.23-1.17-.69-1.65a2.685 2.685 0 00-.818-.555 2.538 2.538 0 00-1.043-.21c-.45 0-.837.077-1.162.232a2.269 2.269 0 00-.803.623c-.22.26-.385.57-.494.93-.11.36-.166.74-.166 1.14 0 .67.113 1.228.338 1.673.225.445.668.802 1.328 1.072l1.094.45c.19.08.343.155.458.225.115.07.208.16.278.27.06.11.1.255.12.435a8.57 8.57 0 01.007 1.342 1.184 1.184 0 01-.142.503.808.808 0 01-.338.322c-.145.076-.347.113-.608.113-.39 0-.667-.112-.832-.337a1.25 1.25 0 01-.248-.758v-.48h-1.53v.57c0 .36.068.692.203.998.135.304.317.572.548.802.23.23.505.41.825.54.32.13.665.195 1.034.195zm9.74-.09v-1.53h-3.03v-3.135h2.64v-1.44h-2.64v-3.135h3.03v-1.44h-4.56V877h4.56zm3.86 0v-6.42h.03l2.34 6.42h1.44v-10.68h-1.53v6.435h-.03l-2.31-6.435h-1.47V877h1.53z" fill="#FFF" fill-rule="nonzero"/>
<path fill="#006F38" d="M121 624h691v48H121z"/>
<path d="M430.858 653l1.154-6.93h.03l1.17 6.93h1.44l1.59-10.68h-1.62l-.735 6.945h-.03l-1.245-6.945h-1.17l-1.2 6.78h-.03l-.764-6.78h-1.62l1.59 10.68h1.44zm12.305 0v-1.53h-3.03v-3.135h2.64v-1.44h-2.64v-3.135h3.03v-1.44h-4.56V653h4.56zm3.964 0v-10.68h-1.53V653h1.53zm5.42 0v-9.24h1.77v-1.44h-5.07v1.44h1.77V653h1.53zm8.405 0v-1.53h-3.03v-3.135h2.64v-1.44h-2.64v-3.135h3.03v-1.44h-4.56V653h4.56zm3.92 0v-4.56h.916l1.424 4.56h1.62l-1.65-4.875c.49-.27.833-.625 1.028-1.065.195-.44.293-.975.293-1.605 0-2.09-.9-3.135-2.7-3.135h-2.46V653h1.53zm.87-5.91h-.87v-3.33h.796c.53 0 .89.14 1.08.42.09.15.15.328.18.533.03.205.045.442.045.712 0 .27-.016.508-.046.713-.03.204-.085.377-.165.517a.877.877 0 01-.375.322c-.16.076-.375.113-.644.113zm9.95 5.91v-1.53h-3.03v-9.15h-1.53V653h4.56zm6.95 0v-1.53h-3.03v-3.135h2.64v-1.44h-2.64v-3.135h3.03v-1.44h-4.56V653h4.56zm4.7.09c.49 0 .906-.08 1.245-.24.34-.16.615-.38.826-.66.2-.27.344-.598.435-.983.09-.385.135-.802.135-1.252 0-.39-.02-.738-.06-1.043a2.84 2.84 0 00-.226-.817 1.978 1.978 0 00-.495-.608 2.9 2.9 0 00-.825-.457l-1.17-.465c-.2-.08-.357-.16-.472-.24a.834.834 0 01-.262-.285.997.997 0 01-.113-.375 5.072 5.072 0 01-.023-.525c0-.18.016-.352.046-.518.03-.164.084-.312.165-.442.08-.12.185-.22.315-.3.13-.08.3-.12.51-.12.39 0 .667.128.832.383.165.255.248.557.248.907v.345h1.53v-.75c0-.62-.23-1.17-.69-1.65a2.685 2.685 0 00-.818-.555 2.538 2.538 0 00-1.043-.21c-.45 0-.837.077-1.162.232a2.269 2.269 0 00-.803.623c-.22.26-.385.57-.494.93-.11.36-.166.74-.166 1.14 0 .67.113 1.228.338 1.673.225.445.668.802 1.328 1.072l1.094.45c.19.08.343.155.458.225.115.07.208.16.278.27.06.11.1.255.12.435a8.57 8.57 0 01.007 1.342 1.184 1.184 0 01-.142.503.808.808 0 01-.338.322c-.145.076-.347.113-.608.113-.39 0-.667-.112-.832-.337a1.25 1.25 0 01-.248-.758v-.48h-1.53v.57c0 .36.068.692.203.998.135.304.317.572.548.802.23.23.505.41.825.54.32.13.665.195 1.034.195zm9.74-.09v-1.53h-3.03v-3.135h2.64v-1.44h-2.64v-3.135h3.03v-1.44h-4.56V653h4.56zm3.86 0v-6.42h.03l2.34 6.42h1.44v-10.68h-1.53v6.435h-.03l-2.31-6.435h-1.47V653h1.53z" fill="#FFF" fill-rule="nonzero"/>
<path fill="#970000" d="M121 896h691v48H121z"/>
<path d="M430.858 925l1.154-6.93h.03l1.17 6.93h1.44l1.59-10.68h-1.62l-.735 6.945h-.03l-1.245-6.945h-1.17l-1.2 6.78h-.03l-.764-6.78h-1.62l1.59 10.68h1.44zm12.305 0v-1.53h-3.03v-3.135h2.64v-1.44h-2.64v-3.135h3.03v-1.44h-4.56V925h4.56zm3.964 0v-10.68h-1.53V925h1.53zm5.42 0v-9.24h1.77v-1.44h-5.07v1.44h1.77V925h1.53zm8.405 0v-1.53h-3.03v-3.135h2.64v-1.44h-2.64v-3.135h3.03v-1.44h-4.56V925h4.56zm3.92 0v-4.56h.916l1.424 4.56h1.62l-1.65-4.875c.49-.27.833-.625 1.028-1.065.195-.44.293-.975.293-1.605 0-2.09-.9-3.135-2.7-3.135h-2.46V925h1.53zm.87-5.91h-.87v-3.33h.796c.53 0 .89.14 1.08.42.09.15.15.328.18.533.03.205.045.442.045.712 0 .27-.016.508-.046.713-.03.204-.085.377-.165.517a.877.877 0 01-.375.322c-.16.076-.375.113-.644.113zm9.95 5.91v-1.53h-3.03v-9.15h-1.53V925h4.56zm6.95 0v-1.53h-3.03v-3.135h2.64v-1.44h-2.64v-3.135h3.03v-1.44h-4.56V925h4.56zm4.7.09c.49 0 .906-.08 1.245-.24.34-.16.615-.38.826-.66.2-.27.344-.598.435-.983.09-.385.135-.802.135-1.252 0-.39-.02-.738-.06-1.043a2.84 2.84 0 00-.226-.817 1.978 1.978 0 00-.495-.608 2.9 2.9 0 00-.825-.457l-1.17-.465c-.2-.08-.357-.16-.472-.24a.834.834 0 01-.262-.285.997.997 0 01-.113-.375 5.072 5.072 0 01-.023-.525c0-.18.016-.352.046-.518.03-.164.084-.312.165-.442.08-.12.185-.22.315-.3.13-.08.3-.12.51-.12.39 0 .667.128.832.383.165.255.248.557.248.907v.345h1.53v-.75c0-.62-.23-1.17-.69-1.65a2.685 2.685 0 00-.818-.555 2.538 2.538 0 00-1.043-.21c-.45 0-.837.077-1.162.232a2.269 2.269 0 00-.803.623c-.22.26-.385.57-.494.93-.11.36-.166.74-.166 1.14 0 .67.113 1.228.338 1.673.225.445.668.802 1.328 1.072l1.094.45c.19.08.343.155.458.225.115.07.208.16.278.27.06.11.1.255.12.435a8.57 8.57 0 01.007 1.342 1.184 1.184 0 01-.142.503.808.808 0 01-.338.322c-.145.076-.347.113-.608.113-.39 0-.667-.112-.832-.337a1.25 1.25 0 01-.248-.758v-.48h-1.53v.57c0 .36.068.692.203.998.135.304.317.572.548.802.23.23.505.41.825.54.32.13.665.195 1.034.195zm9.74-.09v-1.53h-3.03v-3.135h2.64v-1.44h-2.64v-3.135h3.03v-1.44h-4.56V925h4.56zm3.86 0v-6.42h.03l2.34 6.42h1.44v-10.68h-1.53v6.435h-.03l-2.31-6.435h-1.47V925h1.53z" fill="#FFF" fill-rule="nonzero"/>
<path fill="#3F3F3F" d="M121 760h691v48H121z"/>
<path d="M430.858 789l1.154-6.93h.03l1.17 6.93h1.44l1.59-10.68h-1.62l-.735 6.945h-.03l-1.245-6.945h-1.17l-1.2 6.78h-.03l-.764-6.78h-1.62l1.59 10.68h1.44zm12.305 0v-1.53h-3.03v-3.135h2.64v-1.44h-2.64v-3.135h3.03v-1.44h-4.56V789h4.56zm3.964 0v-10.68h-1.53V789h1.53zm5.42 0v-9.24h1.77v-1.44h-5.07v1.44h1.77V789h1.53zm8.405 0v-1.53h-3.03v-3.135h2.64v-1.44h-2.64v-3.135h3.03v-1.44h-4.56V789h4.56zm3.92 0v-4.56h.916l1.424 4.56h1.62l-1.65-4.875c.49-.27.833-.625 1.028-1.065.195-.44.293-.975.293-1.605 0-2.09-.9-3.135-2.7-3.135h-2.46V789h1.53zm.87-5.91h-.87v-3.33h.796c.53 0 .89.14 1.08.42.09.15.15.328.18.533.03.205.045.442.045.712 0 .27-.016.508-.046.713-.03.204-.085.377-.165.517a.877.877 0 01-.375.322c-.16.076-.375.113-.644.113zm9.95 5.91v-1.53h-3.03v-9.15h-1.53V789h4.56zm6.95 0v-1.53h-3.03v-3.135h2.64v-1.44h-2.64v-3.135h3.03v-1.44h-4.56V789h4.56zm4.7.09c.49 0 .906-.08 1.245-.24.34-.16.615-.38.826-.66.2-.27.344-.598.435-.983.09-.385.135-.802.135-1.252 0-.39-.02-.738-.06-1.043a2.84 2.84 0 00-.226-.817 1.978 1.978 0 00-.495-.608 2.9 2.9 0 00-.825-.457l-1.17-.465c-.2-.08-.357-.16-.472-.24a.834.834 0 01-.262-.285.997.997 0 01-.113-.375 5.072 5.072 0 01-.023-.525c0-.18.016-.352.046-.518.03-.164.084-.312.165-.442.08-.12.185-.22.315-.3.13-.08.3-.12.51-.12.39 0 .667.128.832.383.165.255.248.557.248.907v.345h1.53v-.75c0-.62-.23-1.17-.69-1.65a2.685 2.685 0 00-.818-.555 2.538 2.538 0 00-1.043-.21c-.45 0-.837.077-1.162.232a2.269 2.269 0 00-.803.623c-.22.26-.385.57-.494.93-.11.36-.166.74-.166 1.14 0 .67.113 1.228.338 1.673.225.445.668.802 1.328 1.072l1.094.45c.19.08.343.155.458.225.115.07.208.16.278.27.06.11.1.255.12.435a8.57 8.57 0 01.007 1.342 1.184 1.184 0 01-.142.503.808.808 0 01-.338.322c-.145.076-.347.113-.608.113-.39 0-.667-.112-.832-.337a1.25 1.25 0 01-.248-.758v-.48h-1.53v.57c0 .36.068.692.203.998.135.304.317.572.548.802.23.23.505.41.825.54.32.13.665.195 1.034.195zm9.74-.09v-1.53h-3.03v-3.135h2.64v-1.44h-2.64v-3.135h3.03v-1.44h-4.56V789h4.56zm3.86 0v-6.42h.03l2.34 6.42h1.44v-10.68h-1.53v6.435h-.03l-2.31-6.435h-1.47V789h1.53z" fill="#FFF" fill-rule="nonzero"/>
<path fill="#ECECEC" d="M121 984h691v48H121z"/>
<path d="M429.408 1013v-4.56h.914l1.425 4.56h1.62l-1.65-4.875c.49-.27.833-.625 1.028-1.065.195-.44.293-.975.293-1.605 0-2.09-.9-3.135-2.7-3.135h-2.46V1013h1.53zm.87-5.91h-.87v-3.33h.794c.53 0 .89.14 1.08.42.09.15.15.328.18.533.03.205.046.442.046.712 0 .27-.015.508-.046.713-.03.204-.084.377-.164.517a.877.877 0 01-.375.322c-.16.076-.375.113-.646.113zm9.95 5.91v-1.53h-3.03v-3.135h2.64v-1.44h-2.64v-3.135h3.03v-1.44h-4.56V1013h4.56zm4.7.09c.49 0 .904-.08 1.245-.24.34-.16.615-.38.825-.66.2-.27.344-.598.435-.983.09-.385.135-.802.135-1.252 0-.39-.02-.738-.06-1.043a2.84 2.84 0 00-.225-.817 1.978 1.978 0 00-.495-.608 2.9 2.9 0 00-.826-.457l-1.17-.465c-.2-.08-.357-.16-.472-.24a.834.834 0 01-.262-.285.997.997 0 01-.113-.375 5.072 5.072 0 01-.022-.525c0-.18.014-.352.044-.518.03-.164.086-.312.166-.442.08-.12.185-.22.315-.3.13-.08.3-.12.51-.12.39 0 .667.128.832.383.165.255.248.557.248.907v.345h1.53v-.75c0-.62-.23-1.17-.69-1.65a2.685 2.685 0 00-.818-.555 2.538 2.538 0 00-1.043-.21c-.45 0-.837.077-1.162.232a2.269 2.269 0 00-.803.623c-.22.26-.385.57-.495.93-.11.36-.165.74-.165 1.14 0 .67.113 1.228.338 1.673.225.445.667.802 1.327 1.072l1.095.45c.19.08.343.155.458.225.115.07.207.16.277.27.06.11.1.255.12.435a8.57 8.57 0 01.007 1.342 1.184 1.184 0 01-.141.503.808.808 0 01-.338.322c-.145.076-.348.113-.608.113-.39 0-.667-.112-.832-.337a1.25 1.25 0 01-.248-.758v-.48h-1.53v.57c0 .36.068.692.203.998.135.304.317.572.548.802.23.23.505.41.825.54.32.13.665.195 1.035.195zm9.74-.09v-1.53h-3.03v-3.135h2.64v-1.44h-2.64v-3.135h3.03v-1.44h-4.56V1013h4.56zm3.92 0v-4.56h.914l1.425 4.56h1.62l-1.65-4.875c.49-.27.833-.625 1.028-1.065.195-.44.292-.975.292-1.605 0-2.09-.9-3.135-2.7-3.135h-2.46V1013h1.53zm.87-5.91h-.87v-3.33h.794c.53 0 .89.14 1.08.42.09.15.15.328.18.533.03.205.046.442.046.712 0 .27-.015.508-.046.713-.03.204-.084.377-.164.517a.877.877 0 01-.375.322c-.16.076-.375.113-.646.113zm8.39 5.91l2.19-10.68h-1.62l-1.23 7.455h-.03l-1.216-7.455h-1.62l2.175 10.68h1.35zm6.08 0v-10.68h-1.53V1013h1.53zm7.445 0v-1.53h-3.03v-3.135h2.64v-1.44h-2.64v-3.135h3.03v-1.44h-4.56V1013h4.56zm3.92 0v-4.56h.914l1.425 4.56h1.62l-1.65-4.875c.49-.27.833-.625 1.028-1.065.195-.44.293-.975.293-1.605 0-2.09-.9-3.135-2.7-3.135h-2.46V1013h1.53zm.87-5.91h-.87v-3.33h.794c.53 0 .89.14 1.08.42.09.15.15.328.18.533.03.205.046.442.046.712 0 .27-.015.508-.045.713-.03.204-.086.377-.166.517a.877.877 0 01-.375.322c-.16.076-.375.113-.644.113zm9.95 5.91v-1.53h-3.03v-3.135h2.64v-1.44h-2.64v-3.135h3.03v-1.44h-4.56V1013h4.56zm3.86 0v-6.42h.03l2.34 6.42h1.44v-10.68h-1.53v6.435h-.03l-2.31-6.435h-1.47V1013h1.53z" fill="#979797" fill-rule="nonzero"/>
<path d="M813 1160v70H121v-70h692zm-1 1H122v68h690v-68z" fill="#D3D3CC" fill-rule="nonzero"/>
<path d="M312.621 1202v-12.936h2.478v-2.016h-7.098v2.016h2.478V1202h2.142zm5.413 0l.63-3.213h2.919l.63 3.213h2.142l-3.34-14.952h-1.784L315.89 1202h2.143zm3.15-5.229h-2.142l1.05-5.418h.042l1.05 5.418zm9.109 5.229c1.4 0 2.418-.35 3.055-1.05.637-.7.956-1.708.956-3.024v-.84c0-.798-.12-1.428-.357-1.89-.238-.462-.61-.812-1.113-1.05.49-.28.854-.616 1.092-1.008.126-.21.22-.455.283-.735.063-.28.095-.623.095-1.029v-.546c0-.49-.067-.962-.2-1.418a3.137 3.137 0 00-.661-1.207 3.308 3.308 0 00-1.187-.84c-.483-.21-1.067-.315-1.753-.315h-3.13V1202h2.92zm.189-8.82h-.966v-4.116h.882c.714 0 1.207.168 1.48.504.273.336.41.84.41 1.512 0 .686-.123 1.207-.368 1.565-.245.357-.724.535-1.438.535zm-.042 6.678h-.924v-4.788h.945c.392 0 .707.046.945.137.238.09.427.234.567.43.126.196.21.434.252.714.042.28.063.609.063.987 0 .364-.014.7-.042 1.008a1.976 1.976 0 01-.231.798 1.304 1.304 0 01-.557.525c-.245.126-.584.189-1.018.189zm19.813 2.142v-2.142h-3.864l3.15-6.069c.168-.322.301-.595.4-.819a3.1 3.1 0 00.21-.672c.041-.224.07-.458.083-.704.014-.245.021-.549.021-.913 0-.504-.06-.98-.178-1.428a3.616 3.616 0 00-.557-1.197 2.87 2.87 0 00-.997-.83c-.4-.203-.879-.304-1.439-.304a3.145 3.145 0 00-2.268.966 3.251 3.251 0 00-.693 1.029 3.165 3.165 0 00-.252 1.26v1.176h2.142v-1.218c0-.35.095-.616.284-.798.189-.182.444-.273.766-.273.266 0 .47.053.61.158.14.104.244.234.314.388s.109.333.116.536c.007.203.01.395.01.577 0 .406-.014.745-.042 1.019-.028.273-.14.591-.336.955l-3.864 7.287V1202h6.384z" fill="#979797" fill-rule="nonzero"/>
<path d="M452.42 1202v-12.936h2.478v-2.016H447.8v2.016h2.478V1202h2.142zm5.413 0l.63-3.213h2.92l.63 3.213h2.141l-3.339-14.952h-1.785L455.691 1202h2.142zm3.15-5.229h-2.142l1.05-5.418h.042l1.05 5.418zm8.332 5.229v-5.838h1.092c.798 0 1.442-.137 1.932-.41.49-.273.882-.654 1.176-1.144.252-.406.416-.84.493-1.302.077-.462.116-1.029.116-1.701 0-.896-.07-1.607-.21-2.131a3.203 3.203 0 00-.756-1.376 2.981 2.981 0 00-1.218-.819c-.448-.154-.966-.231-1.554-.231h-3.213V1202h2.142zm1.029-7.854h-1.029v-5.082h1.113c.42 0 .742.063.966.189.224.126.392.308.504.546.112.238.175.514.189.83.014.315.021.647.021.997 0 .378-.01.721-.032 1.029a1.92 1.92 0 01-.199.777 1.19 1.19 0 01-.525.525c-.238.126-.574.189-1.008.189zm16.096 7.98c.672 0 1.215-.13 1.628-.389a3.393 3.393 0 001.291-1.459 2.49 2.49 0 00.168-.567c.042-.21.074-.476.095-.798.021-.322.031-.728.031-1.218 0-.532-.007-.97-.02-1.313a3.254 3.254 0 00-.148-.892 1.73 1.73 0 00-.388-.63c-.175-.182-.43-.378-.767-.588.308-.182.55-.35.725-.504.175-.154.311-.343.41-.567.083-.21.136-.476.157-.798.021-.322.031-.742.031-1.26 0-.91-.063-1.596-.189-2.058a2.453 2.453 0 00-.262-.609 4.588 4.588 0 00-.368-.504c-.196-.238-.486-.473-.871-.704-.385-.23-.872-.346-1.46-.346-.448 0-.868.084-1.26.252a3.444 3.444 0 00-1.029.672c-.294.28-.525.616-.693 1.008a3.113 3.113 0 00-.252 1.239v1.239h2.142v-1.218c0-.224.081-.455.242-.693.161-.238.43-.357.808-.357.322 0 .578.098.767.294.189.196.283.448.283.756v1.932c0 .56-.122.917-.367 1.071-.245.154-.69.231-1.334.231v1.89c.35 0 .634.014.851.042a.934.934 0 01.514.21c.224.182.336.567.336 1.155v2.142c0 .364-.094.654-.283.871-.189.218-.445.326-.767.326s-.577-.108-.766-.325c-.189-.218-.284-.494-.284-.83v-1.113h-2.142v1.218c0 .588.102 1.085.305 1.491.203.406.458.735.766.987a2.92 2.92 0 001.03.546c.377.112.734.168 1.07.168z" fill="#4A4A4A" fill-rule="nonzero"/>
<path d="M589.82 1202v-12.936h2.478v-2.016H585.2v2.016h2.478V1202h2.142zm5.413 0l.63-3.213h2.919l.63 3.213h2.142l-3.34-14.952h-1.784L593.09 1202h2.143zm3.15-5.229h-2.142l1.05-5.418h.042l1.05 5.418zm9.109 5.229c1.4 0 2.418-.35 3.055-1.05.637-.7.956-1.708.956-3.024v-.84c0-.798-.12-1.428-.357-1.89-.238-.462-.61-.812-1.113-1.05.49-.28.854-.616 1.092-1.008.126-.21.22-.455.283-.735.063-.28.095-.623.095-1.029v-.546c0-.49-.067-.962-.2-1.418a3.137 3.137 0 00-.661-1.207 3.308 3.308 0 00-1.187-.84c-.483-.21-1.067-.315-1.753-.315h-3.13V1202h2.92zm.189-8.82h-.966v-4.116h.882c.714 0 1.207.168 1.48.504.273.336.41.84.41 1.512 0 .686-.123 1.207-.368 1.565-.245.357-.724.535-1.438.535zm-.042 6.678h-.924v-4.788h.945c.392 0 .707.046.945.137.238.09.427.234.567.43.126.196.21.434.252.714.042.28.063.609.063.987 0 .364-.014.7-.042 1.008a1.976 1.976 0 01-.231.798 1.304 1.304 0 01-.557.525c-.245.126-.584.189-1.018.189zm19.31 2.142v-2.226h1.028v-2.016h-1.029v-4.263h-2.142v4.263h-2.12l3.212-10.71h-2.268l-3.087 10.71v2.016h4.263V1202h2.142zM729.02 1202v-12.936h2.478v-2.016H724.4v2.016h2.478V1202h2.142zm5.413 0l.63-3.213h2.919l.63 3.213h2.142l-3.34-14.952h-1.784L732.29 1202h2.143zm3.15-5.229h-2.142l1.05-5.418h.042l1.05 5.418zm9.108 5.229c1.4 0 2.419-.35 3.056-1.05.637-.7.955-1.708.955-3.024v-.84c0-.798-.119-1.428-.357-1.89-.238-.462-.609-.812-1.113-1.05.49-.28.854-.616 1.092-1.008.126-.21.22-.455.284-.735.063-.28.094-.623.094-1.029v-.546c0-.49-.066-.962-.2-1.418a3.137 3.137 0 00-.66-1.207 3.308 3.308 0 00-1.187-.84c-.483-.21-1.068-.315-1.754-.315h-3.129V1202h2.92zm.19-8.82h-.967v-4.116h.882c.714 0 1.208.168 1.48.504.274.336.41.84.41 1.512 0 .686-.122 1.207-.367 1.565-.245.357-.725.535-1.439.535zm-.043 6.678h-.924v-4.788h.945c.392 0 .707.046.945.137.238.09.427.234.567.43.126.196.21.434.252.714.042.28.063.609.063.987 0 .364-.014.7-.042 1.008a1.976 1.976 0 01-.23.798 1.304 1.304 0 01-.557.525c-.245.126-.585.189-1.019.189zm16.622 2.268c.42 0 .822-.073 1.207-.22.385-.148.725-.361 1.019-.641.294-.28.528-.616.703-1.008.175-.392.263-.84.263-1.344v-3.864c0-.882-.228-1.543-.683-1.985-.455-.44-1.046-.661-1.774-.661a2.57 2.57 0 00-1.03.2 2.4 2.4 0 00-.755.493v-4.032h4.242v-2.016h-6.132v8.064h1.89a9.26 9.26 0 01.126-.231.872.872 0 01.189-.273 1.2 1.2 0 01.315-.22c.126-.063.28-.095.462-.095.294 0 .535.105.724.315.19.21.284.462.284.756v3.507c0 .35-.088.623-.263.819-.175.196-.423.294-.745.294s-.585-.101-.788-.304c-.203-.204-.304-.487-.304-.851v-.546h-2.142v.63c0 .504.087.952.262 1.344.175.392.41.728.704 1.008s.633.493 1.018.64c.385.148.788.221 1.208.221z" fill="#979797" fill-rule="nonzero"/>
<path d="M260.201 1160v70H121v-70h139.201zm-1 1H122v68h137.201v-68z" fill="#4A4A4A" fill-rule="nonzero"/>
<path d="M173.144 1202v-12.936h2.478v-2.016h-7.098v2.016h2.478V1202h2.142zm6.444 0l.63-3.213h2.919l.63 3.213h2.142l-3.34-14.952h-1.784l-3.34 14.952h2.143zm3.15-5.229h-2.142l1.05-5.418h.042l1.05 5.418zm10.14 5.229c1.4 0 2.418-.35 3.055-1.05.637-.7.956-1.708.956-3.024v-.84c0-.798-.12-1.428-.357-1.89-.238-.462-.61-.812-1.113-1.05.49-.28.854-.616 1.092-1.008.126-.21.22-.455.283-.735.063-.28.095-.623.095-1.029v-.546c0-.49-.067-.962-.2-1.418a3.137 3.137 0 00-.661-1.207 3.308 3.308 0 00-1.187-.84c-.483-.21-1.067-.315-1.753-.315h-3.13V1202h2.92zm.189-8.82h-.966v-4.116h.882c.714 0 1.207.168 1.48.504.273.336.41.84.41 1.512 0 .686-.123 1.207-.368 1.565-.245.357-.724.535-1.438.535zm-.042 6.678h-.924v-4.788h.945c.392 0 .707.046.945.137.238.09.427.234.567.43.126.196.21.434.252.714.042.28.063.609.063.987 0 .364-.014.7-.042 1.008a1.976 1.976 0 01-.231.798 1.304 1.304 0 01-.557.525c-.245.126-.584.189-1.018.189zM213.2 1202v-14.952h-2.142l-2.142 1.575v2.268l2.142-1.575V1202h2.142z" fill="#4A4A4A" fill-rule="nonzero"/>
<path d="M123.71 1257l1.11-2.82h4.845l1.11 2.82h1.5l-4.26-10.5h-1.485l-4.26 10.5h1.44zm5.475-4.035H125.3l1.95-4.905 1.935 4.905zm8.285 4.185c1.92 0 3.255-1.02 3.645-2.88l-1.32-.225c-.27 1.32-1.11 1.965-2.325 1.965-1.68 0-2.55-1.23-2.55-3.075 0-1.89.855-3.105 2.535-3.105 1.29 0 2.07.72 2.28 1.965l1.335-.225c-.345-1.83-1.59-2.88-3.615-2.88-2.52 0-3.96 1.695-3.96 4.245 0 2.535 1.44 4.215 3.975 4.215zm8.465 0c.435 0 .885-.06 1.305-.15l.045-1.08c-.315.06-.66.105-.945.105-1.14 0-1.44-.555-1.44-1.575v-4.515h2.265v-1.095H144.9v-2.07h-1.08c-.058 1.924-.116 2.062-.765 2.07h-.885v1.095h1.335v4.755c0 1.71.81 2.46 2.43 2.46zm4.805-9.57v-1.5h-1.5v1.5h1.5zm-.06 9.42v-8.16h-1.38v8.16h1.38zm6.2 0l3.315-8.16h-1.35l-2.46 6.345-2.4-6.345h-1.47l3.285 8.16h1.08zm8.57.15c2.1 0 3.3-.945 3.735-2.535l-1.275-.225c-.315 1.065-1.125 1.665-2.46 1.665-1.725 0-2.58-1.11-2.7-2.745h6.42c.03-.18.06-.39.06-.6 0-2.355-1.485-4.02-3.84-4.02-2.565 0-4.005 1.77-4.005 4.215 0 2.505 1.455 4.245 4.065 4.245zm2.445-4.935h-5.115c.195-1.47 1.065-2.43 2.625-2.43 1.485 0 2.385 1.005 2.49 2.43zM398.135 1257v-4.83h6v4.83h1.47v-10.5h-1.47v4.455h-6v-4.455h-1.47v10.5h1.47zm14.21.15c2.55 0 3.99-1.695 3.99-4.23 0-2.52-1.44-4.23-3.99-4.23-2.535 0-3.975 1.71-3.975 4.23 0 2.535 1.44 4.23 3.975 4.23zm0-1.14c-1.695 0-2.55-1.215-2.55-3.09 0-1.875.84-3.09 2.55-3.09 1.725 0 2.565 1.2 2.565 3.09 0 1.875-.84 3.09-2.565 3.09zm9.545.99l3.315-8.16h-1.35l-2.46 6.345-2.4-6.345h-1.47l3.285 8.16h1.08zm8.57.15c2.1 0 3.3-.945 3.735-2.535l-1.275-.225c-.315 1.065-1.125 1.665-2.46 1.665-1.725 0-2.58-1.11-2.7-2.745h6.42c.03-.18.06-.39.06-.6 0-2.355-1.485-4.02-3.84-4.02-2.565 0-4.005 1.77-4.005 4.215 0 2.505 1.455 4.245 4.065 4.245zm2.445-4.935h-5.115c.195-1.47 1.065-2.43 2.625-2.43 1.485 0 2.385 1.005 2.49 2.43zm5.165 4.785v-3.72c0-1.965 1.095-3.105 2.64-3.105.15 0 .3.015.39.045l.045-1.515c-.03-.015-.105-.015-.165-.015-1.2 0-2.325.78-2.955 1.98l-.12-1.83h-1.215v8.16h1.38zM448 1376v48H121v-48h327zm-1 1H122v46h325v-46z" fill="#D7D7D7" fill-rule="nonzero"/>
<path d="M813 1376v347H487v-347h326zm-1 1H488v345h324v-345z" fill="#4A4A4A" fill-rule="nonzero"/>
<path fill="#008E48" d="M504 1660h290v44H504z"/>
<path fill="#D7D7D7" fill-rule="nonzero" d="M488.498 1642.5l.004-1 323 1-.004 1zM488.498 1423.5l.004-1 323 1-.004 1z"/>
<path d="M620.28 1687.09c.49 0 .905-.08 1.245-.24.34-.16.615-.38.825-.66.2-.27.345-.598.435-.983.09-.385.135-.802.135-1.252 0-.39-.02-.737-.06-1.043a2.84 2.84 0 00-.225-.817 1.978 1.978 0 00-.495-.608 2.9 2.9 0 00-.825-.457l-1.17-.465c-.2-.08-.357-.16-.472-.24a.834.834 0 01-.263-.285.997.997 0 01-.112-.375 5.072 5.072 0 01-.023-.525c0-.18.015-.353.045-.518.03-.165.085-.312.165-.442.08-.12.185-.22.315-.3.13-.08.3-.12.51-.12.39 0 .668.128.833.382.164.255.247.558.247.908v.345h1.53v-.75c0-.62-.23-1.17-.69-1.65a2.685 2.685 0 00-.817-.555 2.538 2.538 0 00-1.043-.21c-.45 0-.837.077-1.163.233a2.269 2.269 0 00-.802.622c-.22.26-.385.57-.495.93-.11.36-.165.74-.165 1.14 0 .67.112 1.227.337 1.673.226.445.668.802 1.328 1.072l1.095.45c.19.08.342.155.457.225.115.07.208.16.278.27.06.11.1.255.12.435a8.57 8.57 0 01.007 1.342 1.184 1.184 0 01-.142.503.808.808 0 01-.337.322c-.146.076-.348.113-.608.113-.39 0-.668-.112-.832-.337a1.25 1.25 0 01-.248-.758v-.48h-1.53v.57c0 .36.067.692.202.997.136.306.318.573.548.803.23.23.505.41.825.54.32.13.665.195 1.035.195zm6.71-.09v-4.17h.78c.57 0 1.03-.097 1.38-.293.35-.195.63-.467.84-.817.18-.29.298-.6.352-.93.056-.33.083-.735.083-1.215 0-.64-.05-1.148-.15-1.523-.1-.374-.28-.702-.54-.982a2.13 2.13 0 00-.87-.585c-.32-.11-.69-.165-1.11-.165h-2.295V1687h1.53zm.735-5.61h-.735v-3.63h.795c.3 0 .53.045.69.135.16.09.28.22.36.39.08.17.125.367.135.592.01.226.015.463.015.713 0 .27-.008.515-.023.735a1.37 1.37 0 01-.142.555.85.85 0 01-.375.375c-.17.09-.41.135-.72.135zm9.8 5.61v-1.53h-3.03v-3.135h2.64v-1.44h-2.64v-3.135h3.03v-1.44h-4.56V1687h4.56zm3.965 0v-10.68h-1.53V1687h1.53zm5.315.09c.34 0 .658-.067.953-.202.294-.135.552-.318.772-.548.22-.23.393-.492.518-.787.125-.296.187-.608.187-.938v-.66h-1.53v.525c0 .21-.03.385-.09.525a.915.915 0 01-.225.33.962.962 0 01-.322.172 1.111 1.111 0 01-.323.053c-.35 0-.592-.105-.727-.315-.135-.21-.203-.47-.203-.78v-5.46c0-.36.063-.658.188-.893s.377-.352.757-.352c.29 0 .52.11.69.33.17.22.255.48.255.78v.51h1.53v-.6c0-.37-.063-.712-.188-1.027a2.505 2.505 0 00-.517-.818c-.45-.47-1.035-.705-1.755-.705-.37 0-.707.063-1.012.188a2.295 2.295 0 00-1.298 1.297c-.12.3-.18.625-.18.975v5.88c0 .49.077.893.233 1.207.154.315.352.573.592.773.24.2.51.34.81.42.3.08.595.12.885.12zm6.605-.09v-4.755h1.89V1687h1.53v-10.68h-1.53v4.575h-1.89v-4.575h-1.53V1687h1.53zm10.82 0v-1.53h-3.03v-3.135h2.64v-1.44h-2.64v-3.135h3.03v-1.44h-4.56V1687h4.56zm3.92 0v-4.56h.915l1.425 4.56h1.62l-1.65-4.875c.49-.27.832-.625 1.027-1.065.196-.44.293-.975.293-1.605 0-2.09-.9-3.135-2.7-3.135h-2.46V1687h1.53zm.87-5.91h-.87v-3.33h.795c.53 0 .89.14 1.08.42.09.15.15.327.18.533.03.205.045.442.045.712 0 .27-.015.507-.045.713-.03.205-.085.377-.165.517a.877.877 0 01-.375.322c-.16.075-.375.113-.645.113zm6.86 5.91v-6.42h.03l2.34 6.42h1.44v-10.68h-1.53v6.435h-.03l-2.31-6.435h-1.47V1687h1.53z" fill="#FFF" fill-rule="nonzero"/>
<path d="M537.824 1452v-.958h-4.64l2.475-2.686c1.16-1.256 1.74-2.34 1.74-3.25 0-.749-.25-1.348-.75-1.8-.499-.45-1.178-.675-2.037-.675-.918 0-1.652.262-2.2.787-.548.525-.822 1.212-.822 2.063h1.175c0-.592.162-1.055.485-1.387.324-.332.778-.498 1.362-.498.486 0 .876.154 1.168.463.292.309.438.705.438 1.187 0 .36-.09.708-.27 1.044-.18.337-.507.774-.98 1.311l-3.2 3.555v.844h6.056zm4.29.127c.872 0 1.568-.286 2.086-.857.518-.571.778-1.333.778-2.285 0-.897-.24-1.63-.72-2.196-.481-.567-1.123-.851-1.927-.851-.843 0-1.507.28-1.994.838.085-.952.398-1.69.94-2.215.542-.525 1.27-.796 2.183-.813h.216v-.997h-.21c-1.434.022-2.514.482-3.24 1.381-.725.9-1.088 2.2-1.088 3.9v.451c0 1.071.275 1.946.825 2.625.55.68 1.267 1.019 2.152 1.019zm0-.971c-.511 0-.939-.233-1.281-.698-.343-.466-.515-1.08-.515-1.841v-.432c.132-.364.366-.666.705-.908a1.874 1.874 0 011.11-.361c.509 0 .916.195 1.223.587.307.391.46.904.46 1.539 0 .63-.151 1.14-.454 1.53-.303.39-.718.584-1.247.584zM537.824 1486v-.958h-4.64l2.475-2.686c1.16-1.256 1.74-2.34 1.74-3.25 0-.749-.25-1.348-.75-1.8-.499-.45-1.178-.675-2.037-.675-.918 0-1.652.262-2.2.787-.548.525-.822 1.212-.822 2.063h1.175c0-.592.162-1.055.485-1.387.324-.332.778-.498 1.362-.498.486 0 .876.154 1.168.463.292.309.438.705.438 1.187 0 .36-.09.708-.27 1.044-.18.337-.507.774-.98 1.311l-3.2 3.555v.844h6.056zm4.126.127c.88 0 1.59-.237 2.13-.711.539-.474.809-1.11.809-1.91 0-.504-.141-.955-.422-1.353a2.649 2.649 0 00-1.146-.907c.415-.204.744-.485.987-.845s.365-.77.365-1.231c0-.779-.25-1.397-.752-1.854-.502-.457-1.159-.685-1.971-.685-.817 0-1.475.228-1.974.685-.5.457-.75 1.075-.75 1.854 0 .457.12.865.356 1.225.237.36.56.641.971.844-.482.208-.86.512-1.133.914s-.41.853-.41 1.352c0 .796.268 1.432.804 1.908.535.476 1.247.714 2.136.714zm0-5.364c-.47 0-.846-.145-1.127-.435-.281-.29-.422-.67-.422-1.139 0-.49.143-.88.428-1.165.286-.285.66-.428 1.12-.428.45 0 .82.148 1.112.444.292.296.438.68.438 1.149 0 .47-.141.85-.423 1.14-.281.29-.657.434-1.126.434zm0 4.405c-.555 0-.987-.15-1.298-.45-.311-.3-.467-.713-.467-1.238s.16-.948.48-1.27c.319-.321.743-.482 1.272-.482s.957.163 1.285.489c.328.326.492.747.492 1.263 0 .52-.156.932-.47 1.235-.313.302-.744.453-1.294.453zM534.53 1520.127c.867 0 1.571-.243 2.113-.73s.813-1.145.813-1.974c0-.538-.139-.993-.416-1.365-.277-.372-.67-.639-1.178-.8a2.357 2.357 0 001.064-.844c.26-.377.39-.766.39-1.168 0-.82-.248-1.462-.743-1.923-.495-.462-1.178-.692-2.05-.692-.825 0-1.506.242-2.04.727-.536.484-.804 1.093-.804 1.825h1.175c0-.479.15-.863.453-1.152.303-.29.708-.435 1.216-.435 1.08 0 1.619.541 1.619 1.625 0 .482-.16.865-.476 1.149-.318.283-.754.43-1.308.438h-.882v.958h.882c.622.009 1.098.157 1.428.444.33.288.495.7.495 1.238 0 .555-.15.98-.45 1.276-.3.296-.735.444-1.302.444-.533 0-.958-.146-1.276-.438-.317-.292-.476-.68-.476-1.168h-1.18c0 .77.272 1.39.815 1.86.544.47 1.25.705 2.117.705zm7.426 0c.999 0 1.733-.334 2.203-1.003.47-.669.704-1.69.704-3.066v-1.523c-.012-1.33-.254-2.312-.723-2.949-.47-.637-1.202-.955-2.197-.955-1.003 0-1.739.33-2.209.99-.47.66-.704 1.67-.704 3.028v1.568c.017 1.299.262 2.275.736 2.93.474.653 1.204.98 2.19.98zm0-.959c-.588 0-1.027-.238-1.317-.714-.29-.476-.435-1.213-.435-2.212v-1.879c.009-.94.15-1.635.425-2.088.275-.453.713-.68 1.314-.68.606 0 1.048.228 1.327.683.28.455.419 1.18.419 2.174v1.923c-.013.965-.16 1.672-.441 2.12-.282.45-.712.673-1.292.673zM534.53 1553.127c.867 0 1.571-.243 2.113-.73s.813-1.145.813-1.974c0-.538-.139-.993-.416-1.365-.277-.372-.67-.639-1.178-.8a2.357 2.357 0 001.064-.844c.26-.377.39-.766.39-1.168 0-.82-.248-1.462-.743-1.923-.495-.462-1.178-.692-2.05-.692-.825 0-1.506.242-2.04.727-.536.484-.804 1.093-.804 1.825h1.175c0-.479.15-.863.453-1.152.303-.29.708-.435 1.216-.435 1.08 0 1.619.541 1.619 1.625 0 .482-.16.865-.476 1.149-.318.283-.754.43-1.308.438h-.882v.958h.882c.622.009 1.098.157 1.428.444.33.288.495.7.495 1.238 0 .555-.15.98-.45 1.276-.3.296-.735.444-1.302.444-.533 0-.958-.146-1.276-.438-.317-.292-.476-.68-.476-1.168h-1.18c0 .77.272 1.39.815 1.86.544.47 1.25.705 2.117.705zm10.594-.127v-.958h-4.64l2.475-2.686c1.16-1.256 1.74-2.34 1.74-3.25 0-.749-.25-1.348-.75-1.8-.5-.45-1.178-.675-2.037-.675-.919 0-1.652.262-2.2.787-.548.525-.822 1.212-.822 2.063h1.174c0-.592.162-1.055.486-1.387.324-.332.778-.498 1.362-.498.486 0 .876.154 1.168.463.292.309.438.705.438 1.187 0 .36-.09.708-.27 1.044-.18.337-.507.774-.98 1.311l-3.2 3.555v.844h6.056zM534.53 1587.127c.867 0 1.571-.243 2.113-.73s.813-1.145.813-1.974c0-.538-.139-.993-.416-1.365-.277-.372-.67-.639-1.178-.8a2.357 2.357 0 001.064-.844c.26-.377.39-.766.39-1.168 0-.82-.248-1.462-.743-1.923-.495-.462-1.178-.692-2.05-.692-.825 0-1.506.242-2.04.727-.536.484-.804 1.093-.804 1.825h1.175c0-.479.15-.863.453-1.152.303-.29.708-.435 1.216-.435 1.08 0 1.619.541 1.619 1.625 0 .482-.16.865-.476 1.149-.318.283-.754.43-1.308.438h-.882v.958h.882c.622.009 1.098.157 1.428.444.33.288.495.7.495 1.238 0 .555-.15.98-.45 1.276-.3.296-.735.444-1.302.444-.533 0-.958-.146-1.276-.438-.317-.292-.476-.68-.476-1.168h-1.18c0 .77.272 1.39.815 1.86.544.47 1.25.705 2.117.705zm9.495-.127v-2.146h1.283v-.958h-1.283v-6.138h-1.25l-4.139 6.405v.691h4.209V1587h1.18zm-1.18-3.104h-2.876l2.736-4.278.14-.254v4.532zM534.53 1621.127c.867 0 1.571-.243 2.113-.73s.813-1.145.813-1.974c0-.538-.139-.993-.416-1.365-.277-.372-.67-.639-1.178-.8a2.357 2.357 0 001.064-.844c.26-.377.39-.766.39-1.168 0-.82-.248-1.462-.743-1.923-.495-.462-1.178-.692-2.05-.692-.825 0-1.506.242-2.04.727-.536.484-.804 1.093-.804 1.825h1.175c0-.479.15-.863.453-1.152.303-.29.708-.435 1.216-.435 1.08 0 1.619.541 1.619 1.625 0 .482-.16.865-.476 1.149-.318.283-.754.43-1.308.438h-.882v.958h.882c.622.009 1.098.157 1.428.444.33.288.495.7.495 1.238 0 .555-.15.98-.45 1.276-.3.296-.735.444-1.302.444-.533 0-.958-.146-1.276-.438-.317-.292-.476-.68-.476-1.168h-1.18c0 .77.272 1.39.815 1.86.544.47 1.25.705 2.117.705zm7.585 0c.871 0 1.567-.286 2.085-.857s.778-1.333.778-2.285c0-.897-.24-1.63-.72-2.196-.481-.567-1.123-.851-1.927-.851-.843 0-1.507.28-1.994.838.085-.952.398-1.69.94-2.215.542-.525 1.27-.796 2.183-.813h.216v-.997h-.21c-1.434.022-2.514.482-3.24 1.381-.725.9-1.088 2.2-1.088 3.9v.451c0 1.071.275 1.946.825 2.625.55.68 1.267 1.019 2.152 1.019zm0-.971c-.512 0-.94-.233-1.282-.698-.343-.466-.515-1.08-.515-1.841v-.432c.132-.364.366-.666.705-.908a1.874 1.874 0 011.11-.361c.509 0 .916.195 1.223.587.307.391.46.904.46 1.539 0 .63-.151 1.14-.454 1.53-.303.39-.718.584-1.247.584zM522 1439v18h-17v-18h17zm-1 1h-15v16h15v-16z" fill="#4A4A4A" fill-rule="nonzero"/>
<path fill="#4A4A4A" fill-rule="nonzero" d="M518.73 1443.749l-6.45 7.884-4.054-4.335 1.46-1.366 2.493 2.666 5.004-6.116zM518.73 1511.749l-6.45 7.884-4.054-4.335 1.46-1.366 2.493 2.666 5.004-6.116z"/>
<path d="M522 1473v18h-17v-18h17zm-1 1h-15v16h15v-16z" fill="#D7D7D7" fill-rule="nonzero"/>
<path d="M522 1507v18h-17v-18h17zm-1 1h-15v16h15v-16z" fill="#4A4A4A" fill-rule="nonzero"/>
<path d="M522 1540v18h-17v-18h17zm-1 1h-15v16h15v-16zM522 1574v18h-17v-18h17zm-1 1h-15v16h15v-16zM522 1608v18h-17v-18h17zm-1 1h-15v16h15v-16z" fill="#D7D7D7" fill-rule="nonzero"/>
<path d="M506.805 1405c1 0 1.728-.25 2.183-.75.454-.5.682-1.22.682-2.16v-.6c0-.57-.085-1.02-.255-1.35a1.66 1.66 0 00-.795-.75c.35-.2.61-.44.78-.72.09-.15.158-.325.203-.525.044-.2.067-.445.067-.735v-.39c0-.35-.048-.688-.143-1.013a2.24 2.24 0 00-.472-.862c-.22-.25-.502-.45-.848-.6-.344-.15-.762-.225-1.252-.225h-2.235V1405h2.085zm.135-6.3h-.69v-2.94h.63c.51 0 .863.12 1.058.36.195.24.292.6.292 1.08 0 .49-.088.862-.263 1.118-.174.255-.517.382-1.027.382zm-.03 4.77h-.66v-3.42h.675c.28 0 .505.033.675.098.17.065.305.167.405.307.09.14.15.31.18.51s.045.435.045.705c0 .26-.01.5-.03.72-.02.22-.075.41-.165.57a.931.931 0 01-.398.375c-.175.09-.417.135-.727.135zm7.175 1.53v-10.68h-1.53V1405h1.53zm5.42 0v-9.24h1.77v-1.44h-5.07v1.44h1.77v9.24h1.53zm6.38 0v-9.24h1.77v-1.44h-5.07v1.44h1.77v9.24h1.53zm8.405 0v-1.53h-3.03v-3.135h2.64v-1.44h-2.64v-3.135h3.03v-1.44h-4.56V1405h4.56zm9.13 0l1.155-6.93h.03l1.17 6.93h1.44l1.59-10.68h-1.62l-.735 6.945h-.03l-1.245-6.945h-1.17l-1.2 6.78h-.03l-.765-6.78h-1.62l1.59 10.68h1.44zm9.095-11.34v-1.53h-1.35v1.53h1.35zm2.43 0v-1.53h-1.35v1.53h1.35zm-3.39 11.34l.45-2.295h2.085l.45 2.295h1.53l-2.385-10.68h-1.275l-2.385 10.68h1.53zm2.25-3.735h-1.53l.75-3.87h.03l.75 3.87zm5.945 3.735v-4.755h1.89V1405h1.53v-10.68h-1.53v4.575h-1.89v-4.575h-1.53V1405h1.53zm10.82 0v-1.53h-3.03v-9.15h-1.53V1405h4.56zm6.95 0v-1.53h-3.03v-3.135h2.64v-1.44h-2.64v-3.135h3.03v-1.44h-4.56V1405h4.56zm3.86 0v-6.42h.03l2.34 6.42h1.44v-10.68h-1.53v6.435h-.03l-2.31-6.435h-1.47V1405h1.53zM140.805 1405c1 0 1.727-.25 2.183-.75.454-.5.682-1.22.682-2.16v-.6c0-.57-.085-1.02-.255-1.35a1.66 1.66 0 00-.795-.75c.35-.2.61-.44.78-.72.09-.15.157-.325.202-.525.046-.2.068-.445.068-.735v-.39c0-.35-.047-.688-.142-1.013a2.24 2.24 0 00-.473-.862c-.22-.25-.502-.45-.847-.6-.345-.15-.763-.225-1.253-.225h-2.235V1405h2.085zm.135-6.3h-.69v-2.94h.63c.51 0 .863.12 1.058.36.195.24.292.6.292 1.08 0 .49-.087.862-.262 1.118-.175.255-.518.382-1.028.382zm-.03 4.77h-.66v-3.42h.675c.28 0 .505.033.675.098.17.065.305.167.405.307.09.14.15.31.18.51s.045.435.045.705c0 .26-.01.5-.03.72-.02.22-.075.41-.165.57a.931.931 0 01-.398.375c-.174.09-.417.135-.727.135zm7.175 1.53v-10.68h-1.53V1405h1.53zm5.42 0v-9.24h1.77v-1.44h-5.07v1.44h1.77v9.24h1.53zm6.38 0v-9.24h1.77v-1.44h-5.07v1.44h1.77v9.24h1.53zm8.405 0v-1.53h-3.03v-3.135h2.64v-1.44h-2.64v-3.135h3.03v-1.44h-4.56V1405h4.56zm9.13 0l1.155-6.93h.03l1.17 6.93h1.44l1.59-10.68h-1.62l-.735 6.945h-.03l-1.245-6.945h-1.17l-1.2 6.78h-.03l-.765-6.78h-1.62l1.59 10.68h1.44zm9.095-11.34v-1.53h-1.35v1.53h1.35zm2.43 0v-1.53h-1.35v1.53h1.35zm-3.39 11.34l.45-2.295h2.085l.45 2.295h1.53l-2.385-10.68h-1.275l-2.385 10.68h1.53zm2.25-3.735h-1.53l.75-3.87h.03l.75 3.87zm5.945 3.735v-4.755h1.89V1405h1.53v-10.68h-1.53v4.575h-1.89v-4.575h-1.53V1405h1.53zm10.82 0v-1.53h-3.03v-9.15h-1.53V1405h4.56zm6.95 0v-1.53h-3.03v-3.135h2.64v-1.44h-2.64v-3.135h3.03v-1.44h-4.56V1405h4.56zm3.86 0v-6.42h.03l2.34 6.42h1.44v-10.68h-1.53v6.435h-.03l-2.31-6.435h-1.47V1405h1.53zM790 1403.707l-4.707-4.707 1.414-1.414 3.293 3.292 3.293-3.292 1.414 1.414zM427 1402.707l-4.707-4.707 1.414-1.414 3.293 3.292 3.293-3.292 1.414 1.414z" fill="#4A4A4A" fill-rule="nonzero"/>
<path d="M813 1848v48H121v-48h692zm-1 1H122v46h690v-46z" fill="#D7D7D7" fill-rule="nonzero"/>
<circle fill="#D7D7D7" cx="834.5" cy="1871.5" r="8.5"/>
<path d="M835.07 1868.07v-1.326h-1.326v1.326h1.326zm0 7.93v-6.591h-1.326V1876h1.326z" fill="#FFF" fill-rule="nonzero"/>
<path fill="#4A4A4A" fill-rule="nonzero" d="M135.693 2228.911l-7.055 7.762-4.378-4.214 1.387-1.44 2.896 2.787 5.67-6.24z"/>
<path d="M139 2224v18h-18v-18h18zm-1 1h-16v16h16v-16zM130 2311a9 9 0 110 18 9 9 0 010-18zm0 1a8 8 0 100 16 8 8 0 000-16z" fill="#4A4A4A" fill-rule="nonzero"/>
<rect fill="#4A4A4A" x="126" y="2316" width="8" height="8" rx="4"/>
<path d="M139 2192v18h-18v-18h18zm-1 1h-16v16h16v-16zM130 2280a9 9 0 110 18 9 9 0 010-18zm0 1a8 8 0 100 16 8 8 0 000-16zM812 2088v48H121v-48h691zm-1 1H122v46h689v-46z" fill="#D7D7D7" fill-rule="nonzero"/>
<path fill="#B50000" d="M764 2088h49v48h-49z"/>
<path d="M139.295 2117v-10.68h-1.53V2117h1.53zm4.415 0v-4.755h1.89V2117h1.53v-10.68h-1.53v4.575h-1.89v-4.575h-1.53V2117h1.53zm7.79 0v-4.56h.915l1.425 4.56h1.62l-1.65-4.875c.49-.27.833-.625 1.028-1.065.195-.44.292-.975.292-1.605 0-2.09-.9-3.135-2.7-3.135h-2.46V2117h1.53zm.87-5.91h-.87v-3.33h.795c.53 0 .89.14 1.08.42.09.15.15.328.18.533.03.204.045.442.045.712 0 .27-.015.507-.045.712-.03.206-.085.378-.165.518a.877.877 0 01-.375.322c-.16.075-.375.113-.645.113zm9.95 5.91v-1.53h-3.03v-3.135h2.64v-1.44h-2.64v-3.135h3.03v-1.44h-4.56V2117h4.56zm11.14 0v-1.53h-3.03v-3.135h2.64v-1.44h-2.64v-3.135h3.03v-1.44h-4.56V2117h4.56zm6.845-3.39v-1.53h-4.515v1.53h4.515zm4.31 3.39v-6.495h.03l1.5 4.59h.765l1.515-4.59h.03V2117h1.53v-10.68H188.5l-1.95 5.655h-.03l-1.965-5.655h-1.47V2117h1.53zm9.05 0l.45-2.295h2.085l.45 2.295h1.53l-2.385-10.68h-1.275l-2.385 10.68h1.53zm2.25-3.735h-1.53l.75-3.87h.03l.75 3.87zm5.99 3.735v-10.68h-1.53V2117h1.53zm7.445 0v-1.53h-3.03v-9.15h-1.53V2117h4.56zm3.23 0l.45-2.295h2.085l.45 2.295h1.53l-2.385-10.68h-1.275L211.05 2117h1.53zm2.25-3.735h-1.53l.75-3.87h.03l.75 3.87zm6.545 3.735c.91 0 1.607-.238 2.093-.713.484-.474.727-1.212.727-2.212v-4.995c0-.88-.227-1.56-.683-2.04-.454-.48-1.122-.72-2.002-.72h-2.265V2117h2.13zm.105-1.44h-.705v-7.8h.705c.45 0 .76.115.93.345.17.23.255.555.255.975v5.145c0 .46-.09.798-.27 1.013-.18.215-.485.322-.915.322zm7.085 1.44v-4.56h.915l1.425 4.56h1.62l-1.65-4.875c.49-.27.833-.625 1.028-1.065.195-.44.292-.975.292-1.605 0-2.09-.9-3.135-2.7-3.135h-2.46V2117h1.53zm.87-5.91h-.87v-3.33h.795c.53 0 .89.14 1.08.42.09.15.15.328.18.533.03.204.045.442.045.712 0 .27-.015.507-.045.712-.03.206-.085.378-.165.518a.877.877 0 01-.375.322c-.16.075-.375.113-.645.113zm9.95 5.91v-1.53h-3.03v-3.135h2.64v-1.44h-2.64v-3.135h3.03v-1.44h-4.56V2117h4.56zm4.7.09c.49 0 .905-.08 1.245-.24.34-.16.615-.38.825-.66.2-.27.345-.597.435-.983.09-.384.135-.802.135-1.252 0-.39-.02-.737-.06-1.043a2.84 2.84 0 00-.225-.817 1.978 1.978 0 00-.495-.607 2.9 2.9 0 00-.825-.458l-1.17-.465c-.2-.08-.357-.16-.472-.24a.834.834 0 01-.263-.285.997.997 0 01-.113-.375 5.072 5.072 0 01-.022-.525c0-.18.015-.352.045-.517.03-.166.085-.313.165-.443.08-.12.185-.22.315-.3.13-.08.3-.12.51-.12.39 0 .667.127.832.382.166.256.248.558.248.908v.345h1.53v-.75c0-.62-.23-1.17-.69-1.65a2.685 2.685 0 00-.817-.555 2.538 2.538 0 00-1.043-.21c-.45 0-.838.077-1.163.233a2.269 2.269 0 00-.802.622c-.22.26-.385.57-.495.93-.11.36-.165.74-.165 1.14 0 .67.112 1.227.337 1.672.226.445.668.803 1.328 1.073l1.095.45c.19.08.343.155.458.225.114.07.207.16.277.27.06.11.1.255.12.435a8.57 8.57 0 01.008 1.342 1.184 1.184 0 01-.143.503.808.808 0 01-.338.323c-.144.075-.347.112-.607.112-.39 0-.668-.112-.833-.338a1.25 1.25 0 01-.247-.757v-.48h-1.53v.57c0 .36.067.693.203.997.135.305.317.573.547.803.23.23.505.41.825.54.32.13.665.195 1.035.195zm7.49 0c.49 0 .905-.08 1.245-.24.34-.16.615-.38.825-.66.2-.27.345-.597.435-.983.09-.384.135-.802.135-1.252 0-.39-.02-.737-.06-1.043a2.84 2.84 0 00-.225-.817 1.978 1.978 0 00-.495-.607 2.9 2.9 0 00-.825-.458l-1.17-.465c-.2-.08-.357-.16-.472-.24a.834.834 0 01-.263-.285.997.997 0 01-.113-.375 5.072 5.072 0 01-.022-.525c0-.18.015-.352.045-.517.03-.166.085-.313.165-.443.08-.12.185-.22.315-.3.13-.08.3-.12.51-.12.39 0 .668.127.833.382.165.256.247.558.247.908v.345h1.53v-.75c0-.62-.23-1.17-.69-1.65a2.685 2.685 0 00-.817-.555 2.538 2.538 0 00-1.043-.21c-.45 0-.838.077-1.162.233a2.269 2.269 0 00-.803.622c-.22.26-.385.57-.495.93-.11.36-.165.74-.165 1.14 0 .67.113 1.227.338 1.672.225.445.667.803 1.327 1.073l1.095.45c.19.08.343.155.457.225.115.07.208.16.278.27.06.11.1.255.12.435a8.57 8.57 0 01.007 1.342 1.184 1.184 0 01-.142.503.808.808 0 01-.338.323c-.144.075-.347.112-.607.112-.39 0-.667-.112-.832-.338a1.25 1.25 0 01-.248-.757v-.48h-1.53v.57c0 .36.067.693.202.997.136.305.318.573.548.803.23.23.505.41.825.54.32.13.665.195 1.035.195zm9.74-.09v-1.53h-3.03v-3.135h2.64v-1.44h-2.64v-3.135h3.03v-1.44h-4.56V2117h4.56z" fill="#4A4A4A" fill-rule="nonzero" opacity=".499"/>
<path fill="#FFF" d="M794 2111.5l-8 5.5v-11z"/>
<path d="M140.805 1877c1 0 1.727-.25 2.183-.75.454-.5.682-1.22.682-2.16v-.6c0-.57-.085-1.02-.255-1.35a1.66 1.66 0 00-.795-.75c.35-.2.61-.44.78-.72.09-.15.157-.325.202-.525.046-.2.068-.445.068-.735v-.39c0-.35-.047-.688-.142-1.013a2.24 2.24 0 00-.473-.862c-.22-.25-.502-.45-.847-.6-.345-.15-.763-.225-1.253-.225h-2.235V1877h2.085zm.135-6.3h-.69v-2.94h.63c.51 0 .863.12 1.058.36.195.24.292.6.292 1.08 0 .49-.087.862-.262 1.118-.175.255-.518.382-1.028.382zm-.03 4.77h-.66v-3.42h.675c.28 0 .505.033.675.098.17.065.305.167.405.307.09.14.15.31.18.51s.045.435.045.705c0 .26-.01.5-.03.72-.02.22-.075.41-.165.57a.931.931 0 01-.398.375c-.174.09-.417.135-.727.135zm7.175 1.53v-10.68h-1.53V1877h1.53zm5.42 0v-9.24h1.77v-1.44h-5.07v1.44h1.77v9.24h1.53zm6.38 0v-9.24h1.77v-1.44h-5.07v1.44h1.77v9.24h1.53zm8.405 0v-1.53h-3.03v-3.135h2.64v-1.44h-2.64v-3.135h3.03v-1.44h-4.56V1877h4.56zm9.13 0l1.155-6.93h.03l1.17 6.93h1.44l1.59-10.68h-1.62l-.735 6.945h-.03l-1.245-6.945h-1.17l-1.2 6.78h-.03l-.765-6.78h-1.62l1.59 10.68h1.44zm9.095-11.34v-1.53h-1.35v1.53h1.35zm2.43 0v-1.53h-1.35v1.53h1.35zm-3.39 11.34l.45-2.295h2.085l.45 2.295h1.53l-2.385-10.68h-1.275l-2.385 10.68h1.53zm2.25-3.735h-1.53l.75-3.87h.03l.75 3.87zm5.945 3.735v-4.755h1.89V1877h1.53v-10.68h-1.53v4.575h-1.89v-4.575h-1.53V1877h1.53zm10.82 0v-1.53h-3.03v-9.15h-1.53V1877h4.56zm6.95 0v-1.53h-3.03v-3.135h2.64v-1.44h-2.64v-3.135h3.03v-1.44h-4.56V1877h4.56zm3.86 0v-6.42h.03l2.34 6.42h1.44v-10.68h-1.53v6.435h-.03l-2.31-6.435h-1.47V1877h1.53zM790 1875.707l-4.707-4.707 1.414-1.414 3.293 3.292 3.293-3.292 1.414 1.414zM813 2008v48H121v-48h692zm-1 1H122v46h690v-46z" fill="#4A4A4A" fill-rule="nonzero"/>
<circle fill="#008E48" cx="834.5" cy="2032.5" r="8.5"/>
<path d="M835.07 2029.07v-1.326h-1.326v1.326h1.326zm0 7.93v-6.591h-1.326V2037h1.326z" fill="#FFF" fill-rule="nonzero"/>
<path d="M140.25 2038v-6.495h.03l1.5 4.59h.765l1.515-4.59h.03V2038h1.53v-10.68h-1.485l-1.95 5.655h-.03l-1.965-5.655h-1.47V2038h1.53zm9.05 0l.45-2.295h2.085l.45 2.295h1.53l-2.385-10.68h-1.275L147.77 2038h1.53zm2.25-3.735h-1.53l.75-3.87h.03l.75 3.87zm5.285 3.735l1.32-3.6 1.335 3.6h1.62l-2.205-5.595 2.04-5.085h-1.62l-1.17 3.165-1.155-3.165h-1.62l1.995 5.085-2.16 5.595h1.62z" fill="#4A4A4A" fill-rule="nonzero"/>
<path d="M813 1928v48H121v-48h692zm-1 1H122v46h690v-46z" fill="#D7D7D7" fill-rule="nonzero"/>
<path d="M140.19 1958v-6.42h.03l2.34 6.42H144v-10.68h-1.53v6.435h-.03l-2.31-6.435h-1.47V1958h1.53zm7.43 0l.45-2.295h2.085l.45 2.295h1.53l-2.385-10.68h-1.275L146.09 1958h1.53zm2.25-3.735h-1.53l.75-3.87h.03l.75 3.87zm6.845 3.825c.34 0 .657-.067.952-.202.296-.135.553-.318.773-.548.22-.23.393-.492.518-.787.125-.296.187-.608.187-.938v-.66h-1.53v.525c0 .21-.03.385-.09.525a.915.915 0 01-.225.33.962.962 0 01-.323.172 1.111 1.111 0 01-.322.053c-.35 0-.593-.105-.727-.315-.136-.21-.203-.47-.203-.78v-5.46c0-.36.063-.658.188-.893.124-.235.377-.352.757-.352.29 0 .52.11.69.33.17.22.255.48.255.78v.51h1.53v-.6c0-.37-.063-.712-.188-1.027a2.505 2.505 0 00-.517-.818c-.45-.47-1.035-.705-1.755-.705-.37 0-.708.063-1.012.188a2.295 2.295 0 00-1.298 1.297c-.12.3-.18.625-.18.975v5.88c0 .49.078.893.233 1.207.155.315.352.573.592.773.24.2.51.34.81.42.3.08.595.12.885.12zm6.605-.09v-4.755h1.89V1958h1.53v-10.68h-1.53v4.575h-1.89v-4.575h-1.53V1958h1.53zm7.73 0v-6.42h.03l2.34 6.42h1.44v-10.68h-1.53v6.435h-.03l-2.31-6.435h-1.47V1958h1.53zm7.43 0l.45-2.295h2.085l.45 2.295h1.53l-2.385-10.68h-1.275L176.95 1958h1.53zm2.25-3.735h-1.53l.75-3.87h.03l.75 3.87zm5.945 3.735v-6.495h.03l1.5 4.59h.765l1.515-4.59h.03V1958h1.53v-10.68h-1.485l-1.95 5.655h-.03l-1.965-5.655h-1.47V1958h1.53zm12.77 0v-1.53h-3.03v-3.135h2.64v-1.44h-2.64v-3.135h3.03v-1.44h-4.56V1958h4.56z" fill="#4A4A4A" fill-rule="nonzero"/>
<path fill="#008E48" fill-rule="nonzero" d="M206.255 1951.24l-.06-1.74 1.47.9.42-.795-1.5-.825 1.5-.84-.42-.78-1.47.9.06-1.74h-.96l.06 1.74-1.47-.9-.42.78 1.5.84-1.5.825.42.795 1.47-.9-.06 1.74z"/>
<circle fill="#D7D7D7" cx="834.5" cy="1952.5" r="8.5"/>
<path d="M835.07 1949.07v-1.326h-1.326v1.326h1.326zm0 7.93v-6.591h-1.326V1957h1.326z" fill="#FFF" fill-rule="nonzero"/>
<path fill="#B28C44" d="M782 2451l-30.434-14.111v-44.778h60.868v44.778z"/>
<path d="M773.189 2415v-6.42h.03l2.34 6.42h1.44v-10.68h-1.53v6.435h-.03l-2.31-6.435h-1.47V2415h1.53zm8.852.09c.34 0 .66-.065.96-.195a2.545 2.545 0 001.328-1.327c.125-.296.187-.618.187-.968v-8.28h-1.53v8.13c0 .38-.09.66-.27.84a.916.916 0 01-.675.27.916.916 0 01-.675-.27c-.18-.18-.27-.46-.27-.84v-8.13h-1.53v8.28c0 .35.065.673.195.968.13.294.31.557.54.787.23.23.493.41.788.54.295.13.612.195.952.195zm6.633-.09v-4.56h.915l1.425 4.56h1.62l-1.65-4.875c.49-.27.832-.625 1.027-1.065.195-.44.293-.975.293-1.605 0-2.09-.9-3.135-2.7-3.135h-2.46V2415h1.53zm.87-5.91h-.87v-3.33h.795c.53 0 .89.14 1.08.42.09.15.15.328.18.533.03.204.045.442.045.712 0 .27-.015.507-.045.712-.03.206-.085.378-.165.518a.877.877 0 01-.375.322c-.16.075-.375.113-.645.113zm-24.346 21c.31 0 .617-.055.922-.165.305-.11.582-.275.832-.495.24-.21.436-.475.586-.795.15-.32.225-.705.225-1.155v-5.64c0-.43-.076-.81-.226-1.14a2.512 2.512 0 00-.585-.825 2.72 2.72 0 00-.832-.48 2.702 2.702 0 00-.923-.165c-.31 0-.617.055-.922.165a2.409 2.409 0 00-1.418 1.305c-.15.33-.224.71-.224 1.14v5.64c0 .45.074.835.224 1.155.15.32.35.585.6.795.24.22.513.385.818.495.305.11.613.165.923.165zm0-1.53c-.28 0-.523-.088-.728-.262-.205-.175-.308-.448-.308-.818v-5.64c0-.37.103-.642.308-.818.205-.175.447-.262.727-.262.28 0 .523.087.728.262.205.176.308.448.308.818v5.64c0 .37-.103.642-.308.818a1.085 1.085 0 01-.727.262zm6.572 1.44v-6.42h.03l2.34 6.42h1.44v-10.68h-1.53v6.435h-.03l-2.31-6.435h-1.47V2430h1.53zm10.938 0v-1.53h-3.03v-9.15h-1.53V2430h4.56zm3.752 0v-10.68h-1.53V2430h1.53zm4.142 0v-6.42h.03l2.34 6.42h1.44v-10.68h-1.53v6.435h-.03l-2.31-6.435h-1.47V2430h1.53zm10.938 0v-1.53h-3.03v-3.135h2.64v-1.44h-2.64v-3.135h3.03v-1.44h-4.56V2430h4.56z" fill="#FFF" fill-rule="nonzero"/>
<path fill="#B50000" d="M152 2451l-30.434-14.111v-44.778h60.868v44.778z"/>
<path d="M145.435 2425.114c.38 0 .744-.066 1.092-.2.348-.133.656-.326.922-.579.265-.253.478-.557.636-.912.158-.355.237-.76.237-1.216v-3.496c0-.798-.205-1.396-.617-1.795-.412-.4-.947-.599-1.606-.599-.341 0-.652.06-.93.18a2.17 2.17 0 00-.685.447v-3.648h3.838v-1.824h-5.548v7.296h1.71l.114-.209a.789.789 0 01.171-.247c.076-.076.171-.142.285-.2a.928.928 0 01.418-.085c.266 0 .485.095.656.285.171.19.257.418.257.684v3.173c0 .317-.08.564-.238.741-.158.177-.383.266-.674.266-.292 0-.53-.092-.713-.275-.184-.184-.275-.44-.275-.77v-.494h-1.939v.57c0 .456.08.861.238 1.216.158.355.37.659.637.912.266.253.573.447.921.58.348.133.712.199 1.093.199zm8.067 0c.38 0 .745-.066 1.093-.2.348-.133.655-.326.922-.579.266-.253.478-.557.636-.912.158-.355.238-.76.238-1.216v-7.942c0-.456-.08-.861-.238-1.216a2.845 2.845 0 00-.636-.912 2.738 2.738 0 00-.922-.58 3.037 3.037 0 00-1.093-.199c-.38 0-.744.066-1.092.2a2.738 2.738 0 00-.922.579 2.845 2.845 0 00-.636.912c-.158.355-.238.76-.238 1.216v7.942c0 .456.08.861.238 1.216.158.355.37.659.636.912.267.253.574.447.922.58.348.133.713.199 1.093.199zm0-1.938a.909.909 0 01-.684-.275.958.958 0 01-.266-.694v-7.942c0-.279.09-.51.267-.693a.909.909 0 01.684-.276c.278 0 .506.092.684.276a.958.958 0 01.265.693v7.942c0 .279-.088.51-.266.694a.909.909 0 01-.684.275zm6.508-7.581c.494 0 .887-.133 1.178-.399.291-.266.437-.614.437-1.045v-1.235c0-.481-.146-.861-.437-1.14-.291-.279-.684-.418-1.178-.418-.494 0-.887.14-1.178.418-.291.279-.437.659-.437 1.14v1.235c0 .43.146.779.437 1.045.291.266.684.399 1.178.399zm-.133 9.405l4.636-13.528h-1.254L158.623 2425h1.254zm.133-10.545a.456.456 0 01-.332-.142.478.478 0 01-.143-.352v-.969c0-.14.048-.257.143-.352a.456.456 0 01.665 0 .478.478 0 01.142.352v.969c0 .14-.048.257-.143.352a.456.456 0 01-.332.142zm3.116 10.659c.494 0 .887-.133 1.178-.399.291-.266.437-.614.437-1.045v-1.235c0-.481-.146-.861-.437-1.14-.291-.279-.684-.418-1.178-.418-.494 0-.887.14-1.178.418-.291.279-.437.659-.437 1.14v1.235c0 .43.146.779.437 1.045.291.266.684.399 1.178.399zm0-1.14a.456.456 0 01-.333-.143.478.478 0 01-.142-.351v-.969c0-.14.047-.256.142-.351a.456.456 0 01.665 0 .478.478 0 01.143.351v.969c0 .14-.047.256-.143.351a.456.456 0 01-.332.143z" fill="#FFF" fill-rule="nonzero"/>
<path fill="#2B7399" d="M572 2452l-30.434-14.111v-44.778h60.868v44.778z"/>
<path d="M562.213 2426v-8.132h.038l2.964 8.132h1.824v-13.528H565.1v8.151h-.038l-2.926-8.151h-1.862V2426h1.938zm13.537 0v-1.938h-3.838v-3.971h3.344v-1.824h-3.344v-3.971h3.838v-1.824h-5.776V2426h5.776zm5.577.114c.43 0 .836-.082 1.216-.247a3.224 3.224 0 001.681-1.682 3.11 3.11 0 00.238-1.225v-10.488h-1.938v10.298c0 .481-.114.836-.342 1.064a1.16 1.16 0 01-.855.342 1.16 1.16 0 01-.855-.342c-.228-.228-.342-.583-.342-1.064v-10.298h-1.938v10.488c0 .443.082.852.247 1.226.164.373.392.706.684.997.291.291.624.52.997.684.374.165.776.247 1.207.247z" fill="#FFF" fill-rule="nonzero"/>
<path fill="#B50000" d="M362 2451l-30.434-14.111v-44.778h60.868v44.778z"/>
<path d="M352.336 2425v-8.132h.038l2.964 8.132h1.824v-13.528h-1.938v8.151h-.038l-2.926-8.151h-1.862V2425h1.938zm13.538 0v-1.938h-3.838v-3.971h3.344v-1.824h-3.344v-3.971h3.838v-1.824h-5.776V2425h5.776zm5.576.114c.431 0 .836-.082 1.216-.247a3.224 3.224 0 001.682-1.682 3.11 3.11 0 00.237-1.225v-10.488h-1.938v10.298c0 .481-.114.836-.342 1.064a1.16 1.16 0 01-.855.342 1.16 1.16 0 01-.855-.342c-.228-.228-.342-.583-.342-1.064v-10.298h-1.938v10.488c0 .443.083.852.247 1.226.165.373.393.706.684.997.292.291.624.52.998.684.374.165.776.247 1.206.247z" fill="#FFF" fill-rule="nonzero"/>
<path fill="#008E48" d="M122 294h160v156H122z"/>
<path fill="#2B7399" d="M300 294h160v156H300z"/>
<path fill="#B50000" d="M476 294h160v156H476z"/>
<path d="M179.025 376l.435-3.225h1.26l-.435 3.225h1.02l.435-3.225h.87v-.9h-.75l.33-2.43h.885v-.9h-.765l.435-3.225h-1.02l-.435 3.225h-1.26l.435-3.225h-1.02l-.435 3.225h-.87v.9h.75l-.33 2.43h-.885v.9h.765l-.435 3.225h1.02zm1.815-4.125h-1.26l.33-2.43h1.26l-.33 2.43zm6.515 4.215c.3 0 .588-.052.863-.157.275-.106.517-.258.727-.458.21-.2.377-.44.502-.72.125-.28.188-.6.188-.96v-6.27c0-.36-.063-.68-.188-.96a2.246 2.246 0 00-.502-.72c-.21-.2-.452-.353-.727-.458a2.398 2.398 0 00-.863-.157c-.3 0-.587.053-.862.157a2.162 2.162 0 00-.728.458c-.21.2-.377.44-.502.72-.126.28-.188.6-.188.96v6.27c0 .36.063.68.188.96.124.28.292.52.502.72.21.2.453.352.728.457.275.106.562.158.862.158zm0-1.53c-.22 0-.4-.072-.54-.218a.757.757 0 01-.21-.547v-6.27c0-.22.07-.402.21-.547a.718.718 0 01.54-.218c.22 0 .4.072.54.218.14.144.21.327.21.547v6.27c0 .22-.07.402-.21.547a.718.718 0 01-.54.218zm6.98 1.53c.3 0 .588-.052.862-.157.275-.106.518-.258.728-.458.21-.2.377-.44.502-.72.126-.28.188-.6.188-.96v-6.27c0-.36-.063-.68-.188-.96a2.246 2.246 0 00-.502-.72c-.21-.2-.453-.353-.728-.458a2.398 2.398 0 00-.862-.157c-.3 0-.588.053-.863.157a2.162 2.162 0 00-.727.458c-.21.2-.377.44-.502.72-.125.28-.188.6-.188.96v6.27c0 .36.063.68.188.96.125.28.292.52.502.72.21.2.452.352.727.457.275.106.563.158.863.158zm0-1.53c-.22 0-.4-.072-.54-.218a.757.757 0 01-.21-.547v-6.27c0-.22.07-.402.21-.547a.718.718 0 01.54-.218c.22 0 .4.072.54.218.14.144.21.327.21.547v6.27c0 .22-.07.402-.21.547a.718.718 0 01-.54.218zm6.98 1.53c.45 0 .83-.092 1.14-.277.31-.185.55-.408.72-.668.08-.12.147-.235.202-.345.055-.11.098-.245.128-.405.03-.16.053-.347.067-.563.016-.214.023-.487.023-.817 0-.4-.005-.738-.015-1.012a3.248 3.248 0 00-.09-.698 1.415 1.415 0 00-.233-.495 2.277 2.277 0 00-.427-.42c.18-.15.322-.292.427-.428.106-.135.183-.287.233-.457.05-.17.08-.365.09-.585.01-.22.015-.49.015-.81 0-.29-.007-.538-.023-.743a2.202 2.202 0 00-.097-.532c-.05-.15-.11-.285-.18-.405a3.57 3.57 0 00-.255-.375c-.2-.26-.45-.463-.75-.608a2.21 2.21 0 00-.975-.217c-.35 0-.675.072-.975.217-.3.145-.55.348-.75.608-.1.13-.183.255-.248.375s-.122.255-.172.405c-.05.15-.085.328-.105.533-.02.204-.03.452-.03.742 0 .32.005.59.015.81.01.22.04.415.09.585.05.17.128.322.233.457.105.136.247.278.427.428-.18.14-.323.28-.428.42-.105.14-.182.305-.232.495-.05.19-.08.423-.09.697-.01.275-.015.613-.015 1.013v.191c.003.246.01.454.023.626.014.216.037.403.067.563.03.16.072.295.127.405.055.11.123.225.203.345.17.26.41.483.72.668.31.185.69.277 1.14.277zm0-6.27a.732.732 0 01-.525-.217.712.712 0 01-.225-.533v-1.56c0-.21.075-.387.225-.532a.732.732 0 01.525-.218c.2 0 .375.072.525.218.15.144.225.322.225.532v1.56c0 .21-.075.387-.225.533a.732.732 0 01-.525.217zm0 4.74a.732.732 0 01-.525-.218.712.712 0 01-.225-.532v-2.1c0-.21.075-.387.225-.532a.732.732 0 01.525-.218c.2 0 .375.073.525.218.15.144.225.322.225.532v2.1c0 .21-.075.387-.225.532a.732.732 0 01-.525.218zm9.47 1.44v-1.53h-3.03v-3.135h2.64v-1.44h-2.64v-3.135h3.03v-1.44h-4.56V376h4.56zm6.38 0v-1.59h.735v-1.44h-.735v-3.045h-1.53v3.045h-1.515l2.295-7.65h-1.62l-2.205 7.65v1.44h3.045V376h1.53zm5.06.09c.45 0 .83-.092 1.14-.277.31-.185.55-.408.72-.668.08-.12.147-.235.202-.345.055-.11.098-.245.128-.405.03-.16.053-.347.067-.563.016-.214.023-.487.023-.817v-.232c-.002-.3-.007-.56-.015-.78a3.248 3.248 0 00-.09-.698 1.415 1.415 0 00-.233-.495 2.277 2.277 0 00-.427-.42c.18-.15.322-.292.427-.428.106-.135.183-.287.233-.457.05-.17.08-.365.09-.585.01-.22.015-.49.015-.81 0-.29-.007-.538-.023-.743a2.202 2.202 0 00-.097-.532c-.05-.15-.11-.285-.18-.405a3.57 3.57 0 00-.255-.375c-.2-.26-.45-.463-.75-.608a2.21 2.21 0 00-.975-.217c-.35 0-.675.072-.975.217-.3.145-.55.348-.75.608-.1.13-.183.255-.248.375s-.122.255-.172.405c-.05.15-.085.328-.105.533-.02.204-.03.452-.03.742 0 .32.005.59.015.81.01.22.04.415.09.585.05.17.127.322.232.457.105.136.248.278.428.428-.18.14-.323.28-.428.42-.105.14-.182.305-.232.495-.05.19-.08.423-.09.697-.01.275-.015.613-.015 1.013 0 .33.007.603.023.817.014.216.037.403.067.563.03.16.072.295.127.405.055.11.123.225.203.345.17.26.41.483.72.668.31.185.69.277 1.14.277zm0-6.27a.732.732 0 01-.525-.217.712.712 0 01-.225-.533v-1.56c0-.21.075-.387.225-.532a.732.732 0 01.525-.218c.2 0 .375.072.525.218.15.144.225.322.225.532v1.56c0 .21-.075.387-.225.533a.732.732 0 01-.525.217zm0 4.74a.732.732 0 01-.525-.218.712.712 0 01-.225-.532v-2.1c0-.21.075-.387.225-.532a.732.732 0 01.525-.218c.2 0 .375.073.525.218.15.144.225.322.225.532v2.1c0 .21-.075.387-.225.532a.732.732 0 01-.525.218zM356.605 376l.435-3.225h1.26l-.435 3.225h1.02l.435-3.225h.87v-.9h-.75l.33-2.43h.885v-.9h-.765l.435-3.225h-1.02l-.435 3.225h-1.26l.435-3.225h-1.02l-.435 3.225h-.87v.9h.75l-.33 2.43h-.885v.9h.765l-.435 3.225h1.02zm1.815-4.125h-1.26l.33-2.43h1.26l-.33 2.43zm8.795 4.125v-1.53h-2.76l2.25-4.335c.12-.23.215-.425.285-.585.07-.16.12-.32.15-.48.03-.16.05-.327.06-.502.01-.175.015-.393.015-.653 0-.36-.042-.7-.127-1.02a2.583 2.583 0 00-.398-.855 2.05 2.05 0 00-.712-.593c-.286-.144-.628-.217-1.028-.217a2.246 2.246 0 00-1.62.69c-.21.21-.375.455-.495.735-.12.28-.18.58-.18.9v.84h1.53v-.87c0-.25.067-.44.202-.57.135-.13.318-.195.548-.195.19 0 .335.038.435.113a.71.71 0 01.225.277c.05.11.077.238.082.383.005.144.008.282.008.412 0 .29-.01.533-.03.728-.02.195-.1.422-.24.682l-2.76 5.205V376h4.56zm4.715 0c1 0 1.728-.25 2.183-.75.454-.5.682-1.22.682-2.16v-.6c0-.57-.085-1.02-.255-1.35a1.66 1.66 0 00-.795-.75c.35-.2.61-.44.78-.72.09-.15.158-.325.203-.525.044-.2.067-.445.067-.735v-.39c0-.35-.048-.688-.143-1.012a2.24 2.24 0 00-.472-.863c-.22-.25-.502-.45-.848-.6-.344-.15-.762-.225-1.252-.225h-2.235V376h2.085zm.135-6.3h-.69v-2.94h.63c.51 0 .863.12 1.058.36.195.24.292.6.292 1.08 0 .49-.088.863-.263 1.118-.174.255-.517.382-1.027.382zm-.03 4.77h-.66v-3.42h.675c.28 0 .505.032.675.097.17.065.305.168.405.308.09.14.15.31.18.51s.045.435.045.705c0 .26-.01.5-.03.72-.02.22-.075.41-.165.57a.931.931 0 01-.398.375c-.175.09-.417.135-.727.135zm7.355 1.53l2.595-9.15v-1.53h-4.56v2.67h1.35v-1.23h1.68L377.77 376h1.62zm7.28.09c.48 0 .868-.092 1.162-.277a2.424 2.424 0 00.923-1.043c.05-.11.09-.245.12-.405.03-.15.053-.34.067-.57.015-.23.023-.52.023-.87v-.22a20.946 20.946 0 00-.015-.717 2.324 2.324 0 00-.105-.638c-.06-.17-.153-.32-.278-.45a2.906 2.906 0 00-.547-.42c.22-.13.393-.25.518-.36a1.14 1.14 0 00.292-.405c.06-.15.098-.34.113-.57.014-.23.022-.53.022-.9 0-.65-.045-1.14-.135-1.47a1.752 1.752 0 00-.188-.435 3.277 3.277 0 00-.262-.36 2.4 2.4 0 00-.623-.502c-.274-.166-.622-.248-1.042-.248-.32 0-.62.06-.9.18s-.525.28-.735.48a2.223 2.223 0 00-.675 1.605v.885h1.53v-.87c0-.16.058-.325.173-.495.115-.17.307-.255.577-.255.23 0 .413.07.548.21.135.14.202.32.202.54v1.38c0 .4-.087.655-.262.765-.175.11-.493.165-.953.165v1.35c.25 0 .452.01.607.03.156.02.278.07.368.15.16.13.24.405.24.825v1.53c0 .26-.067.468-.202.623a.689.689 0 01-.548.232.689.689 0 01-.548-.233.87.87 0 01-.202-.592v-.795h-1.53v.87c0 .42.073.775.218 1.065.144.29.327.525.547.705.22.18.465.31.735.39.27.08.525.12.765.12zm6.98-.09l2.01-5.37a5.05 5.05 0 00.225-.825c.02-.15.035-.332.045-.548.01-.214.015-.487.015-.817v-.202c-.002-.26-.007-.48-.015-.66a7.398 7.398 0 00-.045-.578c-.03-.15-.07-.28-.12-.39-.05-.11-.11-.225-.18-.345a2.18 2.18 0 00-.795-.757 2.26 2.26 0 00-1.125-.278c-.42 0-.798.09-1.132.27-.336.18-.603.435-.803.765-.07.12-.127.235-.173.345-.045.11-.077.24-.097.39a4.2 4.2 0 00-.06.577 29.66 29.66 0 000 1.905c.01.276.03.503.06.683.02.18.05.327.09.442.04.115.095.223.165.323.13.2.31.365.54.495.23.13.48.195.75.195.17 0 .308-.012.413-.038a.6.6 0 00.232-.097l.03.03-1.74 4.485h1.71zm.015-5.73a.745.745 0 01-.75-.765v-1.98a.745.745 0 01.75-.765.745.745 0 01.75.765v1.98a.745.745 0 01-.75.765zm6.965 5.73l2.01-5.37a5.05 5.05 0 00.225-.825c.02-.15.035-.332.045-.548.01-.214.015-.487.015-.817v-.202c-.002-.26-.007-.48-.015-.66a7.398 7.398 0 00-.045-.578c-.03-.15-.07-.28-.12-.39-.05-.11-.11-.225-.18-.345a2.18 2.18 0 00-.795-.757 2.26 2.26 0 00-1.125-.278c-.42 0-.797.09-1.132.27-.335.18-.603.435-.803.765-.07.12-.127.235-.172.345-.046.11-.078.24-.098.39a4.2 4.2 0 00-.06.577 29.66 29.66 0 000 1.905c.01.276.03.503.06.683.02.18.05.327.09.442.04.115.095.223.165.323.13.2.31.365.54.495.23.13.48.195.75.195.17 0 .308-.012.412-.038a.6.6 0 00.233-.097l.03.03-1.74 4.485h1.71zm.015-5.73a.745.745 0 01-.75-.765v-1.98a.745.745 0 01.75-.765.745.745 0 01.75.765v1.98a.745.745 0 01-.75.765zM532.605 376l.435-3.225h1.26l-.435 3.225h1.02l.435-3.225h.87v-.9h-.75l.33-2.43h.885v-.9h-.765l.435-3.225h-1.02l-.435 3.225h-1.26l.435-3.225h-1.02l-.435 3.225h-.87v.9h.75l-.33 2.43h-.885v.9h.765l-.435 3.225h1.02zm1.815-4.125h-1.26l.33-2.43h1.26l-.33 2.43zm6.53 4.125c1 0 1.727-.25 2.183-.75.454-.5.682-1.22.682-2.16v-.6c0-.57-.085-1.02-.255-1.35a1.66 1.66 0 00-.795-.75c.35-.2.61-.44.78-.72.09-.15.158-.325.202-.525.046-.2.068-.445.068-.735v-.39c0-.35-.048-.688-.143-1.012a2.24 2.24 0 00-.472-.863c-.22-.25-.503-.45-.848-.6-.344-.15-.762-.225-1.252-.225h-2.235V376h2.085zm.135-6.3h-.69v-2.94h.63c.51 0 .863.12 1.058.36.195.24.292.6.292 1.08 0 .49-.087.863-.263 1.118-.174.255-.517.382-1.027.382zm-.03 4.77h-.66v-3.42h.675c.28 0 .505.032.675.097.17.065.305.168.405.308.09.14.15.31.18.51s.045.435.045.705c0 .26-.01.5-.03.72-.02.22-.075.41-.165.57a.931.931 0 01-.397.375c-.176.09-.418.135-.728.135zm7.67 1.62c.3 0 .587-.052.862-.157.275-.106.518-.258.728-.458.21-.2.377-.44.502-.72.125-.28.188-.6.188-.96v-2.76c0-.63-.163-1.103-.487-1.418-.326-.315-.748-.472-1.268-.472-.27 0-.515.048-.735.143-.22.094-.4.212-.54.352v-2.88h3.03v-1.44h-4.38v5.76h1.35l.09-.165a.623.623 0 01.135-.195.856.856 0 01.225-.158c.09-.045.2-.067.33-.067.21 0 .383.075.518.225a.78.78 0 01.202.54v2.505c0 .25-.063.445-.188.585-.125.14-.302.21-.532.21a.761.761 0 01-.563-.218c-.144-.144-.217-.347-.217-.607v-.39h-1.53v.45c0 .36.063.68.188.96.125.28.292.52.502.72.21.2.452.352.727.457.276.106.563.158.863.158zm6.98 0c.3 0 .587-.052.862-.157.275-.106.518-.258.728-.458.21-.2.378-.44.503-.72.125-.28.187-.6.187-.96v-6.27c0-.36-.063-.68-.188-.96a2.246 2.246 0 00-.502-.72c-.21-.2-.452-.353-.727-.458a2.398 2.398 0 00-.863-.157c-.3 0-.588.053-.863.157a2.162 2.162 0 00-.727.458c-.21.2-.378.44-.503.72-.125.28-.187.6-.187.96v6.27c0 .36.063.68.188.96.124.28.292.52.502.72.21.2.452.352.727.457.275.106.563.158.863.158zm0-1.53c-.22 0-.4-.072-.54-.218a.757.757 0 01-.21-.547v-6.27c0-.22.07-.402.21-.547a.718.718 0 01.54-.218c.22 0 .4.072.54.218.14.144.21.327.21.547v6.27c0 .22-.07.402-.21.547a.718.718 0 01-.54.218zm6.98 1.53c.3 0 .588-.052.863-.157.274-.106.517-.258.727-.458.21-.2.378-.44.503-.72.125-.28.187-.6.187-.96v-6.27c0-.36-.063-.68-.188-.96a2.246 2.246 0 00-.502-.72c-.21-.2-.452-.353-.727-.458a2.398 2.398 0 00-.863-.157c-.3 0-.587.053-.862.157a2.162 2.162 0 00-.728.458c-.21.2-.378.44-.503.72-.125.28-.187.6-.187.96v6.27c0 .36.063.68.188.96.125.28.292.52.502.72.21.2.452.352.727.457.275.106.563.158.863.158zm0-1.53c-.22 0-.4-.072-.54-.218a.757.757 0 01-.21-.547v-6.27c0-.22.07-.402.21-.547a.718.718 0 01.54-.218c.22 0 .4.072.54.218.14.144.21.327.21.547v6.27c0 .22-.07.402-.21.547a.718.718 0 01-.54.218zm6.98 1.53c.3 0 .588-.052.863-.157.274-.106.517-.258.727-.458.21-.2.378-.44.503-.72.125-.28.187-.6.187-.96v-6.27c0-.36-.063-.68-.188-.96a2.246 2.246 0 00-.502-.72c-.21-.2-.452-.353-.727-.458a2.398 2.398 0 00-.863-.157c-.3 0-.587.053-.862.157a2.162 2.162 0 00-.728.458c-.21.2-.378.44-.503.72-.125.28-.187.6-.187.96v6.27c0 .36.063.68.188.96.125.28.292.52.502.72.21.2.452.352.727.457.275.106.563.158.863.158zm0-1.53c-.22 0-.4-.072-.54-.218a.757.757 0 01-.21-.547v-6.27c0-.22.07-.402.21-.547a.718.718 0 01.54-.218c.22 0 .4.072.54.218.14.144.21.327.21.547v6.27c0 .22-.07.402-.21.547a.718.718 0 01-.54.218zm6.98 1.53c.3 0 .587-.052.863-.157.274-.106.517-.258.727-.458.21-.2.377-.44.502-.72.125-.28.188-.6.188-.96v-6.27c0-.36-.063-.68-.188-.96a2.246 2.246 0 00-.502-.72c-.21-.2-.452-.353-.727-.458a2.398 2.398 0 00-.863-.157c-.3 0-.587.053-.862.157a2.162 2.162 0 00-.728.458c-.21.2-.377.44-.502.72-.125.28-.188.6-.188.96v6.27c0 .36.063.68.188.96.125.28.292.52.502.72.21.2.453.352.728.457.274.106.562.158.862.158zm0-1.53c-.22 0-.4-.072-.54-.218a.757.757 0 01-.21-.547v-6.27c0-.22.07-.402.21-.547a.718.718 0 01.54-.218c.22 0 .4.072.54.218.14.144.21.327.21.547v6.27c0 .22-.07.402-.21.547a.718.718 0 01-.54.218z" fill="#FFF" fill-rule="nonzero"/>
<path fill="#B28C44" d="M652 294h160v156H652z"/>
<path d="M708.342 376l.436-3.225h1.26l-.436 3.225h1.02l.436-3.225h.87v-.9h-.75l.33-2.43h.885v-.9h-.765l.434-3.225h-1.02l-.435 3.225h-1.26l.436-3.225h-1.02l-.436 3.225h-.87v.9h.75l-.33 2.43h-.885v.9h.766l-.436 3.225h1.02zm1.816-4.125h-1.26l.33-2.43h1.26l-.33 2.43zm6.53 4.125c1 0 1.727-.25 2.182-.75.455-.5.683-1.22.683-2.16v-.6c0-.57-.086-1.02-.255-1.35a1.66 1.66 0 00-.795-.75c.35-.2.61-.44.78-.72.09-.15.157-.325.202-.525.045-.2.067-.445.067-.735v-.39c0-.35-.047-.688-.142-1.012a2.24 2.24 0 00-.472-.863c-.22-.25-.503-.45-.848-.6-.345-.15-.763-.225-1.253-.225h-2.235V376h2.086zm.135-6.3h-.69v-2.94h.63c.51 0 .862.12 1.057.36.195.24.292.6.292 1.08 0 .49-.087.863-.262 1.118-.175.255-.518.382-1.028.382zm-.03 4.77h-.66v-3.42h.674c.28 0 .505.032.675.097.17.065.306.168.406.308.09.14.15.31.18.51s.044.435.044.705c0 .26-.01.5-.03.72-.02.22-.074.41-.164.57a.931.931 0 01-.398.375c-.175.09-.418.135-.727.135zm9.95 1.53v-1.53h-2.76l2.25-4.335c.12-.23.215-.425.285-.585.07-.16.12-.32.15-.48.03-.16.05-.327.06-.502.01-.175.014-.393.014-.653 0-.36-.042-.7-.127-1.02a2.583 2.583 0 00-.398-.855 2.05 2.05 0 00-.712-.593c-.285-.144-.627-.217-1.028-.217a2.246 2.246 0 00-1.62.69c-.21.21-.375.455-.495.735-.12.28-.18.58-.18.9v.84h1.53v-.87c0-.25.068-.44.203-.57.135-.13.317-.195.548-.195.19 0 .335.038.435.113a.71.71 0 01.224.277c.05.11.078.238.083.383.005.144.007.282.007.412 0 .29-.01.533-.03.728-.02.195-.1.422-.24.682l-2.76 5.205V376h4.56zm4.7.09c.45 0 .83-.092 1.14-.277.31-.185.55-.408.72-.668.08-.12.147-.235.202-.345.055-.11.097-.245.128-.405.03-.16.052-.347.067-.563.015-.214.022-.487.022-.817 0-.4-.005-.738-.014-1.012a3.248 3.248 0 00-.09-.698 1.415 1.415 0 00-.233-.495 2.277 2.277 0 00-.428-.42c.18-.15.323-.292.428-.428.105-.135.183-.287.232-.457.05-.17.08-.365.09-.585.01-.22.015-.49.015-.81 0-.29-.007-.538-.022-.743a2.202 2.202 0 00-.098-.532c-.05-.15-.11-.285-.18-.405a3.57 3.57 0 00-.255-.375c-.2-.26-.45-.463-.75-.608a2.21 2.21 0 00-.975-.217c-.35 0-.674.072-.975.217-.3.145-.55.348-.75.608a2.529 2.529 0 00-.42.78c-.05.15-.085.328-.105.533-.02.204-.03.452-.03.742 0 .32.005.59.015.81.01.22.04.415.09.585.05.17.128.322.233.457.105.136.247.278.428.428-.18.14-.323.28-.428.42-.105.14-.183.305-.232.495-.05.19-.08.423-.09.697-.01.275-.015.613-.015 1.013 0 .33.007.603.022.817.015.216.038.403.068.563.03.16.072.295.127.405.055.11.123.225.202.345.17.26.41.483.72.668.31.185.69.277 1.14.277zm0-6.27a.732.732 0 01-.525-.217.712.712 0 01-.226-.533v-1.56c0-.21.076-.387.226-.532a.732.732 0 01.524-.218c.2 0 .375.072.525.218.15.144.226.322.226.532v1.56c0 .21-.076.387-.226.533a.732.732 0 01-.524.217zm0 4.74a.732.732 0 01-.525-.218.712.712 0 01-.226-.532v-2.1c0-.21.076-.387.226-.532a.732.732 0 01.524-.218c.2 0 .375.073.525.218.15.144.226.322.226.532v2.1c0 .21-.076.387-.226.532a.732.732 0 01-.524.218zm7.34 1.53c.34 0 .657-.067.952-.202.295-.135.553-.318.773-.548.22-.23.392-.492.517-.787.125-.296.188-.608.188-.938v-.66h-1.53v.525c0 .21-.03.385-.09.525a.915.915 0 01-.226.33.962.962 0 01-.322.173 1.111 1.111 0 01-.322.052c-.35 0-.593-.105-.728-.315-.135-.21-.202-.47-.202-.78v-5.46c0-.36.062-.657.187-.892.125-.236.377-.353.757-.353.29 0 .52.11.69.33.17.22.255.48.255.78v.51h1.53v-.6c0-.37-.062-.712-.187-1.027a2.505 2.505 0 00-.517-.818c-.45-.47-1.036-.705-1.755-.705-.37 0-.708.063-1.013.188a2.295 2.295 0 00-1.298 1.297c-.12.3-.18.625-.18.975v5.88c0 .49.078.892.233 1.207.155.315.352.573.592.773.24.2.51.34.81.42.3.08.595.12.885.12zm9.064-.09v-1.59h.736v-1.44h-.736v-3.045h-1.53v3.045h-1.514l2.294-7.65h-1.62l-2.204 7.65v1.44h3.044V376h1.53zm6.98 0v-1.59h.736v-1.44h-.736v-3.045h-1.53v3.045h-1.514l2.294-7.65h-1.62l-2.204 7.65v1.44h3.044V376h1.53z" fill="#FFF" fill-rule="nonzero"/>
<path fill="#D3D3CC" fill-rule="nonzero" d="M399 1160.5v70h-1v-70zM537 1160.5v70h-1v-70zM675 1160.5v70h-1v-70z"/>
</g>
</svg>
