<?xml version="1.0" encoding="UTF-8"?>
<svg width="710px" height="1280px" viewBox="0 0 710 1280" version="1.1" xmlns="http://www.w3.org/2000/svg" xmlns:xlink="http://www.w3.org/1999/xlink">
    <title>Group 36</title>
    <g id="Cases" stroke="none" stroke-width="1" fill="none" fill-rule="evenodd">
        <g id="Group-36">
            <rect id="Rectangle" fill="#D3D3CC" x="0" y="320" width="710" height="320"></rect>
            <rect id="Rectangle-Copy-37" fill="#D3D3CC" x="0" y="0" width="710" height="320"></rect>
            <rect id="Rectangle" fill="#EEDF28" x="0" y="960" width="355" height="320"></rect>
            <rect id="Rectangle" fill="#82827E" x="0" y="320" width="710" height="320"></rect>
            <rect id="Rectangle-Copy-48" fill="#323232" x="0" y="0" width="710" height="320"></rect>
            <rect id="Rectangle" fill="#D3D3CC" x="0" y="640" width="710" height="320"></rect>
            <rect id="Rectangle" fill="#F8F8F2" x="355" y="960" width="355" height="320"></rect>
            <path d="M321.379,809 L322.065,806.494 L325.005,806.494 L324.319,809 L325.691,809 L326.377,806.494 L328.687,806.494 L328.687,805.542 L326.629,805.542 L327.413,802.672 L329.387,802.672 L329.387,801.72 L327.665,801.72 L328.351,799.2 L326.979,799.2 L326.293,801.72 L323.353,801.72 L324.039,799.2 L322.667,799.2 L321.981,801.72 L319.671,801.72 L319.671,802.672 L321.729,802.672 L320.945,805.542 L318.971,805.542 L318.971,806.494 L320.693,806.494 L320.007,809 L321.379,809 Z M325.257,805.542 L322.317,805.542 L323.101,802.672 L326.041,802.672 L325.257,805.542 Z M335.131,809 C338.351,809 340.115,807.082 340.115,804.128 C340.115,801.146 338.351,799.2 335.131,799.2 L331.617,799.2 L331.617,809 L335.131,809 Z M335.131,807.866 L332.989,807.866 L332.989,800.334 L335.131,800.334 C337.497,800.334 338.701,801.832 338.701,804.128 C338.701,806.382 337.497,807.866 335.131,807.866 Z M345.579,809.14 C347.679,809.14 349.037,808.104 349.037,806.368 C349.037,805.108 348.365,804.324 347.175,803.988 C348.225,803.61 348.827,802.784 348.827,801.622 C348.827,800.012 347.553,799.06 345.579,799.06 C343.675,799.06 342.345,800.068 342.051,801.79 L343.325,802.084 C343.507,800.866 344.319,800.166 345.509,800.166 C346.769,800.166 347.483,800.768 347.483,801.818 C347.483,802.854 346.783,803.498 345.649,803.498 L344.585,803.498 L344.585,804.604 L345.677,804.604 C346.937,804.604 347.665,805.234 347.665,806.284 C347.665,807.39 346.881,808.048 345.565,808.048 C344.179,808.048 343.311,807.334 343.143,806.074 L341.827,806.326 C342.121,808.23 343.493,809.14 345.579,809.14 Z M355.159,809 C358.379,809 360.143,807.082 360.143,804.128 C360.143,801.146 358.379,799.2 355.159,799.2 L351.645,799.2 L351.645,809 L355.159,809 Z M355.159,807.866 L353.017,807.866 L353.017,800.334 L355.159,800.334 C357.525,800.334 358.729,801.832 358.729,804.128 C358.729,806.382 357.525,807.866 355.159,807.866 Z M365.607,809.14 C367.707,809.14 369.065,808.104 369.065,806.368 C369.065,805.108 368.393,804.324 367.203,803.988 C368.253,803.61 368.855,802.784 368.855,801.622 C368.855,800.012 367.581,799.06 365.607,799.06 C363.703,799.06 362.373,800.068 362.079,801.79 L363.353,802.084 C363.535,800.866 364.347,800.166 365.537,800.166 C366.797,800.166 367.511,800.768 367.511,801.818 C367.511,802.854 366.811,803.498 365.677,803.498 L364.613,803.498 L364.613,804.604 L365.705,804.604 C366.965,804.604 367.693,805.234 367.693,806.284 C367.693,807.39 366.909,808.048 365.593,808.048 C364.207,808.048 363.339,807.334 363.171,806.074 L361.855,806.326 C362.149,808.23 363.521,809.14 365.607,809.14 Z M375.593,809.14 C378.001,809.14 379.569,807.922 379.947,805.724 L378.589,805.458 C378.337,807.082 377.301,808.02 375.593,808.02 C373.549,808.02 372.373,806.508 372.373,804.114 C372.373,801.72 373.563,800.194 375.593,800.194 C377.301,800.194 378.197,801.118 378.547,802.658 L379.933,802.392 C379.429,800.264 378.001,799.06 375.593,799.06 C372.793,799.06 370.973,801.118 370.973,804.114 C370.973,807.11 372.653,809.14 375.593,809.14 Z M386.279,809.14 C388.687,809.14 390.255,807.922 390.633,805.724 L389.275,805.458 C389.023,807.082 387.987,808.02 386.279,808.02 C384.235,808.02 383.059,806.508 383.059,804.114 C383.059,801.72 384.249,800.194 386.279,800.194 C387.987,800.194 388.883,801.118 389.233,802.658 L390.619,802.392 C390.115,800.264 388.687,799.06 386.279,799.06 C383.479,799.06 381.659,801.118 381.659,804.114 C381.659,807.11 383.339,809.14 386.279,809.14 Z" id="#D3D3CC" fill="#FFFFFF" fill-rule="nonzero"></path>
            <path d="M147.165,1140 L147.851,1137.494 L150.791,1137.494 L150.105,1140 L151.477,1140 L152.163,1137.494 L154.473,1137.494 L154.473,1136.542 L152.415,1136.542 L153.199,1133.672 L155.173,1133.672 L155.173,1132.72 L153.451,1132.72 L154.137,1130.2 L152.765,1130.2 L152.079,1132.72 L149.139,1132.72 L149.825,1130.2 L148.453,1130.2 L147.767,1132.72 L145.457,1132.72 L145.457,1133.672 L147.515,1133.672 L146.731,1136.542 L144.757,1136.542 L144.757,1137.494 L146.479,1137.494 L145.793,1140 L147.165,1140 Z M151.043,1136.542 L148.103,1136.542 L148.887,1133.672 L151.827,1133.672 L151.043,1136.542 Z M164.067,1140 L164.067,1138.866 L158.775,1138.866 L158.775,1135.548 L163.395,1135.548 L163.395,1134.414 L158.775,1134.414 L158.775,1131.334 L163.997,1131.334 L163.997,1130.2 L157.403,1130.2 L157.403,1140 L164.067,1140 Z M173.115,1140 L173.115,1138.866 L167.823,1138.866 L167.823,1135.548 L172.443,1135.548 L172.443,1134.414 L167.823,1134.414 L167.823,1131.334 L173.045,1131.334 L173.045,1130.2 L166.451,1130.2 L166.451,1140 L173.115,1140 Z M179.013,1140 C182.233,1140 183.997,1138.082 183.997,1135.128 C183.997,1132.146 182.233,1130.2 179.013,1130.2 L175.499,1130.2 L175.499,1140 L179.013,1140 Z M179.013,1138.866 L176.871,1138.866 L176.871,1131.334 L179.013,1131.334 C181.379,1131.334 182.583,1132.832 182.583,1135.128 C182.583,1137.382 181.379,1138.866 179.013,1138.866 Z M187.977,1140 L187.977,1135.912 L192.597,1135.912 L192.597,1134.778 L187.977,1134.778 L187.977,1131.334 L193.199,1131.334 L193.199,1130.2 L186.605,1130.2 L186.605,1140 L187.977,1140 Z M201.715,1140 L201.715,1138.88 L196.647,1138.88 L199.279,1136.57 C200.959,1135.128 201.491,1134.204 201.491,1132.93 C201.491,1131.194 200.203,1130.06 198.173,1130.06 C196.129,1130.06 194.799,1131.222 194.659,1133.098 L195.975,1133.308 C196.031,1131.95 196.843,1131.194 198.159,1131.194 C199.363,1131.194 200.091,1131.866 200.091,1132.944 C200.091,1133.868 199.713,1134.568 198.439,1135.702 L194.841,1138.88 L194.841,1140 L201.715,1140 Z M207.025,1140.14 C209.377,1140.14 210.735,1139.048 210.735,1137.382 C210.735,1136.234 210.007,1135.38 208.775,1134.974 C209.783,1134.554 210.385,1133.756 210.385,1132.692 C210.385,1131.124 209.097,1130.06 207.025,1130.06 C204.939,1130.06 203.651,1131.124 203.651,1132.692 C203.651,1133.742 204.253,1134.554 205.275,1134.974 C204.029,1135.366 203.301,1136.234 203.301,1137.382 C203.301,1139.048 204.659,1140.14 207.025,1140.14 Z M207.025,1134.442 C205.751,1134.442 204.967,1133.826 204.967,1132.79 C204.967,1131.74 205.751,1131.096 207.025,1131.096 C208.299,1131.096 209.069,1131.74 209.069,1132.79 C209.069,1133.826 208.299,1134.442 207.025,1134.442 Z M207.025,1139.118 C205.569,1139.118 204.687,1138.446 204.687,1137.34 C204.687,1136.206 205.569,1135.534 207.025,1135.534 C208.467,1135.534 209.349,1136.206 209.349,1137.34 C209.349,1138.446 208.467,1139.118 207.025,1139.118 Z" id="#EEDF28" fill="#FFFFFF" fill-rule="nonzero"></path>
            <path d="M503.32,1140 L504.006,1137.494 L506.946,1137.494 L506.26,1140 L507.632,1140 L508.318,1137.494 L510.628,1137.494 L510.628,1136.542 L508.57,1136.542 L509.354,1133.672 L511.328,1133.672 L511.328,1132.72 L509.606,1132.72 L510.292,1130.2 L508.92,1130.2 L508.234,1132.72 L505.294,1132.72 L505.98,1130.2 L504.608,1130.2 L503.922,1132.72 L501.612,1132.72 L501.612,1133.672 L503.67,1133.672 L502.886,1136.542 L500.912,1136.542 L500.912,1137.494 L502.634,1137.494 L501.948,1140 L503.32,1140 Z M507.198,1136.542 L504.258,1136.542 L505.042,1133.672 L507.982,1133.672 L507.198,1136.542 Z M514.93,1140 L514.93,1135.912 L519.55,1135.912 L519.55,1134.778 L514.93,1134.778 L514.93,1131.334 L520.152,1131.334 L520.152,1130.2 L513.558,1130.2 L513.558,1140 L514.93,1140 Z M525.35,1140.14 C527.702,1140.14 529.06,1139.048 529.06,1137.382 C529.06,1136.234 528.332,1135.38 527.1,1134.974 C528.108,1134.554 528.71,1133.756 528.71,1132.692 C528.71,1131.124 527.422,1130.06 525.35,1130.06 C523.264,1130.06 521.976,1131.124 521.976,1132.692 C521.976,1133.742 522.578,1134.554 523.6,1134.974 C522.354,1135.366 521.626,1136.234 521.626,1137.382 C521.626,1139.048 522.984,1140.14 525.35,1140.14 Z M525.35,1134.442 C524.076,1134.442 523.292,1133.826 523.292,1132.79 C523.292,1131.74 524.076,1131.096 525.35,1131.096 C526.624,1131.096 527.394,1131.74 527.394,1132.79 C527.394,1133.826 526.624,1134.442 525.35,1134.442 Z M525.35,1139.118 C523.894,1139.118 523.012,1138.446 523.012,1137.34 C523.012,1136.206 523.894,1135.534 525.35,1135.534 C526.792,1135.534 527.674,1136.206 527.674,1137.34 C527.674,1138.446 526.792,1139.118 525.35,1139.118 Z M532.956,1140 L532.956,1135.912 L537.576,1135.912 L537.576,1134.778 L532.956,1134.778 L532.956,1131.334 L538.178,1131.334 L538.178,1130.2 L531.584,1130.2 L531.584,1140 L532.956,1140 Z M543.376,1140.14 C545.728,1140.14 547.086,1139.048 547.086,1137.382 C547.086,1136.234 546.358,1135.38 545.126,1134.974 C546.134,1134.554 546.736,1133.756 546.736,1132.692 C546.736,1131.124 545.448,1130.06 543.376,1130.06 C541.29,1130.06 540.002,1131.124 540.002,1132.692 C540.002,1133.742 540.604,1134.554 541.626,1134.974 C540.38,1135.366 539.652,1136.234 539.652,1137.382 C539.652,1139.048 541.01,1140.14 543.376,1140.14 Z M543.376,1134.442 C542.102,1134.442 541.318,1133.826 541.318,1132.79 C541.318,1131.74 542.102,1131.096 543.376,1131.096 C544.65,1131.096 545.42,1131.74 545.42,1132.79 C545.42,1133.826 544.65,1134.442 543.376,1134.442 Z M543.376,1139.118 C541.92,1139.118 541.038,1138.446 541.038,1137.34 C541.038,1136.206 541.92,1135.534 543.376,1135.534 C544.818,1135.534 545.7,1136.206 545.7,1137.34 C545.7,1138.446 544.818,1139.118 543.376,1139.118 Z M550.982,1140 L550.982,1135.912 L555.602,1135.912 L555.602,1134.778 L550.982,1134.778 L550.982,1131.334 L556.204,1131.334 L556.204,1130.2 L549.61,1130.2 L549.61,1140 L550.982,1140 Z M564.72,1140 L564.72,1138.88 L559.652,1138.88 L562.284,1136.57 C563.964,1135.128 564.496,1134.204 564.496,1132.93 C564.496,1131.194 563.208,1130.06 561.178,1130.06 C559.134,1130.06 557.804,1131.222 557.664,1133.098 L558.98,1133.308 C559.036,1131.95 559.848,1131.194 561.164,1131.194 C562.368,1131.194 563.096,1131.866 563.096,1132.944 C563.096,1133.868 562.718,1134.568 561.444,1135.702 L557.846,1138.88 L557.846,1140 L564.72,1140 Z" id="#F8F8F2" fill="#C3C3BA" fill-rule="nonzero"></path>
            <path d="M325.971,500 L326.657,497.494 L329.597,497.494 L328.911,500 L330.283,500 L330.969,497.494 L333.279,497.494 L333.279,496.542 L331.221,496.542 L332.005,493.672 L333.979,493.672 L333.979,492.72 L332.257,492.72 L332.943,490.2 L331.571,490.2 L330.885,492.72 L327.945,492.72 L328.631,490.2 L327.259,490.2 L326.573,492.72 L324.263,492.72 L324.263,493.672 L326.321,493.672 L325.537,496.542 L323.563,496.542 L323.563,497.494 L325.285,497.494 L324.599,500 L325.971,500 Z M329.849,496.542 L326.909,496.542 L327.693,493.672 L330.633,493.672 L329.849,496.542 Z M339.135,500.14 C341.487,500.14 342.845,499.048 342.845,497.382 C342.845,496.234 342.117,495.38 340.885,494.974 C341.893,494.554 342.495,493.756 342.495,492.692 C342.495,491.124 341.207,490.06 339.135,490.06 C337.049,490.06 335.761,491.124 335.761,492.692 C335.761,493.742 336.363,494.554 337.385,494.974 C336.139,495.366 335.411,496.234 335.411,497.382 C335.411,499.048 336.769,500.14 339.135,500.14 Z M339.135,494.442 C337.861,494.442 337.077,493.826 337.077,492.79 C337.077,491.74 337.861,491.096 339.135,491.096 C340.409,491.096 341.179,491.74 341.179,492.79 C341.179,493.826 340.409,494.442 339.135,494.442 Z M339.135,499.118 C337.679,499.118 336.797,498.446 336.797,497.34 C336.797,496.206 337.679,495.534 339.135,495.534 C340.577,495.534 341.459,496.206 341.459,497.34 C341.459,498.446 340.577,499.118 339.135,499.118 Z M351.613,500 L351.613,498.88 L346.545,498.88 L349.177,496.57 C350.857,495.128 351.389,494.204 351.389,492.93 C351.389,491.194 350.101,490.06 348.071,490.06 C346.027,490.06 344.697,491.222 344.557,493.098 L345.873,493.308 C345.929,491.95 346.741,491.194 348.057,491.194 C349.261,491.194 349.989,491.866 349.989,492.944 C349.989,493.868 349.611,494.568 348.337,495.702 L344.739,498.88 L344.739,500 L351.613,500 Z M356.923,500.14 C359.275,500.14 360.633,499.048 360.633,497.382 C360.633,496.234 359.905,495.38 358.673,494.974 C359.681,494.554 360.283,493.756 360.283,492.692 C360.283,491.124 358.995,490.06 356.923,490.06 C354.837,490.06 353.549,491.124 353.549,492.692 C353.549,493.742 354.151,494.554 355.173,494.974 C353.927,495.366 353.199,496.234 353.199,497.382 C353.199,499.048 354.557,500.14 356.923,500.14 Z M356.923,494.442 C355.649,494.442 354.865,493.826 354.865,492.79 C354.865,491.74 355.649,491.096 356.923,491.096 C358.197,491.096 358.967,491.74 358.967,492.79 C358.967,493.826 358.197,494.442 356.923,494.442 Z M356.923,499.118 C355.467,499.118 354.585,498.446 354.585,497.34 C354.585,496.206 355.467,495.534 356.923,495.534 C358.365,495.534 359.247,496.206 359.247,497.34 C359.247,498.446 358.365,499.118 356.923,499.118 Z M369.401,500 L369.401,498.88 L364.333,498.88 L366.965,496.57 C368.645,495.128 369.177,494.204 369.177,492.93 C369.177,491.194 367.889,490.06 365.859,490.06 C363.815,490.06 362.485,491.222 362.345,493.098 L363.661,493.308 C363.717,491.95 364.529,491.194 365.845,491.194 C367.049,491.194 367.777,491.866 367.777,492.944 C367.777,493.868 367.399,494.568 366.125,495.702 L362.527,498.88 L362.527,500 L369.401,500 Z M373.199,500 L377.259,491.334 L377.259,490.2 L370.623,490.2 L370.623,491.334 L375.831,491.334 L371.701,500 L373.199,500 Z M386.069,500 L386.069,498.866 L380.777,498.866 L380.777,495.548 L385.397,495.548 L385.397,494.414 L380.777,494.414 L380.777,491.334 L385.999,491.334 L385.999,490.2 L379.405,490.2 L379.405,500 L386.069,500 Z" id="#82827E" fill="#FFFFFF" fill-rule="nonzero"></path>
            <path d="M325.768,180 L326.454,177.494 L329.394,177.494 L328.708,180 L330.08,180 L330.766,177.494 L333.076,177.494 L333.076,176.542 L331.018,176.542 L331.802,173.672 L333.776,173.672 L333.776,172.72 L332.054,172.72 L332.74,170.2 L331.368,170.2 L330.682,172.72 L327.742,172.72 L328.428,170.2 L327.056,170.2 L326.37,172.72 L324.06,172.72 L324.06,173.672 L326.118,173.672 L325.334,176.542 L323.36,176.542 L323.36,177.494 L325.082,177.494 L324.396,180 L325.768,180 Z M329.646,176.542 L326.706,176.542 L327.49,173.672 L330.43,173.672 L329.646,176.542 Z M338.862,180.14 C340.962,180.14 342.32,179.104 342.32,177.368 C342.32,176.108 341.648,175.324 340.458,174.988 C341.508,174.61 342.11,173.784 342.11,172.622 C342.11,171.012 340.836,170.06 338.862,170.06 C336.958,170.06 335.628,171.068 335.334,172.79 L336.608,173.084 C336.79,171.866 337.602,171.166 338.792,171.166 C340.052,171.166 340.766,171.768 340.766,172.818 C340.766,173.854 340.066,174.498 338.932,174.498 L337.868,174.498 L337.868,175.604 L338.96,175.604 C340.22,175.604 340.948,176.234 340.948,177.284 C340.948,178.39 340.164,179.048 338.848,179.048 C337.462,179.048 336.594,178.334 336.426,177.074 L335.11,177.326 C335.404,179.23 336.776,180.14 338.862,180.14 Z M351.172,180 L351.172,178.88 L346.104,178.88 L348.736,176.57 C350.416,175.128 350.948,174.204 350.948,172.93 C350.948,171.194 349.66,170.06 347.63,170.06 C345.586,170.06 344.256,171.222 344.116,173.098 L345.432,173.308 C345.488,171.95 346.3,171.194 347.616,171.194 C348.82,171.194 349.548,171.866 349.548,172.944 C349.548,173.868 349.17,174.568 347.896,175.702 L344.298,178.88 L344.298,180 L351.172,180 Z M356.412,180.14 C358.512,180.14 359.87,179.104 359.87,177.368 C359.87,176.108 359.198,175.324 358.008,174.988 C359.058,174.61 359.66,173.784 359.66,172.622 C359.66,171.012 358.386,170.06 356.412,170.06 C354.508,170.06 353.178,171.068 352.884,172.79 L354.158,173.084 C354.34,171.866 355.152,171.166 356.342,171.166 C357.602,171.166 358.316,171.768 358.316,172.818 C358.316,173.854 357.616,174.498 356.482,174.498 L355.418,174.498 L355.418,175.604 L356.51,175.604 C357.77,175.604 358.498,176.234 358.498,177.284 C358.498,178.39 357.714,179.048 356.398,179.048 C355.012,179.048 354.144,178.334 353.976,177.074 L352.66,177.326 C352.954,179.23 354.326,180.14 356.412,180.14 Z M368.722,180 L368.722,178.88 L363.654,178.88 L366.286,176.57 C367.966,175.128 368.498,174.204 368.498,172.93 C368.498,171.194 367.21,170.06 365.18,170.06 C363.136,170.06 361.806,171.222 361.666,173.098 L362.982,173.308 C363.038,171.95 363.85,171.194 365.166,171.194 C366.37,171.194 367.098,171.866 367.098,172.944 C367.098,173.868 366.72,174.568 365.446,175.702 L361.848,178.88 L361.848,180 L368.722,180 Z M373.962,180.14 C376.062,180.14 377.42,179.104 377.42,177.368 C377.42,176.108 376.748,175.324 375.558,174.988 C376.608,174.61 377.21,173.784 377.21,172.622 C377.21,171.012 375.936,170.06 373.962,170.06 C372.058,170.06 370.728,171.068 370.434,172.79 L371.708,173.084 C371.89,171.866 372.702,171.166 373.892,171.166 C375.152,171.166 375.866,171.768 375.866,172.818 C375.866,173.854 375.166,174.498 374.032,174.498 L372.968,174.498 L372.968,175.604 L374.06,175.604 C375.32,175.604 376.048,176.234 376.048,177.284 C376.048,178.39 375.264,179.048 373.948,179.048 C372.562,179.048 371.694,178.334 371.526,177.074 L370.21,177.326 C370.504,179.23 371.876,180.14 373.962,180.14 Z M386.272,180 L386.272,178.88 L381.204,178.88 L383.836,176.57 C385.516,175.128 386.048,174.204 386.048,172.93 C386.048,171.194 384.76,170.06 382.73,170.06 C380.686,170.06 379.356,171.222 379.216,173.098 L380.532,173.308 C380.588,171.95 381.4,171.194 382.716,171.194 C383.92,171.194 384.648,171.866 384.648,172.944 C384.648,173.868 384.27,174.568 382.996,175.702 L379.398,178.88 L379.398,180 L386.272,180 Z" id="#323232" fill="#FFFFFF" fill-rule="nonzero"></path>
            <path d="M313.08,787 L313.08,784.44 L306.52,784.44 L306.52,773 L303.38,773 L303.38,787 L313.08,787 Z M318.28,774.72 L318.28,772 L315.26,772 L315.26,774.72 L318.28,774.72 Z M318.24,787 L318.24,776.04 L315.28,776.04 L315.28,787 L318.24,787 Z M325.86,791.2 C329.7,791.2 332,789.8 332,787.34 C332,785.5 330.68,784.44 328.32,784.38 L324.82,784.28 C324.08,784.26 323.72,784 323.72,783.48 C323.72,783.08 323.92,782.86 324.36,782.74 C324.82,782.84 325.34,782.88 325.88,782.88 C328.76,782.88 330.68,781.54 330.68,779.38 C330.68,778.86 330.58,778.4 330.36,777.98 C330.76,777.88 331.24,777.88 331.86,777.98 L331.96,775.44 C330.78,775.42 329.92,775.86 329.34,776.78 C328.48,776.18 327.28,775.84 325.88,775.84 C323,775.84 321.08,777.2 321.08,779.38 C321.08,780.58 321.68,781.52 322.68,782.12 C321.66,782.52 321.08,783.22 321.08,784.2 C321.08,785.12 321.62,785.86 322.58,786.18 C321.06,786.44 320.3,787.18 320.3,788.34 C320.3,790.24 322.28,791.2 325.86,791.2 Z M325.88,780.96 C324.76,780.96 323.98,780.38 323.98,779.38 C323.98,778.36 324.76,777.76 325.88,777.76 C327,777.76 327.76,778.36 327.76,779.38 C327.76,780.38 327,780.96 325.88,780.96 Z M326.02,789.14 C324.12,789.14 323.22,788.76 323.22,787.86 C323.22,787.2 323.68,786.82 324.56,786.76 L327.78,786.8 C328.74,786.8 329.12,787.14 329.12,787.7 C329.12,788.58 328.08,789.14 326.02,789.14 Z M336.96,787 L336.96,781.18 C336.96,779.48 337.96,778.42 339.44,778.42 C340.7,778.42 341.38,779.22 341.38,780.48 L341.38,787 L344.36,787 L344.36,779.8 C344.36,777.36 342.92,775.84 340.56,775.84 C339.04,775.84 337.76,776.56 336.96,777.82 L336.96,772 L334,772 L334,787 L336.96,787 Z M351.74,787.2 C352.48,787.2 353.2,787.12 353.88,786.98 L353.96,784.68 C353.54,784.76 353.04,784.82 352.62,784.82 C351.38,784.82 350.94,784.36 350.94,782.94 L350.94,778.34 L353.78,778.34 L353.78,776.04 L350.94,776.04 L350.94,773.32 L348.62,773.32 C348.523125,775.780625 348.40748,776.026445 347.163904,776.039406 L346.24,776.04 L346.24,778.34 L347.96,778.34 L347.96,783.5 C347.96,786.06 349.22,787.2 351.74,787.2 Z M367,787.2 C368.98,787.2 370.52,786.4 371.52,784.92 L371.72,787 L373.88,787 L373.88,779.58 L367.28,779.58 L367.28,781.98 L371.02,781.98 C370.7,783.68 369.44,784.64 367.32,784.64 C364.84,784.64 363.44,782.96 363.44,780 C363.44,777.04 364.84,775.36 367.36,775.36 C369.14,775.36 370.26,776.28 370.66,777.94 L373.68,777.28 C372.9,774.34 370.72,772.8 367.34,772.8 C363.02,772.8 360.22,775.66 360.22,780 C360.22,784.34 362.88,787.2 367,787.2 Z M379.88,787 L379.88,782.24 C379.88,780.16 380.96,779.04 382.82,779.04 C383.14,779.04 383.46,779.06 383.68,779.14 L383.76,775.88 C383.7,775.86 383.54,775.84 383.44,775.84 C382,775.84 380.62,776.88 379.8,778.42 L379.52,776.04 L376.92,776.04 L376.92,787 L379.88,787 Z M390.84,787.2 C393.92,787.2 395.56,785.9 396.14,783.74 L393.42,783.26 C393.1,784.32 392.28,784.9 390.86,784.9 C389.2,784.9 388.26,783.9 388.06,782.24 L396.12,782.24 C396.2,781.88 396.24,781.5 396.24,781.08 C396.24,777.86 394,775.84 390.82,775.84 C387.28,775.84 385.16,778.22 385.16,781.52 C385.16,784.96 387.36,787.2 390.84,787.2 Z M393.46,780.4 L388.12,780.4 C388.42,778.96 389.36,778.14 390.84,778.14 C392.28,778.14 393.28,778.92 393.46,780.4 Z M399.54,791.2 C401.64,791.2 402.8,790.08 403.88,787.2 L408.06,776.04 L405.14,776.04 L402.78,783.18 L400.2,776.04 L397.1,776.04 L401.36,786.42 C400.66,788.32 400.14,788.8 398.8,788.8 C398.5,788.8 398.22,788.78 397.94,788.72 L398.04,790.98 C398.44,791.12 398.98,791.2 399.54,791.2 Z" id="LightGrey" fill="#FFFFFF" fill-rule="nonzero"></path>
            <path d="M118.31,1118 C121.33,1118 123.09,1116.54 123.09,1114.12 C123.09,1112.46 122.05,1111.24 120.33,1110.74 C121.79,1110.12 122.59,1109.02 122.59,1107.6 C122.59,1105.34 120.93,1104 118.19,1104 L111.29,1104 L111.29,1118 L118.31,1118 Z M117.61,1109.74 L114.37,1109.74 L114.37,1106.44 L117.61,1106.44 C118.85,1106.44 119.53,1107.02 119.53,1108.08 C119.53,1109.12 118.81,1109.74 117.61,1109.74 Z M117.87,1115.56 L114.37,1115.56 L114.37,1112.16 L117.87,1112.16 C119.09,1112.16 119.89,1112.78 119.89,1113.92 C119.89,1114.96 119.19,1115.56 117.87,1115.56 Z M128.75,1118 L128.75,1113.24 C128.75,1111.16 129.83,1110.04 131.69,1110.04 C132.01,1110.04 132.33,1110.06 132.55,1110.14 L132.63,1106.88 C132.57,1106.86 132.41,1106.84 132.31,1106.84 C130.87,1106.84 129.49,1107.88 128.67,1109.42 L128.39,1107.04 L125.79,1107.04 L125.79,1118 L128.75,1118 Z M137.73,1105.72 L137.73,1103 L134.71,1103 L134.71,1105.72 L137.73,1105.72 Z M137.69,1118 L137.69,1107.04 L134.73,1107.04 L134.73,1118 L137.69,1118 Z M145.31,1122.2 C149.15,1122.2 151.45,1120.8 151.45,1118.34 C151.45,1116.5 150.13,1115.44 147.77,1115.38 L144.27,1115.28 C143.53,1115.26 143.17,1115 143.17,1114.48 C143.17,1114.08 143.37,1113.86 143.81,1113.74 C144.27,1113.84 144.79,1113.88 145.33,1113.88 C148.21,1113.88 150.13,1112.54 150.13,1110.38 C150.13,1109.86 150.03,1109.4 149.81,1108.98 C150.21,1108.88 150.69,1108.88 151.31,1108.98 L151.41,1106.44 C150.23,1106.42 149.37,1106.86 148.79,1107.78 C147.93,1107.18 146.73,1106.84 145.33,1106.84 C142.45,1106.84 140.53,1108.2 140.53,1110.38 C140.53,1111.58 141.13,1112.52 142.13,1113.12 C141.11,1113.52 140.53,1114.22 140.53,1115.2 C140.53,1116.12 141.07,1116.86 142.03,1117.18 C140.51,1117.44 139.75,1118.18 139.75,1119.34 C139.75,1121.24 141.73,1122.2 145.31,1122.2 Z M145.33,1111.96 C144.21,1111.96 143.43,1111.38 143.43,1110.38 C143.43,1109.36 144.21,1108.76 145.33,1108.76 C146.45,1108.76 147.21,1109.36 147.21,1110.38 C147.21,1111.38 146.45,1111.96 145.33,1111.96 Z M145.47,1120.14 C143.57,1120.14 142.67,1119.76 142.67,1118.86 C142.67,1118.2 143.13,1117.82 144.01,1117.76 L147.23,1117.8 C148.19,1117.8 148.57,1118.14 148.57,1118.7 C148.57,1119.58 147.53,1120.14 145.47,1120.14 Z M156.41,1118 L156.41,1112.18 C156.41,1110.48 157.41,1109.42 158.89,1109.42 C160.15,1109.42 160.83,1110.22 160.83,1111.48 L160.83,1118 L163.81,1118 L163.81,1110.8 C163.81,1108.36 162.37,1106.84 160.01,1106.84 C158.49,1106.84 157.21,1107.56 156.41,1108.82 L156.41,1103 L153.45,1103 L153.45,1118 L156.41,1118 Z M171.19,1118.2 C171.93,1118.2 172.65,1118.12 173.33,1117.98 L173.41,1115.68 C172.99,1115.76 172.49,1115.82 172.07,1115.82 C170.83,1115.82 170.39,1115.36 170.39,1113.94 L170.39,1109.34 L173.23,1109.34 L173.23,1107.04 L170.39,1107.04 L170.39,1104.32 L168.07,1104.32 C167.973125,1106.78063 167.85748,1107.02645 166.613904,1107.03941 L165.69,1107.04 L165.69,1109.34 L167.41,1109.34 L167.41,1114.5 C167.41,1117.06 168.67,1118.2 171.19,1118.2 Z M186.87,1118 L186.87,1112.52 L191.95,1104 L188.49,1104 L185.43,1109.74 L182.37,1104 L178.81,1104 L183.73,1112.4 L183.73,1118 L186.87,1118 Z M197.21,1118.2 C200.29,1118.2 201.93,1116.9 202.51,1114.74 L199.79,1114.26 C199.47,1115.32 198.65,1115.9 197.23,1115.9 C195.57,1115.9 194.63,1114.9 194.43,1113.24 L202.49,1113.24 C202.57,1112.88 202.61,1112.5 202.61,1112.08 C202.61,1108.86 200.37,1106.84 197.19,1106.84 C193.65,1106.84 191.53,1109.22 191.53,1112.52 C191.53,1115.96 193.73,1118.2 197.21,1118.2 Z M199.83,1111.4 L194.49,1111.4 C194.79,1109.96 195.73,1109.14 197.21,1109.14 C198.65,1109.14 199.65,1109.92 199.83,1111.4 Z M208.15,1118 L208.15,1103 L205.19,1103 L205.19,1118 L208.15,1118 Z M214.45,1118 L214.45,1103 L211.49,1103 L211.49,1118 L214.45,1118 Z M222.73,1118.2 C226.23,1118.2 228.33,1116 228.33,1112.52 C228.33,1109.04 226.23,1106.84 222.73,1106.84 C219.27,1106.84 217.15,1109.04 217.15,1112.52 C217.15,1116 219.27,1118.2 222.73,1118.2 Z M222.73,1115.8 C221.03,1115.8 220.19,1114.66 220.19,1112.52 C220.19,1110.38 221.01,1109.24 222.73,1109.24 C224.47,1109.24 225.29,1110.38 225.29,1112.52 C225.29,1114.66 224.47,1115.8 222.73,1115.8 Z M235.33,1118 L237.79,1110.74 L240.33,1118 L242.55,1118 L246.13,1107.04 L243.37,1107.04 L241.35,1114.14 L238.91,1107.04 L236.73,1107.04 L234.47,1114.2 L232.43,1107.04 L229.53,1107.04 L233.09,1118 L235.33,1118 Z" id="BrightYellow" fill="#FFFFFF" fill-rule="nonzero"></path>
            <path d="M490.92,1118.2 C495.2,1118.2 497.92,1115.3 497.92,1111 C497.92,1106.68 495.2,1103.8 490.92,1103.8 C486.66,1103.8 483.94,1106.7 483.94,1111 C483.94,1115.3 486.66,1118.2 490.92,1118.2 Z M490.92,1115.64 C488.46,1115.64 487.16,1113.94 487.16,1111 C487.16,1108.08 488.46,1106.36 490.92,1106.36 C493.4,1106.36 494.7,1108.08 494.7,1111 C494.7,1113.92 493.4,1115.64 490.92,1115.64 Z M504.02,1118 L504.02,1109.34 L506.78,1109.34 L506.78,1107.04 L504.02,1107.04 L504.02,1106.88 C504.02,1105.62 504.58,1105.2 505.62,1105.2 C506.02,1105.2 506.34,1105.24 506.72,1105.34 L506.82,1102.98 C506.36,1102.88 505.72,1102.8 505.14,1102.8 C502.5,1102.8 501.06,1104.2 501.06,1106.9 L501.06,1107.04 L499.34,1107.04 L499.34,1109.34 L501.06,1109.34 L501.06,1118 L504.02,1118 Z M512.1,1118 L512.1,1109.34 L514.86,1109.34 L514.86,1107.04 L512.1,1107.04 L512.1,1106.88 C512.1,1105.62 512.66,1105.2 513.7,1105.2 C514.1,1105.2 514.42,1105.24 514.8,1105.34 L514.9,1102.98 C514.44,1102.88 513.8,1102.8 513.22,1102.8 C510.58,1102.8 509.14,1104.2 509.14,1106.9 L509.14,1107.04 L507.42,1107.04 L507.42,1109.34 L509.14,1109.34 L509.14,1118 L512.1,1118 Z M527.32,1118 L530.48,1108.16 L533.66,1118 L536.76,1118 L541.04,1104 L537.78,1104 L535.12,1114.08 L532,1104 L529.08,1104 L526,1113.96 L523.38,1104 L520.06,1104 L524.34,1118 L527.32,1118 Z M545.98,1118 L545.98,1112.18 C545.98,1110.48 546.98,1109.42 548.46,1109.42 C549.72,1109.42 550.4,1110.22 550.4,1111.48 L550.4,1118 L553.38,1118 L553.38,1110.8 C553.38,1108.36 551.94,1106.84 549.58,1106.84 C548.06,1106.84 546.78,1107.56 545.98,1108.82 L545.98,1103 L543.02,1103 L543.02,1118 L545.98,1118 Z M559.58,1105.72 L559.58,1103 L556.56,1103 L556.56,1105.72 L559.58,1105.72 Z M559.54,1118 L559.54,1107.04 L556.58,1107.04 L556.58,1118 L559.54,1118 Z M567.06,1118.2 C567.8,1118.2 568.52,1118.12 569.2,1117.98 L569.28,1115.68 C568.86,1115.76 568.36,1115.82 567.94,1115.82 C566.7,1115.82 566.26,1115.36 566.26,1113.94 L566.26,1109.34 L569.1,1109.34 L569.1,1107.04 L566.26,1107.04 L566.26,1104.32 L563.94,1104.32 C563.843125,1106.78063 563.72748,1107.02645 562.483904,1107.03941 L561.56,1107.04 L561.56,1109.34 L563.28,1109.34 L563.28,1114.5 C563.28,1117.06 564.54,1118.2 567.06,1118.2 Z M576.58,1118.2 C579.66,1118.2 581.3,1116.9 581.88,1114.74 L579.16,1114.26 C578.84,1115.32 578.02,1115.9 576.6,1115.9 C574.94,1115.9 574,1114.9 573.8,1113.24 L581.86,1113.24 C581.94,1112.88 581.98,1112.5 581.98,1112.08 C581.98,1108.86 579.74,1106.84 576.56,1106.84 C573.02,1106.84 570.9,1109.22 570.9,1112.52 C570.9,1115.96 573.1,1118.2 576.58,1118.2 Z M579.2,1111.4 L573.86,1111.4 C574.16,1109.96 575.1,1109.14 576.58,1109.14 C578.02,1109.14 579.02,1109.92 579.2,1111.4 Z" id="OffWhite" fill="#C3C3BA" fill-rule="nonzero"></path>
            <path d="M313.02,478 L313.02,468.46 L316.58,475.4 L319.32,475.4 L322.8,468.46 L322.8,478 L325.62,478 L325.62,464 L322.2,464 L317.98,472.48 L313.72,464 L310.22,464 L310.22,478 L313.02,478 Z M332.18,465.72 L332.18,463 L329.16,463 L329.16,465.72 L332.18,465.72 Z M332.14,478 L332.14,467.04 L329.18,467.04 L329.18,478 L332.14,478 Z M339.66,478.2 C341.18,478.2 342.44,477.4 343.24,476.14 L343.46,478 L346.06,478 L346.06,463 L343.1,463 L343.1,468.68 C342.3,467.54 341.1,466.84 339.66,466.84 C336.74,466.84 334.84,469.14 334.84,472.52 C334.84,475.9 336.74,478.2 339.66,478.2 Z M340.48,475.76 C338.82,475.76 337.88,474.48 337.88,472.52 C337.88,470.56 338.82,469.28 340.48,469.28 C342.12,469.28 343.1,470.56 343.1,472.52 C343.1,474.48 342.12,475.76 340.48,475.76 Z M360.16,478.2 C362.14,478.2 363.68,477.4 364.68,475.92 L364.88,478 L367.04,478 L367.04,470.58 L360.44,470.58 L360.44,472.98 L364.18,472.98 C363.86,474.68 362.6,475.64 360.48,475.64 C358,475.64 356.6,473.96 356.6,471 C356.6,468.04 358,466.36 360.52,466.36 C362.3,466.36 363.42,467.28 363.82,468.94 L366.84,468.28 C366.06,465.34 363.88,463.8 360.5,463.8 C356.18,463.8 353.38,466.66 353.38,471 C353.38,475.34 356.04,478.2 360.16,478.2 Z M373.04,478 L373.04,473.24 C373.04,471.16 374.12,470.04 375.98,470.04 C376.3,470.04 376.62,470.06 376.84,470.14 L376.92,466.88 C376.86,466.86 376.7,466.84 376.6,466.84 C375.16,466.84 373.78,467.88 372.96,469.42 L372.68,467.04 L370.08,467.04 L370.08,478 L373.04,478 Z M384,478.2 C387.08,478.2 388.72,476.9 389.3,474.74 L386.58,474.26 C386.26,475.32 385.44,475.9 384.02,475.9 C382.36,475.9 381.42,474.9 381.22,473.24 L389.28,473.24 C389.36,472.88 389.4,472.5 389.4,472.08 C389.4,468.86 387.16,466.84 383.98,466.84 C380.44,466.84 378.32,469.22 378.32,472.52 C378.32,475.96 380.52,478.2 384,478.2 Z M386.62,471.4 L381.28,471.4 C381.58,469.96 382.52,469.14 384,469.14 C385.44,469.14 386.44,469.92 386.62,471.4 Z M392.7,482.2 C394.8,482.2 395.96,481.08 397.04,478.2 L401.22,467.04 L398.3,467.04 L395.94,474.18 L393.36,467.04 L390.26,467.04 L394.52,477.42 C393.82,479.32 393.3,479.8 391.96,479.8 C391.66,479.8 391.38,479.78 391.1,479.72 L391.2,481.98 C391.6,482.12 392.14,482.2 392.7,482.2 Z" id="MidGrey" fill="#FFFFFF" fill-rule="nonzero"></path>
            <path d="M310.89,158 C315.47,158 318.13,155.36 318.13,151.06 C318.13,146.68 315.47,144 310.89,144 L305.23,144 L305.23,158 L310.89,158 Z M310.89,155.44 L308.37,155.44 L308.37,146.56 L310.89,146.56 C313.51,146.56 314.89,148.22 314.89,151.06 C314.89,153.82 313.51,155.44 310.89,155.44 Z M323.51,158.2 C325.11,158.2 326.37,157.52 327.17,156.28 C327.31,157.56 328.11,158.18 329.61,158.18 C329.93,158.18 330.47,158.08 330.79,157.96 L330.85,155.94 C330.77,155.96 330.61,155.98 330.49,155.98 C330.05,155.98 329.83,155.76 329.83,155.26 L329.83,151 C329.83,148.22 328.17,146.84 325.19,146.84 C322.41,146.84 320.67,148.06 320.19,150.48 L322.91,150.86 C323.01,149.66 323.81,149.04 325.11,149.04 C326.41,149.04 327.13,149.7 327.13,151.16 L324.15,151.5 C321.17,151.82 319.83,152.92 319.83,154.96 C319.83,156.94 321.27,158.2 323.51,158.2 Z M324.13,155.94 C323.11,155.94 322.59,155.54 322.59,154.72 C322.59,153.98 323.15,153.52 324.23,153.4 L327.15,153.04 L327.15,153.3 C327.15,154.78 325.83,155.94 324.13,155.94 Z M336.03,158 L336.03,153.24 C336.03,151.16 337.11,150.04 338.97,150.04 C339.29,150.04 339.61,150.06 339.83,150.14 L339.91,146.88 C339.85,146.86 339.69,146.84 339.59,146.84 C338.15,146.84 336.77,147.88 335.95,149.42 L335.67,147.04 L333.07,147.04 L333.07,158 L336.03,158 Z M344.95,158 L344.95,154.74 L345.77,153.86 L349.07,158 L352.71,158 L347.67,151.84 L352.21,147.04 L348.79,147.04 L344.95,151.22 L344.95,143 L342.01,143 L342.01,158 L344.95,158 Z M365.15,158.2 C367.13,158.2 368.67,157.4 369.67,155.92 L369.87,158 L372.03,158 L372.03,150.58 L365.43,150.58 L365.43,152.98 L369.17,152.98 C368.85,154.68 367.59,155.64 365.47,155.64 C362.99,155.64 361.59,153.96 361.59,151 C361.59,148.04 362.99,146.36 365.51,146.36 C367.29,146.36 368.41,147.28 368.81,148.94 L371.83,148.28 C371.05,145.34 368.87,143.8 365.49,143.8 C361.17,143.8 358.37,146.66 358.37,151 C358.37,155.34 361.03,158.2 365.15,158.2 Z M378.03,158 L378.03,153.24 C378.03,151.16 379.11,150.04 380.97,150.04 C381.29,150.04 381.61,150.06 381.83,150.14 L381.91,146.88 C381.85,146.86 381.69,146.84 381.59,146.84 C380.15,146.84 378.77,147.88 377.95,149.42 L377.67,147.04 L375.07,147.04 L375.07,158 L378.03,158 Z M388.99,158.2 C392.07,158.2 393.71,156.9 394.29,154.74 L391.57,154.26 C391.25,155.32 390.43,155.9 389.01,155.9 C387.35,155.9 386.41,154.9 386.21,153.24 L394.27,153.24 C394.35,152.88 394.39,152.5 394.39,152.08 C394.39,148.86 392.15,146.84 388.97,146.84 C385.43,146.84 383.31,149.22 383.31,152.52 C383.31,155.96 385.51,158.2 388.99,158.2 Z M391.61,151.4 L386.27,151.4 C386.57,149.96 387.51,149.14 388.99,149.14 C390.43,149.14 391.43,149.92 391.61,151.4 Z M397.69,162.2 C399.79,162.2 400.95,161.08 402.03,158.2 L406.21,147.04 L403.29,147.04 L400.93,154.18 L398.35,147.04 L395.25,147.04 L399.51,157.42 C398.81,159.32 398.29,159.8 396.95,159.8 C396.65,159.8 396.37,159.78 396.09,159.72 L396.19,161.98 C396.59,162.12 397.13,162.2 397.69,162.2 Z" id="DarkGrey" fill="#FFFFFF" fill-rule="nonzero"></path>
        </g>
    </g>
</svg>