<?xml version="1.0" encoding="UTF-8"?>
<svg width="1420px" height="960px" viewBox="0 0 1420 960" version="1.1" xmlns="http://www.w3.org/2000/svg" xmlns:xlink="http://www.w3.org/1999/xlink">
    <title>Group 2</title>
    <g id="Cases" stroke="none" stroke-width="1" fill="none" fill-rule="evenodd">
        <g id="Thies-Rätzke-(Desktop)" transform="translate(-130.000000, -8040.000000)">
            <g id="Group-2" transform="translate(130.000000, 8040.000000)">
                <rect id="Rectangle" fill="#323232" x="0" y="0" width="710" height="960"></rect>
                <rect id="Rectangle" fill="#D3D3CC" x="710" y="0" width="710" height="320"></rect>
                <rect id="Rectangle" fill="#EEDF28" x="710" y="640" width="355" height="320"></rect>
                <rect id="Rectangle" fill="#82827E" x="710" y="0" width="710" height="320"></rect>
                <rect id="Rectangle" fill="#D3D3CC" x="710" y="320" width="710" height="320"></rect>
                <rect id="Rectangle" fill="#F8F8F2" x="1065" y="640" width="355" height="320"></rect>
                <path d="M325.768,489 L326.454,486.494 L329.394,486.494 L328.708,489 L330.08,489 L330.766,486.494 L333.076,486.494 L333.076,485.542 L331.018,485.542 L331.802,482.672 L333.776,482.672 L333.776,481.72 L332.054,481.72 L332.74,479.2 L331.368,479.2 L330.682,481.72 L327.742,481.72 L328.428,479.2 L327.056,479.2 L326.37,481.72 L324.06,481.72 L324.06,482.672 L326.118,482.672 L325.334,485.542 L323.36,485.542 L323.36,486.494 L325.082,486.494 L324.396,489 L325.768,489 Z M329.646,485.542 L326.706,485.542 L327.49,482.672 L330.43,482.672 L329.646,485.542 Z M338.862,489.14 C340.962,489.14 342.32,488.104 342.32,486.368 C342.32,485.108 341.648,484.324 340.458,483.988 C341.508,483.61 342.11,482.784 342.11,481.622 C342.11,480.012 340.836,479.06 338.862,479.06 C336.958,479.06 335.628,480.068 335.334,481.79 L336.608,482.084 C336.79,480.866 337.602,480.166 338.792,480.166 C340.052,480.166 340.766,480.768 340.766,481.818 C340.766,482.854 340.066,483.498 338.932,483.498 L337.868,483.498 L337.868,484.604 L338.96,484.604 C340.22,484.604 340.948,485.234 340.948,486.284 C340.948,487.39 340.164,488.048 338.848,488.048 C337.462,488.048 336.594,487.334 336.426,486.074 L335.11,486.326 C335.404,488.23 336.776,489.14 338.862,489.14 Z M351.172,489 L351.172,487.88 L346.104,487.88 L348.736,485.57 C350.416,484.128 350.948,483.204 350.948,481.93 C350.948,480.194 349.66,479.06 347.63,479.06 C345.586,479.06 344.256,480.222 344.116,482.098 L345.432,482.308 C345.488,480.95 346.3,480.194 347.616,480.194 C348.82,480.194 349.548,480.866 349.548,481.944 C349.548,482.868 349.17,483.568 347.896,484.702 L344.298,487.88 L344.298,489 L351.172,489 Z M356.412,489.14 C358.512,489.14 359.87,488.104 359.87,486.368 C359.87,485.108 359.198,484.324 358.008,483.988 C359.058,483.61 359.66,482.784 359.66,481.622 C359.66,480.012 358.386,479.06 356.412,479.06 C354.508,479.06 353.178,480.068 352.884,481.79 L354.158,482.084 C354.34,480.866 355.152,480.166 356.342,480.166 C357.602,480.166 358.316,480.768 358.316,481.818 C358.316,482.854 357.616,483.498 356.482,483.498 L355.418,483.498 L355.418,484.604 L356.51,484.604 C357.77,484.604 358.498,485.234 358.498,486.284 C358.498,487.39 357.714,488.048 356.398,488.048 C355.012,488.048 354.144,487.334 353.976,486.074 L352.66,486.326 C352.954,488.23 354.326,489.14 356.412,489.14 Z M368.722,489 L368.722,487.88 L363.654,487.88 L366.286,485.57 C367.966,484.128 368.498,483.204 368.498,481.93 C368.498,480.194 367.21,479.06 365.18,479.06 C363.136,479.06 361.806,480.222 361.666,482.098 L362.982,482.308 C363.038,480.95 363.85,480.194 365.166,480.194 C366.37,480.194 367.098,480.866 367.098,481.944 C367.098,482.868 366.72,483.568 365.446,484.702 L361.848,487.88 L361.848,489 L368.722,489 Z M373.962,489.14 C376.062,489.14 377.42,488.104 377.42,486.368 C377.42,485.108 376.748,484.324 375.558,483.988 C376.608,483.61 377.21,482.784 377.21,481.622 C377.21,480.012 375.936,479.06 373.962,479.06 C372.058,479.06 370.728,480.068 370.434,481.79 L371.708,482.084 C371.89,480.866 372.702,480.166 373.892,480.166 C375.152,480.166 375.866,480.768 375.866,481.818 C375.866,482.854 375.166,483.498 374.032,483.498 L372.968,483.498 L372.968,484.604 L374.06,484.604 C375.32,484.604 376.048,485.234 376.048,486.284 C376.048,487.39 375.264,488.048 373.948,488.048 C372.562,488.048 371.694,487.334 371.526,486.074 L370.21,486.326 C370.504,488.23 371.876,489.14 373.962,489.14 Z M386.272,489 L386.272,487.88 L381.204,487.88 L383.836,485.57 C385.516,484.128 386.048,483.204 386.048,481.93 C386.048,480.194 384.76,479.06 382.73,479.06 C380.686,479.06 379.356,480.222 379.216,482.098 L380.532,482.308 C380.588,480.95 381.4,480.194 382.716,480.194 C383.92,480.194 384.648,480.866 384.648,481.944 C384.648,482.868 384.27,483.568 382.996,484.702 L379.398,487.88 L379.398,489 L386.272,489 Z" id="#323232" fill="#FFFFFF" fill-rule="nonzero"></path>
                <path d="M1031.379,489 L1032.065,486.494 L1035.005,486.494 L1034.319,489 L1035.691,489 L1036.377,486.494 L1038.687,486.494 L1038.687,485.542 L1036.629,485.542 L1037.413,482.672 L1039.387,482.672 L1039.387,481.72 L1037.665,481.72 L1038.351,479.2 L1036.979,479.2 L1036.293,481.72 L1033.353,481.72 L1034.039,479.2 L1032.667,479.2 L1031.981,481.72 L1029.671,481.72 L1029.671,482.672 L1031.729,482.672 L1030.945,485.542 L1028.971,485.542 L1028.971,486.494 L1030.693,486.494 L1030.007,489 L1031.379,489 Z M1035.257,485.542 L1032.317,485.542 L1033.101,482.672 L1036.041,482.672 L1035.257,485.542 Z M1045.131,489 C1048.351,489 1050.115,487.082 1050.115,484.128 C1050.115,481.146 1048.351,479.2 1045.131,479.2 L1041.617,479.2 L1041.617,489 L1045.131,489 Z M1045.131,487.866 L1042.989,487.866 L1042.989,480.334 L1045.131,480.334 C1047.497,480.334 1048.701,481.832 1048.701,484.128 C1048.701,486.382 1047.497,487.866 1045.131,487.866 Z M1055.579,489.14 C1057.679,489.14 1059.037,488.104 1059.037,486.368 C1059.037,485.108 1058.365,484.324 1057.175,483.988 C1058.225,483.61 1058.827,482.784 1058.827,481.622 C1058.827,480.012 1057.553,479.06 1055.579,479.06 C1053.675,479.06 1052.345,480.068 1052.051,481.79 L1053.325,482.084 C1053.507,480.866 1054.319,480.166 1055.509,480.166 C1056.769,480.166 1057.483,480.768 1057.483,481.818 C1057.483,482.854 1056.783,483.498 1055.649,483.498 L1054.585,483.498 L1054.585,484.604 L1055.677,484.604 C1056.937,484.604 1057.665,485.234 1057.665,486.284 C1057.665,487.39 1056.881,488.048 1055.565,488.048 C1054.179,488.048 1053.311,487.334 1053.143,486.074 L1051.827,486.326 C1052.121,488.23 1053.493,489.14 1055.579,489.14 Z M1065.159,489 C1068.379,489 1070.143,487.082 1070.143,484.128 C1070.143,481.146 1068.379,479.2 1065.159,479.2 L1061.645,479.2 L1061.645,489 L1065.159,489 Z M1065.159,487.866 L1063.017,487.866 L1063.017,480.334 L1065.159,480.334 C1067.525,480.334 1068.729,481.832 1068.729,484.128 C1068.729,486.382 1067.525,487.866 1065.159,487.866 Z M1075.607,489.14 C1077.707,489.14 1079.065,488.104 1079.065,486.368 C1079.065,485.108 1078.393,484.324 1077.203,483.988 C1078.253,483.61 1078.855,482.784 1078.855,481.622 C1078.855,480.012 1077.581,479.06 1075.607,479.06 C1073.703,479.06 1072.373,480.068 1072.079,481.79 L1073.353,482.084 C1073.535,480.866 1074.347,480.166 1075.537,480.166 C1076.797,480.166 1077.511,480.768 1077.511,481.818 C1077.511,482.854 1076.811,483.498 1075.677,483.498 L1074.613,483.498 L1074.613,484.604 L1075.705,484.604 C1076.965,484.604 1077.693,485.234 1077.693,486.284 C1077.693,487.39 1076.909,488.048 1075.593,488.048 C1074.207,488.048 1073.339,487.334 1073.171,486.074 L1071.855,486.326 C1072.149,488.23 1073.521,489.14 1075.607,489.14 Z M1085.593,489.14 C1088.001,489.14 1089.569,487.922 1089.947,485.724 L1088.589,485.458 C1088.337,487.082 1087.301,488.02 1085.593,488.02 C1083.549,488.02 1082.373,486.508 1082.373,484.114 C1082.373,481.72 1083.563,480.194 1085.593,480.194 C1087.301,480.194 1088.197,481.118 1088.547,482.658 L1089.933,482.392 C1089.429,480.264 1088.001,479.06 1085.593,479.06 C1082.793,479.06 1080.973,481.118 1080.973,484.114 C1080.973,487.11 1082.653,489.14 1085.593,489.14 Z M1096.279,489.14 C1098.687,489.14 1100.255,487.922 1100.633,485.724 L1099.275,485.458 C1099.023,487.082 1097.987,488.02 1096.279,488.02 C1094.235,488.02 1093.059,486.508 1093.059,484.114 C1093.059,481.72 1094.249,480.194 1096.279,480.194 C1097.987,480.194 1098.883,481.118 1099.233,482.658 L1100.619,482.392 C1100.115,480.264 1098.687,479.06 1096.279,479.06 C1093.479,479.06 1091.659,481.118 1091.659,484.114 C1091.659,487.11 1093.339,489.14 1096.279,489.14 Z" id="#D3D3CC" fill="#FFFFFF" fill-rule="nonzero"></path>
                <path d="M857.165,820 L857.851,817.494 L860.791,817.494 L860.105,820 L861.477,820 L862.163,817.494 L864.473,817.494 L864.473,816.542 L862.415,816.542 L863.199,813.672 L865.173,813.672 L865.173,812.72 L863.451,812.72 L864.137,810.2 L862.765,810.2 L862.079,812.72 L859.139,812.72 L859.825,810.2 L858.453,810.2 L857.767,812.72 L855.457,812.72 L855.457,813.672 L857.515,813.672 L856.731,816.542 L854.757,816.542 L854.757,817.494 L856.479,817.494 L855.793,820 L857.165,820 Z M861.043,816.542 L858.103,816.542 L858.887,813.672 L861.827,813.672 L861.043,816.542 Z M874.067,820 L874.067,818.866 L868.775,818.866 L868.775,815.548 L873.395,815.548 L873.395,814.414 L868.775,814.414 L868.775,811.334 L873.997,811.334 L873.997,810.2 L867.403,810.2 L867.403,820 L874.067,820 Z M883.115,820 L883.115,818.866 L877.823,818.866 L877.823,815.548 L882.443,815.548 L882.443,814.414 L877.823,814.414 L877.823,811.334 L883.045,811.334 L883.045,810.2 L876.451,810.2 L876.451,820 L883.115,820 Z M889.013,820 C892.233,820 893.997,818.082 893.997,815.128 C893.997,812.146 892.233,810.2 889.013,810.2 L885.499,810.2 L885.499,820 L889.013,820 Z M889.013,818.866 L886.871,818.866 L886.871,811.334 L889.013,811.334 C891.379,811.334 892.583,812.832 892.583,815.128 C892.583,817.382 891.379,818.866 889.013,818.866 Z M897.977,820 L897.977,815.912 L902.597,815.912 L902.597,814.778 L897.977,814.778 L897.977,811.334 L903.199,811.334 L903.199,810.2 L896.605,810.2 L896.605,820 L897.977,820 Z M911.715,820 L911.715,818.88 L906.647,818.88 L909.279,816.57 C910.959,815.128 911.491,814.204 911.491,812.93 C911.491,811.194 910.203,810.06 908.173,810.06 C906.129,810.06 904.799,811.222 904.659,813.098 L905.975,813.308 C906.031,811.95 906.843,811.194 908.159,811.194 C909.363,811.194 910.091,811.866 910.091,812.944 C910.091,813.868 909.713,814.568 908.439,815.702 L904.841,818.88 L904.841,820 L911.715,820 Z M917.025,820.14 C919.377,820.14 920.735,819.048 920.735,817.382 C920.735,816.234 920.007,815.38 918.775,814.974 C919.783,814.554 920.385,813.756 920.385,812.692 C920.385,811.124 919.097,810.06 917.025,810.06 C914.939,810.06 913.651,811.124 913.651,812.692 C913.651,813.742 914.253,814.554 915.275,814.974 C914.029,815.366 913.301,816.234 913.301,817.382 C913.301,819.048 914.659,820.14 917.025,820.14 Z M917.025,814.442 C915.751,814.442 914.967,813.826 914.967,812.79 C914.967,811.74 915.751,811.096 917.025,811.096 C918.299,811.096 919.069,811.74 919.069,812.79 C919.069,813.826 918.299,814.442 917.025,814.442 Z M917.025,819.118 C915.569,819.118 914.687,818.446 914.687,817.34 C914.687,816.206 915.569,815.534 917.025,815.534 C918.467,815.534 919.349,816.206 919.349,817.34 C919.349,818.446 918.467,819.118 917.025,819.118 Z" id="#EEDF28" fill="#FFFFFF" fill-rule="nonzero"></path>
                <path d="M1213.32,820 L1214.006,817.494 L1216.946,817.494 L1216.26,820 L1217.632,820 L1218.318,817.494 L1220.628,817.494 L1220.628,816.542 L1218.57,816.542 L1219.354,813.672 L1221.328,813.672 L1221.328,812.72 L1219.606,812.72 L1220.292,810.2 L1218.92,810.2 L1218.234,812.72 L1215.294,812.72 L1215.98,810.2 L1214.608,810.2 L1213.922,812.72 L1211.612,812.72 L1211.612,813.672 L1213.67,813.672 L1212.886,816.542 L1210.912,816.542 L1210.912,817.494 L1212.634,817.494 L1211.948,820 L1213.32,820 Z M1217.198,816.542 L1214.258,816.542 L1215.042,813.672 L1217.982,813.672 L1217.198,816.542 Z M1224.93,820 L1224.93,815.912 L1229.55,815.912 L1229.55,814.778 L1224.93,814.778 L1224.93,811.334 L1230.152,811.334 L1230.152,810.2 L1223.558,810.2 L1223.558,820 L1224.93,820 Z M1235.35,820.14 C1237.702,820.14 1239.06,819.048 1239.06,817.382 C1239.06,816.234 1238.332,815.38 1237.1,814.974 C1238.108,814.554 1238.71,813.756 1238.71,812.692 C1238.71,811.124 1237.422,810.06 1235.35,810.06 C1233.264,810.06 1231.976,811.124 1231.976,812.692 C1231.976,813.742 1232.578,814.554 1233.6,814.974 C1232.354,815.366 1231.626,816.234 1231.626,817.382 C1231.626,819.048 1232.984,820.14 1235.35,820.14 Z M1235.35,814.442 C1234.076,814.442 1233.292,813.826 1233.292,812.79 C1233.292,811.74 1234.076,811.096 1235.35,811.096 C1236.624,811.096 1237.394,811.74 1237.394,812.79 C1237.394,813.826 1236.624,814.442 1235.35,814.442 Z M1235.35,819.118 C1233.894,819.118 1233.012,818.446 1233.012,817.34 C1233.012,816.206 1233.894,815.534 1235.35,815.534 C1236.792,815.534 1237.674,816.206 1237.674,817.34 C1237.674,818.446 1236.792,819.118 1235.35,819.118 Z M1242.956,820 L1242.956,815.912 L1247.576,815.912 L1247.576,814.778 L1242.956,814.778 L1242.956,811.334 L1248.178,811.334 L1248.178,810.2 L1241.584,810.2 L1241.584,820 L1242.956,820 Z M1253.376,820.14 C1255.728,820.14 1257.086,819.048 1257.086,817.382 C1257.086,816.234 1256.358,815.38 1255.126,814.974 C1256.134,814.554 1256.736,813.756 1256.736,812.692 C1256.736,811.124 1255.448,810.06 1253.376,810.06 C1251.29,810.06 1250.002,811.124 1250.002,812.692 C1250.002,813.742 1250.604,814.554 1251.626,814.974 C1250.38,815.366 1249.652,816.234 1249.652,817.382 C1249.652,819.048 1251.01,820.14 1253.376,820.14 Z M1253.376,814.442 C1252.102,814.442 1251.318,813.826 1251.318,812.79 C1251.318,811.74 1252.102,811.096 1253.376,811.096 C1254.65,811.096 1255.42,811.74 1255.42,812.79 C1255.42,813.826 1254.65,814.442 1253.376,814.442 Z M1253.376,819.118 C1251.92,819.118 1251.038,818.446 1251.038,817.34 C1251.038,816.206 1251.92,815.534 1253.376,815.534 C1254.818,815.534 1255.7,816.206 1255.7,817.34 C1255.7,818.446 1254.818,819.118 1253.376,819.118 Z M1260.982,820 L1260.982,815.912 L1265.602,815.912 L1265.602,814.778 L1260.982,814.778 L1260.982,811.334 L1266.204,811.334 L1266.204,810.2 L1259.61,810.2 L1259.61,820 L1260.982,820 Z M1274.72,820 L1274.72,818.88 L1269.652,818.88 L1272.284,816.57 C1273.964,815.128 1274.496,814.204 1274.496,812.93 C1274.496,811.194 1273.208,810.06 1271.178,810.06 C1269.134,810.06 1267.804,811.222 1267.664,813.098 L1268.98,813.308 C1269.036,811.95 1269.848,811.194 1271.164,811.194 C1272.368,811.194 1273.096,811.866 1273.096,812.944 C1273.096,813.868 1272.718,814.568 1271.444,815.702 L1267.846,818.88 L1267.846,820 L1274.72,820 Z" id="#F8F8F2" fill="#C3C3BA" fill-rule="nonzero"></path>
                <path d="M1035.971,180 L1036.657,177.494 L1039.597,177.494 L1038.911,180 L1040.283,180 L1040.969,177.494 L1043.279,177.494 L1043.279,176.542 L1041.221,176.542 L1042.005,173.672 L1043.979,173.672 L1043.979,172.72 L1042.257,172.72 L1042.943,170.2 L1041.571,170.2 L1040.885,172.72 L1037.945,172.72 L1038.631,170.2 L1037.259,170.2 L1036.573,172.72 L1034.263,172.72 L1034.263,173.672 L1036.321,173.672 L1035.537,176.542 L1033.563,176.542 L1033.563,177.494 L1035.285,177.494 L1034.599,180 L1035.971,180 Z M1039.849,176.542 L1036.909,176.542 L1037.693,173.672 L1040.633,173.672 L1039.849,176.542 Z M1049.135,180.14 C1051.487,180.14 1052.845,179.048 1052.845,177.382 C1052.845,176.234 1052.117,175.38 1050.885,174.974 C1051.893,174.554 1052.495,173.756 1052.495,172.692 C1052.495,171.124 1051.207,170.06 1049.135,170.06 C1047.049,170.06 1045.761,171.124 1045.761,172.692 C1045.761,173.742 1046.363,174.554 1047.385,174.974 C1046.139,175.366 1045.411,176.234 1045.411,177.382 C1045.411,179.048 1046.769,180.14 1049.135,180.14 Z M1049.135,174.442 C1047.861,174.442 1047.077,173.826 1047.077,172.79 C1047.077,171.74 1047.861,171.096 1049.135,171.096 C1050.409,171.096 1051.179,171.74 1051.179,172.79 C1051.179,173.826 1050.409,174.442 1049.135,174.442 Z M1049.135,179.118 C1047.679,179.118 1046.797,178.446 1046.797,177.34 C1046.797,176.206 1047.679,175.534 1049.135,175.534 C1050.577,175.534 1051.459,176.206 1051.459,177.34 C1051.459,178.446 1050.577,179.118 1049.135,179.118 Z M1061.613,180 L1061.613,178.88 L1056.545,178.88 L1059.177,176.57 C1060.857,175.128 1061.389,174.204 1061.389,172.93 C1061.389,171.194 1060.101,170.06 1058.071,170.06 C1056.027,170.06 1054.697,171.222 1054.557,173.098 L1055.873,173.308 C1055.929,171.95 1056.741,171.194 1058.057,171.194 C1059.261,171.194 1059.989,171.866 1059.989,172.944 C1059.989,173.868 1059.611,174.568 1058.337,175.702 L1054.739,178.88 L1054.739,180 L1061.613,180 Z M1066.923,180.14 C1069.275,180.14 1070.633,179.048 1070.633,177.382 C1070.633,176.234 1069.905,175.38 1068.673,174.974 C1069.681,174.554 1070.283,173.756 1070.283,172.692 C1070.283,171.124 1068.995,170.06 1066.923,170.06 C1064.837,170.06 1063.549,171.124 1063.549,172.692 C1063.549,173.742 1064.151,174.554 1065.173,174.974 C1063.927,175.366 1063.199,176.234 1063.199,177.382 C1063.199,179.048 1064.557,180.14 1066.923,180.14 Z M1066.923,174.442 C1065.649,174.442 1064.865,173.826 1064.865,172.79 C1064.865,171.74 1065.649,171.096 1066.923,171.096 C1068.197,171.096 1068.967,171.74 1068.967,172.79 C1068.967,173.826 1068.197,174.442 1066.923,174.442 Z M1066.923,179.118 C1065.467,179.118 1064.585,178.446 1064.585,177.34 C1064.585,176.206 1065.467,175.534 1066.923,175.534 C1068.365,175.534 1069.247,176.206 1069.247,177.34 C1069.247,178.446 1068.365,179.118 1066.923,179.118 Z M1079.401,180 L1079.401,178.88 L1074.333,178.88 L1076.965,176.57 C1078.645,175.128 1079.177,174.204 1079.177,172.93 C1079.177,171.194 1077.889,170.06 1075.859,170.06 C1073.815,170.06 1072.485,171.222 1072.345,173.098 L1073.661,173.308 C1073.717,171.95 1074.529,171.194 1075.845,171.194 C1077.049,171.194 1077.777,171.866 1077.777,172.944 C1077.777,173.868 1077.399,174.568 1076.125,175.702 L1072.527,178.88 L1072.527,180 L1079.401,180 Z M1083.199,180 L1087.259,171.334 L1087.259,170.2 L1080.623,170.2 L1080.623,171.334 L1085.831,171.334 L1081.701,180 L1083.199,180 Z M1096.069,180 L1096.069,178.866 L1090.777,178.866 L1090.777,175.548 L1095.397,175.548 L1095.397,174.414 L1090.777,174.414 L1090.777,171.334 L1095.999,171.334 L1095.999,170.2 L1089.405,170.2 L1089.405,180 L1096.069,180 Z" id="#82827E" fill="#FFFFFF" fill-rule="nonzero"></path>
                <path d="M310.89,467 C315.47,467 318.13,464.36 318.13,460.06 C318.13,455.68 315.47,453 310.89,453 L305.23,453 L305.23,467 L310.89,467 Z M310.89,464.44 L308.37,464.44 L308.37,455.56 L310.89,455.56 C313.51,455.56 314.89,457.22 314.89,460.06 C314.89,462.82 313.51,464.44 310.89,464.44 Z M323.51,467.2 C325.11,467.2 326.37,466.52 327.17,465.28 C327.31,466.56 328.11,467.18 329.61,467.18 C329.93,467.18 330.47,467.08 330.79,466.96 L330.85,464.94 C330.77,464.96 330.61,464.98 330.49,464.98 C330.05,464.98 329.83,464.76 329.83,464.26 L329.83,460 C329.83,457.22 328.17,455.84 325.19,455.84 C322.41,455.84 320.67,457.06 320.19,459.48 L322.91,459.86 C323.01,458.66 323.81,458.04 325.11,458.04 C326.41,458.04 327.13,458.7 327.13,460.16 L324.15,460.5 C321.17,460.82 319.83,461.92 319.83,463.96 C319.83,465.94 321.27,467.2 323.51,467.2 Z M324.13,464.94 C323.11,464.94 322.59,464.54 322.59,463.72 C322.59,462.98 323.15,462.52 324.23,462.4 L327.15,462.04 L327.15,462.3 C327.15,463.78 325.83,464.94 324.13,464.94 Z M336.03,467 L336.03,462.24 C336.03,460.16 337.11,459.04 338.97,459.04 C339.29,459.04 339.61,459.06 339.83,459.14 L339.91,455.88 C339.85,455.86 339.69,455.84 339.59,455.84 C338.15,455.84 336.77,456.88 335.95,458.42 L335.67,456.04 L333.07,456.04 L333.07,467 L336.03,467 Z M344.95,467 L344.95,463.74 L345.77,462.86 L349.07,467 L352.71,467 L347.67,460.84 L352.21,456.04 L348.79,456.04 L344.95,460.22 L344.95,452 L342.01,452 L342.01,467 L344.95,467 Z M365.15,467.2 C367.13,467.2 368.67,466.4 369.67,464.92 L369.87,467 L372.03,467 L372.03,459.58 L365.43,459.58 L365.43,461.98 L369.17,461.98 C368.85,463.68 367.59,464.64 365.47,464.64 C362.99,464.64 361.59,462.96 361.59,460 C361.59,457.04 362.99,455.36 365.51,455.36 C367.29,455.36 368.41,456.28 368.81,457.94 L371.83,457.28 C371.05,454.34 368.87,452.8 365.49,452.8 C361.17,452.8 358.37,455.66 358.37,460 C358.37,464.34 361.03,467.2 365.15,467.2 Z M378.03,467 L378.03,462.24 C378.03,460.16 379.11,459.04 380.97,459.04 C381.29,459.04 381.61,459.06 381.83,459.14 L381.91,455.88 C381.85,455.86 381.69,455.84 381.59,455.84 C380.15,455.84 378.77,456.88 377.95,458.42 L377.67,456.04 L375.07,456.04 L375.07,467 L378.03,467 Z M388.99,467.2 C392.07,467.2 393.71,465.9 394.29,463.74 L391.57,463.26 C391.25,464.32 390.43,464.9 389.01,464.9 C387.35,464.9 386.41,463.9 386.21,462.24 L394.27,462.24 C394.35,461.88 394.39,461.5 394.39,461.08 C394.39,457.86 392.15,455.84 388.97,455.84 C385.43,455.84 383.31,458.22 383.31,461.52 C383.31,464.96 385.51,467.2 388.99,467.2 Z M391.61,460.4 L386.27,460.4 C386.57,458.96 387.51,458.14 388.99,458.14 C390.43,458.14 391.43,458.92 391.61,460.4 Z M397.69,471.2 C399.79,471.2 400.95,470.08 402.03,467.2 L406.21,456.04 L403.29,456.04 L400.93,463.18 L398.35,456.04 L395.25,456.04 L399.51,466.42 C398.81,468.32 398.29,468.8 396.95,468.8 C396.65,468.8 396.37,468.78 396.09,468.72 L396.19,470.98 C396.59,471.12 397.13,471.2 397.69,471.2 Z" id="DarkGrey" fill="#FFFFFF" fill-rule="nonzero"></path>
                <path d="M1023.08,467 L1023.08,464.44 L1016.52,464.44 L1016.52,453 L1013.38,453 L1013.38,467 L1023.08,467 Z M1028.28,454.72 L1028.28,452 L1025.26,452 L1025.26,454.72 L1028.28,454.72 Z M1028.24,467 L1028.24,456.04 L1025.28,456.04 L1025.28,467 L1028.24,467 Z M1035.86,471.2 C1039.7,471.2 1042,469.8 1042,467.34 C1042,465.5 1040.68,464.44 1038.32,464.38 L1034.82,464.28 C1034.08,464.26 1033.72,464 1033.72,463.48 C1033.72,463.08 1033.92,462.86 1034.36,462.74 C1034.82,462.84 1035.34,462.88 1035.88,462.88 C1038.76,462.88 1040.68,461.54 1040.68,459.38 C1040.68,458.86 1040.58,458.4 1040.36,457.98 C1040.76,457.88 1041.24,457.88 1041.86,457.98 L1041.96,455.44 C1040.78,455.42 1039.92,455.86 1039.34,456.78 C1038.48,456.18 1037.28,455.84 1035.88,455.84 C1033,455.84 1031.08,457.2 1031.08,459.38 C1031.08,460.58 1031.68,461.52 1032.68,462.12 C1031.66,462.52 1031.08,463.22 1031.08,464.2 C1031.08,465.12 1031.62,465.86 1032.58,466.18 C1031.06,466.44 1030.3,467.18 1030.3,468.34 C1030.3,470.24 1032.28,471.2 1035.86,471.2 Z M1035.88,460.96 C1034.76,460.96 1033.98,460.38 1033.98,459.38 C1033.98,458.36 1034.76,457.76 1035.88,457.76 C1037,457.76 1037.76,458.36 1037.76,459.38 C1037.76,460.38 1037,460.96 1035.88,460.96 Z M1036.02,469.14 C1034.12,469.14 1033.22,468.76 1033.22,467.86 C1033.22,467.2 1033.68,466.82 1034.56,466.76 L1037.78,466.8 C1038.74,466.8 1039.12,467.14 1039.12,467.7 C1039.12,468.58 1038.08,469.14 1036.02,469.14 Z M1046.96,467 L1046.96,461.18 C1046.96,459.48 1047.96,458.42 1049.44,458.42 C1050.7,458.42 1051.38,459.22 1051.38,460.48 L1051.38,467 L1054.36,467 L1054.36,459.8 C1054.36,457.36 1052.92,455.84 1050.56,455.84 C1049.04,455.84 1047.76,456.56 1046.96,457.82 L1046.96,452 L1044,452 L1044,467 L1046.96,467 Z M1061.74,467.2 C1062.48,467.2 1063.2,467.12 1063.88,466.98 L1063.96,464.68 C1063.54,464.76 1063.04,464.82 1062.62,464.82 C1061.38,464.82 1060.94,464.36 1060.94,462.94 L1060.94,458.34 L1063.78,458.34 L1063.78,456.04 L1060.94,456.04 L1060.94,453.32 L1058.62,453.32 C1058.52312,455.780625 1058.40748,456.026445 1057.1639,456.039406 L1056.24,456.04 L1056.24,458.34 L1057.96,458.34 L1057.96,463.5 C1057.96,466.06 1059.22,467.2 1061.74,467.2 Z M1077,467.2 C1078.98,467.2 1080.52,466.4 1081.52,464.92 L1081.72,467 L1083.88,467 L1083.88,459.58 L1077.28,459.58 L1077.28,461.98 L1081.02,461.98 C1080.7,463.68 1079.44,464.64 1077.32,464.64 C1074.84,464.64 1073.44,462.96 1073.44,460 C1073.44,457.04 1074.84,455.36 1077.36,455.36 C1079.14,455.36 1080.26,456.28 1080.66,457.94 L1083.68,457.28 C1082.9,454.34 1080.72,452.8 1077.34,452.8 C1073.02,452.8 1070.22,455.66 1070.22,460 C1070.22,464.34 1072.88,467.2 1077,467.2 Z M1089.88,467 L1089.88,462.24 C1089.88,460.16 1090.96,459.04 1092.82,459.04 C1093.14,459.04 1093.46,459.06 1093.68,459.14 L1093.76,455.88 C1093.7,455.86 1093.54,455.84 1093.44,455.84 C1092,455.84 1090.62,456.88 1089.8,458.42 L1089.52,456.04 L1086.92,456.04 L1086.92,467 L1089.88,467 Z M1100.84,467.2 C1103.92,467.2 1105.56,465.9 1106.14,463.74 L1103.42,463.26 C1103.1,464.32 1102.28,464.9 1100.86,464.9 C1099.2,464.9 1098.26,463.9 1098.06,462.24 L1106.12,462.24 C1106.2,461.88 1106.24,461.5 1106.24,461.08 C1106.24,457.86 1104,455.84 1100.82,455.84 C1097.28,455.84 1095.16,458.22 1095.16,461.52 C1095.16,464.96 1097.36,467.2 1100.84,467.2 Z M1103.46,460.4 L1098.12,460.4 C1098.42,458.96 1099.36,458.14 1100.84,458.14 C1102.28,458.14 1103.28,458.92 1103.46,460.4 Z M1109.54,471.2 C1111.64,471.2 1112.8,470.08 1113.88,467.2 L1118.06,456.04 L1115.14,456.04 L1112.78,463.18 L1110.2,456.04 L1107.1,456.04 L1111.36,466.42 C1110.66,468.32 1110.14,468.8 1108.8,468.8 C1108.5,468.8 1108.22,468.78 1107.94,468.72 L1108.04,470.98 C1108.44,471.12 1108.98,471.2 1109.54,471.2 Z" id="LightGrey" fill="#FFFFFF" fill-rule="nonzero"></path>
                <path d="M828.31,798 C831.33,798 833.09,796.54 833.09,794.12 C833.09,792.46 832.05,791.24 830.33,790.74 C831.79,790.12 832.59,789.02 832.59,787.6 C832.59,785.34 830.93,784 828.19,784 L821.29,784 L821.29,798 L828.31,798 Z M827.61,789.74 L824.37,789.74 L824.37,786.44 L827.61,786.44 C828.85,786.44 829.53,787.02 829.53,788.08 C829.53,789.12 828.81,789.74 827.61,789.74 Z M827.87,795.56 L824.37,795.56 L824.37,792.16 L827.87,792.16 C829.09,792.16 829.89,792.78 829.89,793.92 C829.89,794.96 829.19,795.56 827.87,795.56 Z M838.75,798 L838.75,793.24 C838.75,791.16 839.83,790.04 841.69,790.04 C842.01,790.04 842.33,790.06 842.55,790.14 L842.63,786.88 C842.57,786.86 842.41,786.84 842.31,786.84 C840.87,786.84 839.49,787.88 838.67,789.42 L838.39,787.04 L835.79,787.04 L835.79,798 L838.75,798 Z M847.73,785.72 L847.73,783 L844.71,783 L844.71,785.72 L847.73,785.72 Z M847.69,798 L847.69,787.04 L844.73,787.04 L844.73,798 L847.69,798 Z M855.31,802.2 C859.15,802.2 861.45,800.8 861.45,798.34 C861.45,796.5 860.13,795.44 857.77,795.38 L854.27,795.28 C853.53,795.26 853.17,795 853.17,794.48 C853.17,794.08 853.37,793.86 853.81,793.74 C854.27,793.84 854.79,793.88 855.33,793.88 C858.21,793.88 860.13,792.54 860.13,790.38 C860.13,789.86 860.03,789.4 859.81,788.98 C860.21,788.88 860.69,788.88 861.31,788.98 L861.41,786.44 C860.23,786.42 859.37,786.86 858.79,787.78 C857.93,787.18 856.73,786.84 855.33,786.84 C852.45,786.84 850.53,788.2 850.53,790.38 C850.53,791.58 851.13,792.52 852.13,793.12 C851.11,793.52 850.53,794.22 850.53,795.2 C850.53,796.12 851.07,796.86 852.03,797.18 C850.51,797.44 849.75,798.18 849.75,799.34 C849.75,801.24 851.73,802.2 855.31,802.2 Z M855.33,791.96 C854.21,791.96 853.43,791.38 853.43,790.38 C853.43,789.36 854.21,788.76 855.33,788.76 C856.45,788.76 857.21,789.36 857.21,790.38 C857.21,791.38 856.45,791.96 855.33,791.96 Z M855.47,800.14 C853.57,800.14 852.67,799.76 852.67,798.86 C852.67,798.2 853.13,797.82 854.01,797.76 L857.23,797.8 C858.19,797.8 858.57,798.14 858.57,798.7 C858.57,799.58 857.53,800.14 855.47,800.14 Z M866.41,798 L866.41,792.18 C866.41,790.48 867.41,789.42 868.89,789.42 C870.15,789.42 870.83,790.22 870.83,791.48 L870.83,798 L873.81,798 L873.81,790.8 C873.81,788.36 872.37,786.84 870.01,786.84 C868.49,786.84 867.21,787.56 866.41,788.82 L866.41,783 L863.45,783 L863.45,798 L866.41,798 Z M881.19,798.2 C881.93,798.2 882.65,798.12 883.33,797.98 L883.41,795.68 C882.99,795.76 882.49,795.82 882.07,795.82 C880.83,795.82 880.39,795.36 880.39,793.94 L880.39,789.34 L883.23,789.34 L883.23,787.04 L880.39,787.04 L880.39,784.32 L878.07,784.32 C877.973125,786.780625 877.85748,787.026445 876.613904,787.039406 L875.69,787.04 L875.69,789.34 L877.41,789.34 L877.41,794.5 C877.41,797.06 878.67,798.2 881.19,798.2 Z M896.87,798 L896.87,792.52 L901.95,784 L898.49,784 L895.43,789.74 L892.37,784 L888.81,784 L893.73,792.4 L893.73,798 L896.87,798 Z M907.21,798.2 C910.29,798.2 911.93,796.9 912.51,794.74 L909.79,794.26 C909.47,795.32 908.65,795.9 907.23,795.9 C905.57,795.9 904.63,794.9 904.43,793.24 L912.49,793.24 C912.57,792.88 912.61,792.5 912.61,792.08 C912.61,788.86 910.37,786.84 907.19,786.84 C903.65,786.84 901.53,789.22 901.53,792.52 C901.53,795.96 903.73,798.2 907.21,798.2 Z M909.83,791.4 L904.49,791.4 C904.79,789.96 905.73,789.14 907.21,789.14 C908.65,789.14 909.65,789.92 909.83,791.4 Z M918.15,798 L918.15,783 L915.19,783 L915.19,798 L918.15,798 Z M924.45,798 L924.45,783 L921.49,783 L921.49,798 L924.45,798 Z M932.73,798.2 C936.23,798.2 938.33,796 938.33,792.52 C938.33,789.04 936.23,786.84 932.73,786.84 C929.27,786.84 927.15,789.04 927.15,792.52 C927.15,796 929.27,798.2 932.73,798.2 Z M932.73,795.8 C931.03,795.8 930.19,794.66 930.19,792.52 C930.19,790.38 931.01,789.24 932.73,789.24 C934.47,789.24 935.29,790.38 935.29,792.52 C935.29,794.66 934.47,795.8 932.73,795.8 Z M945.33,798 L947.79,790.74 L950.33,798 L952.55,798 L956.13,787.04 L953.37,787.04 L951.35,794.14 L948.91,787.04 L946.73,787.04 L944.47,794.2 L942.43,787.04 L939.53,787.04 L943.09,798 L945.33,798 Z" id="BrightYellow" fill="#FFFFFF" fill-rule="nonzero"></path>
                <path d="M1200.92,798.2 C1205.2,798.2 1207.92,795.3 1207.92,791 C1207.92,786.68 1205.2,783.8 1200.92,783.8 C1196.66,783.8 1193.94,786.7 1193.94,791 C1193.94,795.3 1196.66,798.2 1200.92,798.2 Z M1200.92,795.64 C1198.46,795.64 1197.16,793.94 1197.16,791 C1197.16,788.08 1198.46,786.36 1200.92,786.36 C1203.4,786.36 1204.7,788.08 1204.7,791 C1204.7,793.92 1203.4,795.64 1200.92,795.64 Z M1214.02,798 L1214.02,789.34 L1216.78,789.34 L1216.78,787.04 L1214.02,787.04 L1214.02,786.88 C1214.02,785.62 1214.58,785.2 1215.62,785.2 C1216.02,785.2 1216.34,785.24 1216.72,785.34 L1216.82,782.98 C1216.36,782.88 1215.72,782.8 1215.14,782.8 C1212.5,782.8 1211.06,784.2 1211.06,786.9 L1211.06,787.04 L1209.34,787.04 L1209.34,789.34 L1211.06,789.34 L1211.06,798 L1214.02,798 Z M1222.1,798 L1222.1,789.34 L1224.86,789.34 L1224.86,787.04 L1222.1,787.04 L1222.1,786.88 C1222.1,785.62 1222.66,785.2 1223.7,785.2 C1224.1,785.2 1224.42,785.24 1224.8,785.34 L1224.9,782.98 C1224.44,782.88 1223.8,782.8 1223.22,782.8 C1220.58,782.8 1219.14,784.2 1219.14,786.9 L1219.14,787.04 L1217.42,787.04 L1217.42,789.34 L1219.14,789.34 L1219.14,798 L1222.1,798 Z M1237.32,798 L1240.48,788.16 L1243.66,798 L1246.76,798 L1251.04,784 L1247.78,784 L1245.12,794.08 L1242,784 L1239.08,784 L1236,793.96 L1233.38,784 L1230.06,784 L1234.34,798 L1237.32,798 Z M1255.98,798 L1255.98,792.18 C1255.98,790.48 1256.98,789.42 1258.46,789.42 C1259.72,789.42 1260.4,790.22 1260.4,791.48 L1260.4,798 L1263.38,798 L1263.38,790.8 C1263.38,788.36 1261.94,786.84 1259.58,786.84 C1258.06,786.84 1256.78,787.56 1255.98,788.82 L1255.98,783 L1253.02,783 L1253.02,798 L1255.98,798 Z M1269.58,785.72 L1269.58,783 L1266.56,783 L1266.56,785.72 L1269.58,785.72 Z M1269.54,798 L1269.54,787.04 L1266.58,787.04 L1266.58,798 L1269.54,798 Z M1277.06,798.2 C1277.8,798.2 1278.52,798.12 1279.2,797.98 L1279.28,795.68 C1278.86,795.76 1278.36,795.82 1277.94,795.82 C1276.7,795.82 1276.26,795.36 1276.26,793.94 L1276.26,789.34 L1279.1,789.34 L1279.1,787.04 L1276.26,787.04 L1276.26,784.32 L1273.94,784.32 C1273.84312,786.780625 1273.72748,787.026445 1272.4839,787.039406 L1271.56,787.04 L1271.56,789.34 L1273.28,789.34 L1273.28,794.5 C1273.28,797.06 1274.54,798.2 1277.06,798.2 Z M1286.58,798.2 C1289.66,798.2 1291.3,796.9 1291.88,794.74 L1289.16,794.26 C1288.84,795.32 1288.02,795.9 1286.6,795.9 C1284.94,795.9 1284,794.9 1283.8,793.24 L1291.86,793.24 C1291.94,792.88 1291.98,792.5 1291.98,792.08 C1291.98,788.86 1289.74,786.84 1286.56,786.84 C1283.02,786.84 1280.9,789.22 1280.9,792.52 C1280.9,795.96 1283.1,798.2 1286.58,798.2 Z M1289.2,791.4 L1283.86,791.4 C1284.16,789.96 1285.1,789.14 1286.58,789.14 C1288.02,789.14 1289.02,789.92 1289.2,791.4 Z" id="OffWhite" fill="#C3C3BA" fill-rule="nonzero"></path>
                <path d="M1023.02,158 L1023.02,148.46 L1026.58,155.4 L1029.32,155.4 L1032.8,148.46 L1032.8,158 L1035.62,158 L1035.62,144 L1032.2,144 L1027.98,152.48 L1023.72,144 L1020.22,144 L1020.22,158 L1023.02,158 Z M1042.18,145.72 L1042.18,143 L1039.16,143 L1039.16,145.72 L1042.18,145.72 Z M1042.14,158 L1042.14,147.04 L1039.18,147.04 L1039.18,158 L1042.14,158 Z M1049.66,158.2 C1051.18,158.2 1052.44,157.4 1053.24,156.14 L1053.46,158 L1056.06,158 L1056.06,143 L1053.1,143 L1053.1,148.68 C1052.3,147.54 1051.1,146.84 1049.66,146.84 C1046.74,146.84 1044.84,149.14 1044.84,152.52 C1044.84,155.9 1046.74,158.2 1049.66,158.2 Z M1050.48,155.76 C1048.82,155.76 1047.88,154.48 1047.88,152.52 C1047.88,150.56 1048.82,149.28 1050.48,149.28 C1052.12,149.28 1053.1,150.56 1053.1,152.52 C1053.1,154.48 1052.12,155.76 1050.48,155.76 Z M1070.16,158.2 C1072.14,158.2 1073.68,157.4 1074.68,155.92 L1074.88,158 L1077.04,158 L1077.04,150.58 L1070.44,150.58 L1070.44,152.98 L1074.18,152.98 C1073.86,154.68 1072.6,155.64 1070.48,155.64 C1068,155.64 1066.6,153.96 1066.6,151 C1066.6,148.04 1068,146.36 1070.52,146.36 C1072.3,146.36 1073.42,147.28 1073.82,148.94 L1076.84,148.28 C1076.06,145.34 1073.88,143.8 1070.5,143.8 C1066.18,143.8 1063.38,146.66 1063.38,151 C1063.38,155.34 1066.04,158.2 1070.16,158.2 Z M1083.04,158 L1083.04,153.24 C1083.04,151.16 1084.12,150.04 1085.98,150.04 C1086.3,150.04 1086.62,150.06 1086.84,150.14 L1086.92,146.88 C1086.86,146.86 1086.7,146.84 1086.6,146.84 C1085.16,146.84 1083.78,147.88 1082.96,149.42 L1082.68,147.04 L1080.08,147.04 L1080.08,158 L1083.04,158 Z M1094,158.2 C1097.08,158.2 1098.72,156.9 1099.3,154.74 L1096.58,154.26 C1096.26,155.32 1095.44,155.9 1094.02,155.9 C1092.36,155.9 1091.42,154.9 1091.22,153.24 L1099.28,153.24 C1099.36,152.88 1099.4,152.5 1099.4,152.08 C1099.4,148.86 1097.16,146.84 1093.98,146.84 C1090.44,146.84 1088.32,149.22 1088.32,152.52 C1088.32,155.96 1090.52,158.2 1094,158.2 Z M1096.62,151.4 L1091.28,151.4 C1091.58,149.96 1092.52,149.14 1094,149.14 C1095.44,149.14 1096.44,149.92 1096.62,151.4 Z M1102.7,162.2 C1104.8,162.2 1105.96,161.08 1107.04,158.2 L1111.22,147.04 L1108.3,147.04 L1105.94,154.18 L1103.36,147.04 L1100.26,147.04 L1104.52,157.42 C1103.82,159.32 1103.3,159.8 1101.96,159.8 C1101.66,159.8 1101.38,159.78 1101.1,159.72 L1101.2,161.98 C1101.6,162.12 1102.14,162.2 1102.7,162.2 Z" id="MidGrey" fill="#FFFFFF" fill-rule="nonzero"></path>
            </g>
        </g>
    </g>
</svg>